<?xml version="1.0" encoding="UTF-8" standalone="no"?>
<!DOCTYPE svg PUBLIC "-//W3C//DTD SVG 1.1//EN" "http://www.w3.org/Graphics/SVG/1.1/DTD/svg11.dtd">
<svg width="100%" height="100%" viewBox="0 0 217 259" version="1.1" xmlns="http://www.w3.org/2000/svg" xmlns:xlink="http://www.w3.org/1999/xlink" xml:space="preserve" xmlns:serif="http://www.serif.com/" style="fill-rule:evenodd;clip-rule:evenodd;stroke-linejoin:round;stroke-miterlimit:2;">
    <g transform="matrix(1,0,0,1,0,-347)">
        <g id="clic-area-2-14" transform="matrix(0.0869735,0,0,1,0,783.787)">
            <rect x="0" y="-436.239" width="2491.66" height="258.283" style="fill:none;"/>
            <g transform="matrix(11.4978,0,0,1,-993.932,-450.005)">
                <path d="M86.446,26.217c10.229,-4.863 20.111,-9.083 29.531,-12.451l70.703,0c21.143,8.858 41.965,18.156 62.042,28.613l54.431,45.511l-47.202,55.281l-12.194,-7.953l-0.615,136.831l-151.015,0l0.486,-108.176l66.607,-78.006l-69.024,-57.713c-1.241,-0.647 -2.492,-1.293 -3.75,-1.937Z" style="fill:#fff;"/>
            </g>
        </g>
    </g>
</svg>
