<?xml version="1.0" encoding="UTF-8" standalone="no"?>
<!DOCTYPE svg PUBLIC "-//W3C//DTD SVG 1.1//EN" "http://www.w3.org/Graphics/SVG/1.1/DTD/svg11.dtd">
<svg width="100%" height="100%" viewBox="0 0 2492 259" version="1.1" xmlns="http://www.w3.org/2000/svg" xmlns:xlink="http://www.w3.org/1999/xlink" xml:space="preserve" xmlns:serif="http://www.serif.com/" style="fill-rule:evenodd;clip-rule:evenodd;stroke-linejoin:round;stroke-miterlimit:2;">
    <g transform="matrix(1,0,0,1,0,-694)">
        <g id="stripe-full-clic-area" transform="matrix(1,0,0,1,0,1130.57)">
            <rect x="0" y="-436.239" width="2491.66" height="258.283" style="fill:none;"/>
            <clipPath id="_clip1">
                <rect x="0" y="-436.239" width="2491.66" height="258.283"/>
            </clipPath>
            <g clip-path="url(#_clip1)">
                <g transform="matrix(1,0,0,1,0,-449.245)">
                    <path d="M64.395,272.049l-3.526,-135.289l-13.835,8.715l-47.034,-55.965l56.992,-48.167c20.84,-11.371 40.774,-21.067 58.985,-27.577l70.703,0c21.143,8.858 41.965,18.156 62.042,28.613l54.431,45.511l-47.202,55.281l-12.194,-7.953l-0.615,136.831l-178.747,0Z" style="fill:#fff;"/>
                </g>
                <g transform="matrix(1,0,0,1,168.346,-449.245)">
                    <path d="M86.446,26.217c10.229,-4.863 20.111,-9.083 29.531,-12.451l70.703,0c21.143,8.858 41.965,18.156 62.042,28.613l54.431,45.511l-47.202,55.281l-12.194,-7.953l-0.615,136.831l-151.015,0l0.486,-108.176l66.607,-78.006l-69.024,-57.713c-1.241,-0.647 -2.492,-1.293 -3.75,-1.937Z" style="fill:#fff;"/>
                </g>
                <g transform="matrix(1,0,0,1,336.693,-449.245)">
                    <path d="M86.446,26.217c10.229,-4.863 20.111,-9.083 29.531,-12.451l70.703,0c21.143,8.858 41.965,18.156 62.042,28.613l54.431,45.511l-47.202,55.281l-12.194,-7.953l-0.615,136.831l-151.015,0l0.486,-108.176l66.607,-78.006l-69.024,-57.713c-1.241,-0.647 -2.492,-1.293 -3.75,-1.937Z" style="fill:#fff;"/>
                </g>
                <g transform="matrix(1,0,0,1,505.039,-449.245)">
                    <path d="M86.446,26.217c10.229,-4.863 20.111,-9.083 29.531,-12.451l70.703,0c21.143,8.858 41.965,18.156 62.042,28.613l54.431,45.511l-47.202,55.281l-12.194,-7.953l-0.615,136.831l-151.015,0l0.486,-108.176l66.607,-78.006l-69.024,-57.713c-1.241,-0.647 -2.492,-1.293 -3.75,-1.937Z" style="fill:#fff;"/>
                </g>
                <g transform="matrix(1,0,0,1,673.385,-449.245)">
                    <path d="M86.446,26.217c10.229,-4.863 20.111,-9.083 29.531,-12.451l70.703,0c21.143,8.858 41.965,18.156 62.042,28.613l54.431,45.511l-47.202,55.281l-12.194,-7.953l-0.615,136.831l-151.015,0l0.486,-108.176l66.607,-78.006l-69.024,-57.713c-1.241,-0.647 -2.492,-1.293 -3.75,-1.937Z" style="fill:#fff;"/>
                </g>
                <g transform="matrix(1,0,0,1,841.732,-449.245)">
                    <path d="M86.446,26.217c10.229,-4.863 20.111,-9.083 29.531,-12.451l70.703,0c21.143,8.858 41.965,18.156 62.042,28.613l54.431,45.511l-47.202,55.281l-12.194,-7.953l-0.615,136.831l-151.015,0l0.486,-108.176l66.607,-78.006l-69.024,-57.713c-1.241,-0.647 -2.492,-1.293 -3.75,-1.937Z" style="fill:#fff;"/>
                </g>
                <g transform="matrix(1,0,0,1,1010.08,-449.245)">
                    <path d="M86.446,26.217c10.229,-4.863 20.111,-9.083 29.531,-12.451l70.703,0c21.143,8.858 41.965,18.156 62.042,28.613l54.431,45.511l-47.202,55.281l-12.194,-7.953l-0.615,136.831l-151.015,0l0.486,-108.176l66.607,-78.006l-69.024,-57.713c-1.241,-0.647 -2.492,-1.293 -3.75,-1.937Z" style="fill:#fff;"/>
                </g>
                <g transform="matrix(1,0,0,1,1178.42,-449.245)">
                    <path d="M86.446,26.217c10.229,-4.863 20.111,-9.083 29.531,-12.451l70.703,0c21.143,8.858 41.965,18.156 62.042,28.613l54.431,45.511l-47.202,55.281l-12.194,-7.953l-0.615,136.831l-151.015,0l0.486,-108.176l66.607,-78.006l-69.024,-57.713c-1.241,-0.647 -2.492,-1.293 -3.75,-1.937Z" style="fill:#fff;"/>
                </g>
                <g transform="matrix(1,0,0,1,1346.77,-449.245)">
                    <path d="M86.446,26.217c10.229,-4.863 20.111,-9.083 29.531,-12.451l70.703,0c21.143,8.858 41.965,18.156 62.042,28.613l54.431,45.511l-47.202,55.281l-12.194,-7.953l-0.615,136.831l-151.015,0l0.486,-108.176l66.607,-78.006l-69.024,-57.713c-1.241,-0.647 -2.492,-1.293 -3.75,-1.937Z" style="fill:#fff;"/>
                </g>
                <g transform="matrix(1,0,0,1,1515.12,-449.245)">
                    <path d="M86.446,26.217c10.229,-4.863 20.111,-9.083 29.531,-12.451l70.703,0c21.143,8.858 41.965,18.156 62.042,28.613l54.431,45.511l-47.202,55.281l-12.194,-7.953l-0.615,136.831l-151.015,0l0.486,-108.176l66.607,-78.006l-69.024,-57.713c-1.241,-0.647 -2.492,-1.293 -3.75,-1.937Z" style="fill:#fff;"/>
                </g>
                <g transform="matrix(1,0,0,1,1683.46,-449.245)">
                    <path d="M86.446,26.217c10.229,-4.863 20.111,-9.083 29.531,-12.451l70.703,0c21.143,8.858 41.965,18.156 62.042,28.613l54.431,45.511l-47.202,55.281l-12.194,-7.953l-0.615,136.831l-151.015,0l0.486,-108.176l66.607,-78.006l-69.024,-57.713c-1.241,-0.647 -2.492,-1.293 -3.75,-1.937Z" style="fill:#fff;"/>
                </g>
                <g transform="matrix(1,0,0,1,1851.81,-449.245)">
                    <path d="M86.446,26.217c10.229,-4.863 20.111,-9.083 29.531,-12.451l70.703,0c21.143,8.858 41.965,18.156 62.042,28.613l54.431,45.511l-47.202,55.281l-12.194,-7.953l-0.615,136.831l-151.015,0l0.486,-108.176l66.607,-78.006l-69.024,-57.713c-1.241,-0.647 -2.492,-1.293 -3.75,-1.937Z" style="fill:#fff;"/>
                </g>
                <g transform="matrix(1,0,0,1,2020.16,-449.245)">
                    <path d="M86.446,26.217c10.229,-4.863 20.111,-9.083 29.531,-12.451l70.703,0c21.143,8.858 41.965,18.156 62.042,28.613l54.431,45.511l-47.202,55.281l-12.194,-7.953l-0.615,136.831l-151.015,0l0.486,-108.176l66.607,-78.006l-69.024,-57.713c-1.241,-0.647 -2.492,-1.293 -3.75,-1.937Z" style="fill:#fff;"/>
                </g>
                <g transform="matrix(1,0,0,1,2188.5,-449.245)">
                    <path d="M86.446,26.217c10.229,-4.863 20.111,-9.083 29.531,-12.451l70.703,0c21.143,8.858 41.965,18.156 62.042,28.613l54.431,45.511l-47.202,55.281l-12.194,-7.953l-0.615,136.831l-151.015,0l0.486,-108.176l66.607,-78.006l-69.024,-57.713c-1.241,-0.647 -2.492,-1.293 -3.75,-1.937Z" style="fill:#fff;"/>
                </g>
            </g>
        </g>
    </g>
</svg>
