<?xml version="1.0" encoding="UTF-8" standalone="no"?>
<!DOCTYPE svg PUBLIC "-//W3C//DTD SVG 1.1//EN" "http://www.w3.org/Graphics/SVG/1.1/DTD/svg11.dtd">
<svg width="100%" height="100%" viewBox="0 0 1200 1200" version="1.1" xmlns="http://www.w3.org/2000/svg" xmlns:xlink="http://www.w3.org/1999/xlink" xml:space="preserve" xmlns:serif="http://www.serif.com/" style="fill-rule:evenodd;clip-rule:evenodd;stroke-linejoin:round;stroke-miterlimit:2;">
    <g transform="matrix(1.35767,0,0,1.35767,-215.281,-193.635)">
        <path d="M811.925,542.233L598.965,756.099L332.487,488.24C303.214,458.778 303.236,411.203 332.536,381.768L545.477,167.844C559.649,153.607 578.91,145.605 598.998,145.609C619.086,145.612 638.344,153.621 652.51,167.863L811.892,328.094L906.882,232.541C936.258,202.991 984.1,202.849 1013.65,232.226C1043.2,261.602 1043.34,309.443 1013.97,338.994L918.379,435.148L1013.95,531.228C1043.21,560.644 1043.25,608.16 1014.04,637.624L653.613,1001.16C639.413,1015.48 620.072,1023.53 599.903,1023.5C579.733,1023.48 560.413,1015.38 546.25,1001.02L186.808,636.601C157.547,606.935 157.876,559.095 187.542,529.834C217.208,500.574 265.048,500.903 294.308,530.569L600.138,840.635L854.025,584.557L811.925,542.233ZM705.438,435.18L598.965,328.14L492.518,435.078L598.999,542.25L705.438,435.18Z"/>
    </g>
</svg>
