<?xml version="1.0" encoding="UTF-8" standalone="no"?>
<!DOCTYPE svg PUBLIC "-//W3C//DTD SVG 1.1//EN" "http://www.w3.org/Graphics/SVG/1.1/DTD/svg11.dtd">
<svg width="100%" height="100%" viewBox="0 0 128 128" version="1.1" xmlns="http://www.w3.org/2000/svg" xmlns:xlink="http://www.w3.org/1999/xlink" xml:space="preserve" xmlns:serif="http://www.serif.com/" style="fill-rule:evenodd;clip-rule:evenodd;stroke-linejoin:round;stroke-miterlimit:2;">
    <g id="Artboard1" transform="matrix(1,0,0,1,-6.86614,-6.86614)">
        <rect x="6.866" y="6.866" width="128" height="128" style="fill:none;"/>
        <g transform="matrix(0.383516,2.77556e-17,-2.77556e-17,0.383516,-243.793,-17.4986)">
            <path style="fill:#ffffff;" d="M653.581,346.051L653.581,114.737C667.453,94.769 684.816,77.404 704.782,63.53L936.134,63.53C956.1,77.404 973.463,94.769 987.335,114.737L987.335,346.051C973.454,366.032 956.079,383.405 936.096,397.284L704.819,397.284C684.837,383.405 667.462,366.032 653.581,346.051ZM771.222,142.421C758.386,143.601 748.777,145.453 742.588,151.673C736.381,157.91 734.532,167.587 733.354,180.523C732.692,187.783 731.866,203.378 731.866,210.756C731.866,220.843 731.674,221.391 727.251,224.463C727.145,235.331 727.436,251.68 727.911,265.138C732.077,267.829 732.427,268.471 733.788,279.87C735.148,291.269 736.889,302.606 742.597,308.342C748.659,314.434 756.453,318.501 769.025,319.657C777.996,320.482 786.223,321.239 786.223,321.239C786.223,321.239 787.561,324.148 789.232,327.755C791.298,332.215 795.439,334.634 799.249,335.256C808.884,336.831 832.023,336.831 841.658,335.256C845.468,334.634 849.609,332.215 851.675,327.755C853.345,324.148 854.693,321.239 854.693,321.239C854.693,321.239 862.92,320.482 871.891,319.657C884.463,318.501 892.257,314.434 898.319,308.342C904.027,302.606 905.768,291.269 907.128,279.87C908.489,268.471 908.838,267.829 913.005,265.138C913.48,251.68 913.771,235.331 913.665,224.463C909.242,221.391 909.05,220.843 909.05,210.756C909.05,203.378 908.215,187.783 907.553,180.523C906.375,167.587 904.526,157.91 898.319,151.673C892.129,145.453 882.521,143.601 869.685,142.421C845.084,140.158 795.823,140.158 771.222,142.421Z"/>
        </g>
    </g>
</svg>
