<?xml version="1.0" encoding="UTF-8" standalone="no"?>
<!DOCTYPE svg PUBLIC "-//W3C//DTD SVG 1.1//EN" "http://www.w3.org/Graphics/SVG/1.1/DTD/svg11.dtd">
<svg width="100%" height="100%" viewBox="0 0 5015 5130" version="1.1" xmlns="http://www.w3.org/2000/svg" xmlns:xlink="http://www.w3.org/1999/xlink" xml:space="preserve" xmlns:serif="http://www.serif.com/" style="fill-rule:evenodd;clip-rule:evenodd;stroke-linejoin:round;stroke-miterlimit:2;">
    <g transform="matrix(1,0,0,1,-7939,0)">
        <g id="THIN" transform="matrix(1.02546,0,0,1,7939.61,0)">
            <rect x="0" y="0" width="4889.53" height="5130" style="fill:none;"/>
            <clipPath id="_clip1">
                <rect x="0" y="0" width="4889.53" height="5130"/>
            </clipPath>
            <g clip-path="url(#_clip1)">
                <g id="_2" serif:id="2" transform="matrix(0.975176,0,0,1,0,0)">
                    <g transform="matrix(26.2233,1.89698e-15,-1.89782e-15,26.2118,-19008.1,-3688.61)">
                        <path d="M771.222,142.421C795.823,140.158 845.084,140.158 869.685,142.421C882.521,143.601 892.129,145.453 898.319,151.673C904.526,157.91 906.375,167.587 907.553,180.523C908.215,187.783 909.05,203.378 909.05,210.756C909.05,220.843 909.242,221.391 913.665,224.463C913.771,235.331 913.48,251.68 913.005,265.138C908.838,267.829 908.489,268.471 907.128,279.87C905.768,291.269 904.027,302.606 898.319,308.342C892.257,314.434 884.463,318.501 871.891,319.657L854.693,321.239L851.675,327.755C849.609,332.215 845.468,334.634 841.658,335.256C832.023,336.831 808.884,336.831 799.249,335.256C795.439,334.634 791.298,332.215 789.232,327.755C787.561,324.148 786.223,321.239 786.223,321.239L769.025,319.657C756.453,318.501 748.659,314.434 742.597,308.342C736.889,302.606 735.148,291.269 733.788,279.87C732.427,268.471 732.077,267.829 727.911,265.138C727.436,251.68 727.145,235.331 727.251,224.463C731.674,221.391 731.866,220.843 731.866,210.756C731.866,203.378 732.692,187.783 733.354,180.523C734.532,167.587 736.381,157.91 742.588,151.673C748.777,145.453 758.386,143.601 771.222,142.421ZM804.963,236.872C790.223,245.073 779.894,245.751 764.286,240.896C768.319,244.666 775.582,247.49 784.214,247.49C793.995,247.49 803.848,241.8 804.963,236.872ZM846.624,272.869L846.624,278.246L847.79,278.246L848.627,277.268C849.279,277.777 849.905,278.139 850.505,278.353C851.106,278.566 851.803,278.673 852.597,278.673C854.103,278.673 855.355,278.246 856.353,277.39C857.35,276.535 857.849,275.445 857.849,274.122C857.849,273.124 857.533,272.258 856.902,271.525C856.271,270.792 855.447,270.344 854.429,270.181C850.276,269.448 848.2,268.47 848.2,267.248C848.2,266.556 848.48,265.97 849.04,265.492C849.599,265.013 850.368,264.774 851.345,264.774C852.526,264.774 853.482,265.11 854.215,265.782C854.948,266.454 855.526,267.608 855.815,268.867L856.597,268.867L856.597,263.919L855.736,263.919L854.948,264.835C853.91,264.061 852.76,263.674 851.498,263.674C850.032,263.674 848.856,264.117 847.971,265.003C847.085,265.889 846.643,266.943 846.643,268.165C846.643,269.061 846.933,269.855 847.513,270.548C848.093,271.24 848.882,271.708 849.879,271.953L853.818,272.808C855.304,273.073 856.047,273.806 856.047,275.008C856.047,275.761 855.737,276.377 855.116,276.856C854.495,277.334 853.666,277.574 852.627,277.574C851.325,277.574 850.276,277.202 849.482,276.459C848.688,275.715 847.996,274.519 847.406,272.869L846.624,272.869ZM820.458,278.246L820.458,272.906C817.621,272.232 814.933,271.371 812.59,270.254C811.707,269.834 811.657,269.735 811.742,268.77C812.274,262.728 814.986,226.581 814.986,226.581L815.009,203.693L810.81,203.693C810.818,228.425 810.829,261.508 810.832,269.434C810.832,269.744 810.796,269.82 810.557,270.016L802.859,276.316C802.812,276.355 802.793,276.417 802.811,276.475C802.828,276.533 802.878,276.575 802.939,276.582L820.458,278.246ZM866.42,221.931C865.219,224.192 863.621,225.322 861.626,225.322C859.875,225.322 858.583,224.538 857.748,222.97C857.504,222.522 857.331,221.992 857.229,221.381C857.127,220.77 857.076,220.068 857.076,219.273L867.336,219.273C867.336,216.85 866.751,214.951 865.58,213.576C864.41,212.202 862.847,211.514 860.893,211.514C858.959,211.514 857.361,212.237 856.099,213.683C854.837,215.129 854.206,217.003 854.206,219.304C854.206,221.483 854.852,223.26 856.145,224.635C857.438,226.009 859.051,226.697 860.985,226.697C863.794,226.697 865.942,225.251 867.428,222.359L866.42,221.931ZM857.076,218.113C857.076,216.341 857.433,214.956 858.145,213.958C858.858,212.96 859.784,212.461 860.924,212.461C861.901,212.461 862.73,212.863 863.412,213.668C864.094,214.472 864.435,215.445 864.435,216.585C864.435,217.603 864.048,218.113 863.275,218.113L857.076,218.113ZM882.481,239.855C882.481,239.57 882.781,239.269 883.381,238.954C883.982,238.638 884.679,238.48 885.473,238.48C886.409,238.48 887.188,238.745 887.809,239.274C888.43,239.804 888.74,240.486 888.74,241.321L888.74,243.459C885.727,243.806 883.381,244.483 881.702,245.491C880.023,246.499 879.183,247.726 879.183,249.172C879.183,250.19 879.575,251.005 880.358,251.616C881.142,252.227 882.236,252.532 883.641,252.532C884.781,252.532 885.748,252.318 886.542,251.891C887.193,251.545 887.967,250.903 888.862,249.966C888.862,251.651 890.347,252.532 892.163,252.532C893.265,252.532 894.274,252.199 894.806,251.934C894.776,251.842 894.671,251.662 894.549,251.478C894.323,251.139 894.146,251.075 893.685,251.187C893.316,251.277 892.918,251.328 892.676,251.328C891.862,251.328 891.275,250.814 891.275,248.799L891.275,241.168C891.275,240.048 890.812,239.137 889.885,238.434C888.959,237.732 887.692,237.38 886.084,237.38C884.313,237.38 882.837,237.783 881.656,238.587C880.476,239.391 879.885,240.323 879.885,241.382C879.885,241.973 880.053,242.426 880.389,242.742C880.725,243.057 881.157,243.215 881.687,243.215C882.745,243.215 883.275,242.706 883.275,241.688C883.275,241.443 883.183,241.168 883,240.863C882.654,240.272 882.481,239.936 882.481,239.855ZM888.74,246.545C888.74,247.93 888.297,249.075 887.412,249.982C886.526,250.888 885.493,251.341 884.313,251.341C883.6,251.341 883.035,251.122 882.618,250.684C882.201,250.246 881.992,249.64 881.992,248.866C881.992,247.604 882.526,246.642 883.595,245.98C884.664,245.318 886.379,244.824 888.74,244.498L888.74,246.545ZM757.649,236.471C758.339,234.701 760.259,231.677 761.452,230.39C757.519,219.168 755.736,216.424 754.691,218.928C753.672,221.369 755.582,230.517 757.649,236.471ZM857.574,265.079L858.765,265.079C860.068,265.079 860.719,265.65 860.719,266.79L860.719,275.802C860.719,276.657 860.271,277.085 859.376,277.085L857.879,277.085L857.879,278.246L866.002,278.246L866.002,277.085L864.383,277.085C863.63,277.085 863.254,276.739 863.254,276.046L863.254,263.674L857.574,263.919L857.574,265.079ZM892.068,273.908C890.867,276.168 889.269,277.299 887.274,277.299C885.524,277.299 884.231,276.515 883.396,274.947C883.152,274.498 882.979,273.969 882.877,273.358C882.775,272.747 882.725,272.044 882.725,271.25L892.984,271.25C892.984,268.827 892.399,266.928 891.228,265.553C890.058,264.178 888.496,263.491 886.541,263.491C884.608,263.491 883.01,264.214 881.747,265.66C880.485,267.106 879.854,268.979 879.854,271.281C879.854,273.46 880.501,275.237 881.793,276.611C883.086,277.986 884.699,278.673 886.633,278.673C889.442,278.673 891.59,277.227 893.076,274.336L892.068,273.908ZM882.725,270.089C882.725,268.318 883.081,266.933 883.793,265.935C884.506,264.937 885.432,264.438 886.572,264.438C887.549,264.438 888.379,264.84 889.061,265.645C889.742,266.449 890.083,267.422 890.083,268.562C890.083,269.58 889.697,270.089 888.923,270.089L882.725,270.089ZM769.067,224.14C780.441,217.541 797.486,219.093 807.869,228.413C807.955,227.118 807.944,225.873 807.813,224.647C807.607,222.721 807.127,220.93 806.447,219.247C805.728,217.468 804.754,215.844 803.604,214.378C802.441,212.895 801.062,211.6 799.576,210.444C796.964,208.413 793.959,206.853 790.769,205.75C783.412,203.208 775.066,203.067 768.18,205.187C760.163,207.656 755.483,214.26 755.483,215.809C756.059,214.793 757.687,212.869 759.104,211.716C760.816,210.322 762.594,210.488 764.109,213.338C764.962,214.943 767.547,220.58 769.067,224.14ZM762.171,238.279C762.932,239.171 772.698,241.067 774.84,241.064C771.462,239.822 769.281,237.927 769.281,235.806C769.792,232.867 776.055,229.032 784.214,229.032C792.373,229.032 798.557,233.197 799.147,235.806C799.225,236.435 798.613,237.772 798.117,238.268C802.421,236.448 806.763,234.499 806.763,233.039C806.763,229.089 778.843,211.692 758.491,237.804C757.09,239.601 755.703,241.846 756.219,242.442C756.877,242.875 759.616,241.072 762.171,238.279ZM840.33,226.269L842.912,226.269C842.852,221.547 842.809,218.021 842.809,218.021C842.809,216.656 843.216,215.526 844.031,214.63C844.845,213.734 845.781,213.286 846.84,213.286C847.817,213.286 848.585,213.627 849.145,214.309C849.705,214.992 849.985,215.913 849.985,217.074L849.985,223.856C849.985,224.691 849.415,225.108 848.275,225.108L847.389,225.108L847.389,226.269L855.115,226.269L855.115,225.108L853.893,225.108C852.977,225.108 852.519,224.691 852.519,223.856L852.519,217.074C852.519,215.302 852.122,213.938 851.328,212.981C850.534,212.023 849.425,211.545 848,211.545C846.046,211.545 844.316,212.512 842.809,214.447L842.544,203.407L838.353,203.694L838.412,204.824C839.674,204.824 840.368,205.435 840.368,206.657C840.368,206.657 840.321,216.122 840.33,226.269ZM827.652,252.105L829.49,278.246L838.349,278.246L838.349,277.085L837.372,277.085C836.781,277.085 836.374,276.983 836.15,276.779C835.926,276.576 835.815,276.209 835.815,275.68L835.815,270.364C835.815,268.857 836.201,267.646 836.975,266.729C837.748,265.813 838.695,265.354 839.815,265.354C841.952,265.354 843.021,266.8 843.021,269.692L843.021,275.802C843.021,276.657 842.42,277.085 841.219,277.085L840.517,277.085L840.517,278.246L845.555,278.246L845.555,268.715C845.555,267.147 845.158,265.914 844.364,265.018C843.57,264.122 842.461,263.674 841.036,263.674C838.817,263.674 837.077,264.712 835.815,266.79C835.815,266.79 835.749,265.585 835.704,265.323C835.659,265.061 835.431,263.944 835.356,263.734L831.309,264.215L831.331,265.399L832.312,265.399C832.974,265.399 833.311,265.973 833.311,266.728L833.28,276.016C833.28,276.728 832.774,277.085 831.753,277.085C830.847,277.085 830.375,276.738 830.375,275.779C830.375,275.779 830.031,245.04 830.041,241.346L840.338,241.346L840.305,250.623C840.305,250.623 839.902,250.944 839.332,250.944L837.713,250.944L837.713,252.105L846.366,252.105L846.366,250.944L844.778,250.944C843.984,250.944 843.282,250.333 843.282,250.333L843.144,241.346L845.173,241.346C845.885,241.346 846.186,241.769 846.186,242.647L846.186,246.667C846.186,248.52 846.583,249.931 847.376,250.898C848.17,251.865 849.3,252.349 850.766,252.349C851.662,252.349 852.542,252.089 853.407,251.57C854.272,251.051 855.132,250.292 855.987,249.294L856.293,252.105L860.781,252.105L860.781,250.944L860.201,250.944C859.061,250.944 858.491,250.394 858.491,249.294L858.491,245.582C858.491,240.915 860.066,239.274 862.186,239.274C863.67,239.274 864.934,240.223 864.934,245.582L864.934,249.875C864.934,250.587 864.415,250.944 863.377,250.944L862.583,250.944L862.583,252.105L869.819,252.105L869.819,250.944L868.842,250.944C867.926,250.944 867.468,250.536 867.468,249.722L867.468,245.582C867.468,240.716 869.25,239.305 871.102,239.305C871.977,239.305 872.669,239.6 873.178,240.191C873.687,240.781 873.942,241.596 873.942,242.635L873.942,249.722C873.942,250.536 873.382,250.944 872.262,250.944L871.59,250.944L871.59,252.105L878.766,252.105L878.766,250.944L878.064,250.944C877.005,250.944 876.476,250.536 876.476,249.722L876.476,242.635C876.476,239.733 874.636,237.57 871.736,237.57C869.72,237.57 867.929,239.034 867.255,240.832C866.721,238.909 864.953,237.533 862.958,237.533C860.601,237.533 858.891,238.999 858.491,240.588C858.507,240.198 858.426,239.384 858.381,239.122C858.335,238.859 858.108,237.743 858.033,237.533L853.453,238.08L853.453,239.198L854.988,239.198C855.651,239.198 855.957,239.68 855.957,240.435L855.957,245.812C855.957,247.176 855.555,248.332 854.751,249.279C853.947,250.226 852.985,250.699 851.865,250.699C850.929,250.699 850.17,250.368 849.59,249.707C849.01,249.045 848.72,248.144 848.72,247.003L848.72,239.525L843.12,239.773L842.962,229.53L840.38,229.53L840.343,239.896L830.043,240.353C830.052,236.77 830.104,206.24 830.104,206.24C830.104,205.045 830.817,204.676 831.32,204.676C833.553,204.676 835.845,206.814 836.564,212.217L837.633,212.217L837.205,203.694L818.884,203.694L818.365,212.217L819.441,212.217C820.16,206.814 822.453,204.676 824.685,204.676C825.188,204.676 825.901,205.045 825.901,206.24L826.046,226.581L827.652,252.105ZM784.21,254.963C784.21,254.963 778.909,266.493 778.909,271.27C778.909,274.2 781.285,276.579 784.211,276.579C787.138,276.579 789.514,274.2 789.514,271.27C789.514,266.493 784.21,254.963 784.21,254.963ZM875.877,278.246L880.763,278.246L880.763,277.085L879.755,277.085C878.615,277.085 878.045,276.372 878.045,274.947L878.045,255.365L872.457,255.671L872.457,256.801L873.435,256.801C874.819,256.801 875.511,257.269 875.511,258.206L875.511,266.271C874.452,264.458 872.997,263.552 871.144,263.552C869.455,263.552 868.01,264.25 866.809,265.645C865.608,267.04 865.007,268.827 865.007,271.006C865.007,273.205 865.567,275.003 866.686,276.398C867.806,277.793 869.2,278.49 870.87,278.49C872.763,278.49 874.31,277.441 875.511,275.344L875.877,278.246ZM871.541,264.743C872.681,264.743 873.628,265.283 874.381,266.363C875.134,267.442 875.511,268.857 875.511,270.609C875.511,272.645 875.139,274.234 874.396,275.374C873.653,276.515 872.692,277.085 871.511,277.085C869.129,277.085 867.938,274.916 867.938,270.578C867.938,266.688 869.139,264.743 871.541,264.743ZM861.513,255.365C860.56,255.365 859.786,256.14 859.786,257.094C859.786,258.047 860.56,258.822 861.513,258.822C862.467,258.822 863.241,258.047 863.241,257.094C863.241,256.14 862.467,255.365 861.513,255.365ZM895.314,250.913C895.368,251.003 895.526,251.252 895.692,251.478C895.964,251.848 896.134,251.934 896.593,251.934L900.171,251.934L900.171,250.773L899.194,250.773C898.604,250.773 898.197,250.671 897.973,250.467C897.749,250.264 897.637,249.897 897.637,249.368L897.637,244.052C897.637,240.545 899.791,239.041 901.637,239.041C903.774,239.041 904.843,240.487 904.843,243.379L904.843,249.49C904.843,250.345 904.242,250.773 903.041,250.773L902.339,250.773L902.339,251.934L909.912,251.934L909.912,250.773L908.874,250.773C908.304,250.773 907.912,250.666 907.698,250.452C907.484,250.238 907.377,249.877 907.377,249.368L907.377,242.402C907.377,240.833 906.98,239.601 906.186,238.705C905.393,237.809 904.283,237.361 902.858,237.361C900.639,237.361 898.628,238.548 897.637,240.477C897.637,240.049 897.331,237.605 897.331,237.605L892.843,237.605L892.843,238.766L893.423,238.766C894.563,238.766 895.133,239.275 895.133,240.416C895.133,240.416 895.133,248.62 895.135,250.337C895.135,250.54 895.209,250.739 895.314,250.913Z" style="fill:white;"/>
                    </g>
                    <g transform="matrix(0.977084,0,0,0.977084,-15161.6,65.1491)">
                        <path d="M18276.1,2921.29L18233,2236.59L18229.1,1690.91C18229.1,1658.84 18210,1648.96 18196.5,1648.96C18136.6,1648.96 18075,1706.3 18055.7,1851.24L18026.9,1851.24L18040.8,1622.6L18532.5,1622.6L18544,1851.24L18515.3,1851.24C18496,1706.3 18434.5,1648.96 18374.5,1648.96C18361,1648.96 18341.9,1658.84 18341.9,1690.91C18341.9,1690.91 18340.5,2509.92 18340.3,2606.03L18616.7,2593.78L18617.7,2315.68L18687,2315.68L18691.2,2590.49L18841.5,2583.83L18841.5,2784.44C18841.5,2815.03 18849.3,2839.21 18864.9,2856.96C18880.5,2874.72 18900.8,2883.6 18925.9,2883.6C18956,2883.6 18981.8,2870.89 19003.4,2845.49C19025,2820.09 19035.8,2789.08 19035.8,2752.48L19035.8,2608.24C19035.8,2587.99 19027.5,2575.05 19009.8,2575.05L18968.6,2575.05L18968.6,2545.05L19091.5,2530.39C19093.5,2536.02 19099.6,2565.97 19100.8,2573.01C19102,2580.04 19104.2,2601.89 19103.8,2612.34C19114.5,2569.72 19160.4,2530.39 19223.7,2530.39C19277.2,2530.39 19324.6,2567.31 19339,2618.9C19357.1,2570.65 19405.1,2531.38 19459.2,2531.38C19537.1,2531.38 19586.5,2589.4 19586.5,2667.25L19586.5,2857.37C19586.5,2879.23 19600.7,2890.15 19629.1,2890.15L19647.9,2890.15L19647.9,2921.29L19455.3,2921.29L19455.3,2890.15L19473.4,2890.15C19503.4,2890.15 19518.4,2879.23 19518.4,2857.37L19518.4,2667.25C19518.4,2639.39 19511.6,2617.53 19497.9,2601.69C19484.3,2585.85 19465.7,2577.92 19442.2,2577.92C19392.5,2577.92 19344.7,2615.77 19344.7,2746.32L19344.7,2857.37C19344.7,2879.23 19357,2890.15 19381.6,2890.15L19407.8,2890.15L19407.8,2921.29L19213.6,2921.29L19213.6,2890.15L19234.9,2890.15C19262.8,2890.15 19276.7,2880.59 19276.7,2861.47L19276.7,2746.32C19276.7,2602.56 19242.8,2577.1 19202.9,2577.1C19146,2577.1 19103.8,2621.11 19103.8,2746.32L19103.8,2845.9C19103.8,2875.4 19119.1,2890.15 19149.7,2890.15L19165.2,2890.15L19165.2,2921.29L19044.8,2921.29L19036.6,2845.9C19013.6,2872.67 18990.5,2893.02 18967.3,2906.95C18944.1,2920.88 18920.5,2927.85 18896.4,2927.85C18857.1,2927.85 18826.8,2914.87 18805.5,2888.92C18784.2,2862.97 18773.5,2825.14 18773.5,2775.42L18773.5,2667.59C18773.5,2644.02 18765.4,2632.68 18746.3,2632.68L18691.9,2632.68L18695.6,2873.76C18695.6,2873.76 18714.4,2890.15 18735.7,2890.15L18778.3,2890.15L18778.3,2921.29L18546.1,2921.29L18546.1,2890.15L18589.6,2890.15C18604.9,2890.15 18615.7,2881.55 18615.7,2881.55L18616.6,2632.68L18340.2,2632.68C18340,2731.77 18349.2,3556.39 18349.2,3556.39C18349.2,3582.13 18361.9,3591.43 18386.2,3591.43C18413.6,3591.43 18427.1,3581.87 18427.1,3562.75L18428,3313.59C18428,3293.34 18418.9,3277.94 18401.2,3277.94L18374.8,3277.94L18374.2,3246.16L18482.9,3233.28C18484.9,3238.91 18491,3268.86 18492.2,3275.89C18493.4,3282.93 18495.2,3315.24 18495.2,3315.24C18529,3259.51 18575.8,3231.67 18635.3,3231.67C18673.5,3231.67 18703.3,3243.69 18724.6,3267.73C18745.9,3291.76 18756.6,3324.82 18756.6,3366.89L18756.6,3622.57L18621.4,3622.57L18621.4,3591.43L18640.2,3591.43C18672.5,3591.43 18688.6,3579.95 18688.6,3557.01L18688.6,3393.11C18688.6,3315.53 18659.9,3276.74 18602.5,3276.74C18572.5,3276.74 18547.1,3289.03 18526.3,3313.62C18505.5,3338.2 18495.2,3370.71 18495.2,3411.14L18495.2,3553.73C18495.2,3567.94 18498.2,3577.77 18504.2,3583.23C18510.2,3588.7 18521.1,3591.43 18537,3591.43L18563.2,3591.43L18563.2,3622.57L18325.4,3622.57L18276.1,2921.29ZM19079.2,3269.37L19079.2,3238.22L19231.6,3231.67L19231.6,3563.57C19231.6,3582.14 19241.7,3591.43 19261.9,3591.43L19305.3,3591.43L19305.3,3622.57L19087.4,3622.57L19087.4,3591.43L19127.5,3591.43C19151.5,3591.43 19163.6,3579.95 19163.6,3557.01L19163.6,3315.26C19163.6,3284.66 19146.1,3269.37 19111.1,3269.37L19079.2,3269.37ZM19184.9,3008.76C19210.5,3008.76 19231.2,3029.54 19231.2,3055.13C19231.2,3080.72 19210.5,3101.49 19184.9,3101.49C19159.3,3101.49 19138.5,3080.72 19138.5,3055.13C19138.5,3029.54 19159.3,3008.76 19184.9,3008.76ZM18785.3,3478.34L18806.3,3478.34C18822.1,3522.59 18840.7,3554.69 18862,3574.63C18883.3,3594.57 18911.4,3604.54 18946.4,3604.54C18974.3,3604.54 18996.5,3598.12 19013.2,3585.28C19029.9,3572.44 19038.2,3555.92 19038.2,3535.7C19038.2,3503.47 19018.2,3483.8 18978.4,3476.7L18872.6,3453.75C18845.9,3447.2 18824.7,3434.63 18809.1,3416.06C18793.6,3397.48 18785.8,3376.17 18785.8,3352.13C18785.8,3319.35 18797.7,3291.08 18821.4,3267.32C18845.2,3243.55 18876.7,3231.67 18916.1,3231.67C18949.9,3231.67 18980.8,3242.05 19008.7,3262.81L19029.8,3238.22L19052.9,3238.22L19052.9,3370.98L19031.9,3370.98C19024.2,3337.21 19008.7,3306.24 18989,3288.21C18969.3,3270.18 18943.7,3261.17 18912,3261.17C18885.8,3261.17 18865.1,3267.59 18850.1,3280.43C18835.1,3293.27 18827.6,3308.97 18827.6,3327.55C18827.6,3360.33 18883.3,3386.55 18994.7,3406.22C19022.1,3410.59 19044.2,3422.61 19061.1,3442.28C19078.1,3461.95 19086.5,3485.17 19086.5,3511.94C19086.5,3547.45 19073.1,3576.68 19046.4,3599.62C19019.6,3622.57 18986,3634.04 18945.6,3634.04C18924.3,3634.04 18905.6,3631.17 18889.4,3625.44C18873.3,3619.7 18856.5,3610 18839,3596.35L18816.6,3622.57L18785.3,3622.57L18785.3,3478.34ZM19570.4,3622.57L19560.6,3544.72C19528.3,3600.99 19486.8,3629.12 19436,3629.12C19391.2,3629.12 19353.8,3610.41 19323.7,3572.99C19293.7,3535.57 19278.6,3487.35 19278.6,3428.35C19278.6,3369.89 19294.8,3321.95 19327,3284.53C19359.2,3247.1 19398,3228.39 19443.4,3228.39C19493.1,3228.39 19532.1,3252.7 19560.6,3301.33L19560.6,3084.98C19560.6,3059.85 19542,3047.28 19504.8,3047.28L19478.6,3047.28L19478.6,3016.96L19628.6,3008.76L19628.6,3534.06C19628.6,3572.31 19643.9,3591.43 19674.5,3591.43L19701.5,3591.43L19701.5,3622.57L19570.4,3622.57ZM19454,3260.35C19389.5,3260.35 19357.3,3312.53 19357.3,3416.88C19357.3,3533.24 19389.3,3591.43 19453.2,3591.43C19484.9,3591.43 19510.7,3576.13 19530.6,3545.54C19550.6,3514.94 19560.6,3472.33 19560.6,3417.69C19560.6,3370.71 19550.4,3332.74 19530.2,3303.78C19510,3274.83 19484.6,3260.35 19454,3260.35ZM20004.9,3506.2L20032,3517.67C19992.1,3595.25 19934.4,3634.04 19859,3634.04C19807.1,3634.04 19763.9,3615.6 19729.2,3578.73C19694.5,3541.85 19677.1,3494.18 19677.1,3435.72C19677.1,3373.99 19694.1,3323.72 19727.9,3284.93C19761.8,3246.15 19804.7,3226.75 19856.6,3226.75C19909,3226.75 19951,3245.19 19982.4,3282.07C20013.8,3318.95 20029.5,3369.89 20029.5,3434.9L19754.2,3434.9C19754.2,3456.21 19755.5,3475.06 19758.3,3491.45C19761,3507.84 19765.6,3522.04 19772.2,3534.06C19794.6,3576.13 19829.3,3597.16 19876.3,3597.16C19929.8,3597.16 19972.7,3566.84 20004.9,3506.2ZM19754.2,3403.76L19920.5,3403.76C19941.3,3403.76 19951.7,3390.1 19951.7,3362.79C19951.7,3332.19 19942.5,3306.11 19924.2,3284.53C19905.9,3262.95 19883.6,3252.16 19857.4,3252.16C19826.8,3252.16 19802,3265.54 19782.8,3292.31C19763.7,3319.08 19754.2,3356.23 19754.2,3403.76ZM19747.6,2592.67C19747.6,2594.86 19752.3,2603.87 19761.5,2619.72C19766.5,2627.91 19768.9,2635.29 19768.9,2641.84C19768.9,2669.16 19754.7,2682.82 19726.3,2682.82C19712.1,2682.82 19700.5,2678.59 19691.5,2670.12C19682.5,2661.65 19678,2649.49 19678,2633.65C19678,2605.24 19693.8,2580.24 19725.5,2558.66C19757.2,2537.09 19796.8,2526.3 19844.3,2526.3C19887.5,2526.3 19921.5,2535.72 19946.3,2554.57C19971.2,2573.42 19983.6,2597.87 19983.6,2627.91L19983.6,2832.62C19983.6,2886.67 19999.4,2900.47 20021.2,2900.47C20027.7,2900.47 20038.4,2899.11 20048.3,2896.68C20060.7,2893.67 20065.4,2895.39 20071.5,2904.49C20074.8,2909.41 20077.6,2914.26 20078.4,2916.71C20064.1,2923.83 20037,2932.77 20007.5,2932.77C19958.7,2932.77 19918.9,2909.12 19918.9,2863.93C19894.8,2889.06 19874.1,2906.27 19856.6,2915.56C19835.3,2927.03 19809.3,2932.77 19778.7,2932.77C19741.1,2932.77 19711.7,2924.57 19690.7,2908.18C19669.6,2891.79 19659.1,2869.94 19659.1,2842.62C19659.1,2803.83 19681.6,2770.92 19726.7,2743.87C19771.8,2716.83 19834.7,2698.66 19915.6,2689.38L19915.6,2632.01C19915.6,2609.61 19907.3,2591.31 19890.6,2577.1C19873.9,2562.9 19853,2555.8 19827.9,2555.8C19806.6,2555.8 19787.9,2560.03 19771.8,2568.5C19755.7,2576.97 19747.6,2585.03 19747.6,2592.67ZM19915.6,2772.14L19915.6,2717.24C19852.2,2725.98 19806.2,2739.23 19777.5,2756.98C19748.8,2774.74 19734.5,2800.55 19734.5,2834.43C19734.5,2855.19 19740.1,2871.44 19751.3,2883.19C19762.5,2894.93 19777.7,2900.81 19796.8,2900.81C19828.5,2900.81 19856.2,2888.65 19880,2864.34C19903.7,2840.03 19915.6,2809.3 19915.6,2772.14ZM20092,2889.32C20089.2,2884.66 20087.2,2879.32 20087.2,2873.88C20087.2,2827.81 20087.2,2607.73 20087.2,2607.73C20087.2,2577.13 20071.9,2563.47 20041.3,2563.47L20025.7,2563.47L20025.7,2532.33L20146.2,2532.33C20146.2,2532.33 20154.4,2597.89 20154.4,2609.37C20181,2557.62 20235,2525.77 20294.5,2525.77C20332.8,2525.77 20362.5,2537.79 20383.8,2561.83C20405.1,2585.87 20415.8,2618.93 20415.8,2661L20415.8,2847.87C20415.8,2861.53 20418.7,2871.22 20424.4,2876.96C20430.1,2882.7 20440.7,2885.57 20455.9,2885.57L20483.8,2885.57L20483.8,2916.71L20280.6,2916.71L20280.6,2885.57L20299.4,2885.57C20331.7,2885.57 20347.8,2874.09 20347.8,2851.14L20347.8,2687.23C20347.8,2609.64 20319.1,2570.85 20261.7,2570.85C20212.2,2570.85 20154.4,2611.18 20154.4,2705.26L20154.4,2847.87C20154.4,2862.07 20157.4,2871.91 20163.4,2877.37C20169.4,2882.84 20180.3,2885.57 20196.2,2885.57L20222.4,2885.57L20222.4,2916.71L20126.4,2916.71C20114,2916.71 20109.5,2914.41 20102.2,2904.5C20097.7,2898.42 20093.5,2891.75 20092,2889.32ZM18616.4,2228.21C18616.1,1956.02 18617.4,1702.1 18617.4,1702.1C18617.4,1669.32 18598.8,1652.92 18564.9,1652.92L18563.3,1622.6L18675.8,1614.9L18682.9,1911.07C18723.3,1859.16 18769.8,1833.22 18822.2,1833.22C18860.5,1833.22 18890.2,1846.05 18911.5,1871.73C18932.8,1897.41 18943.5,1934.01 18943.5,1981.54L18943.5,2163.47C18943.5,2185.87 18955.8,2197.07 18980.4,2197.07L19013.2,2197.07L19013.2,2228.21L18805.8,2228.21L18805.8,2197.07L18829.6,2197.07C18860.2,2197.07 18875.5,2185.87 18875.5,2163.47L18875.5,1981.54C18875.5,1950.4 18868,1925.68 18852.9,1907.38C18837.9,1889.08 18817.3,1879.93 18791.1,1879.93C18762.7,1879.93 18737.5,1891.94 18715.7,1915.98C18693.8,1940.02 18682.9,1970.34 18682.9,2006.95C18682.9,2006.95 18684,2101.53 18685.7,2228.21L18616.4,2228.21ZM19316.6,2111.84L19343.6,2123.32C19303.7,2200.9 19246.1,2239.69 19170.7,2239.69C19118.8,2239.69 19075.5,2221.25 19040.8,2184.37C19006.1,2147.49 18988.8,2099.82 18988.8,2041.37C18988.8,1979.63 19005.7,1929.37 19039.6,1890.58C19073.4,1851.79 19116.3,1832.39 19168.2,1832.39C19220.7,1832.39 19262.6,1850.83 19294,1887.71C19325.4,1924.59 19341.2,1975.53 19341.2,2040.55L19065.8,2040.55C19065.8,2061.86 19067.2,2080.7 19069.9,2097.09C19072.6,2113.48 19077.3,2127.69 19083.8,2139.71C19106.2,2181.78 19140.9,2202.81 19187.9,2202.81C19241.4,2202.81 19284.3,2172.49 19316.6,2111.84ZM19065.8,2009.41L19232.2,2009.41C19252.9,2009.41 19263.3,1995.75 19263.3,1968.43C19263.3,1937.84 19254.1,1911.75 19235.8,1890.17C19217.5,1868.59 19195.3,1857.8 19169.1,1857.8C19138.5,1857.8 19113.6,1871.18 19094.5,1897.95C19075.4,1924.73 19065.8,1961.88 19065.8,2009.41ZM18083,3622.57L17612.8,3577.93C17611.2,3577.76 17609.9,3576.64 17609.4,3575.08C17608.9,3573.52 17609.4,3571.84 17610.7,3570.81L17817.3,3401.78C17823.7,3396.53 17824.7,3394.49 17824.7,3386.19C17824.6,3173.55 17824.3,2286.05 17824.1,1622.57L17936.8,1622.57L17936.2,2236.59C17936.2,2236.59 17863.4,3206.29 17849.1,3368.37C17846.8,3394.26 17848.2,3396.9 17871.9,3408.19C17934.8,3438.15 18006.9,3461.24 18083,3479.32L18083,3622.57ZM17110.2,2997.97C17110.2,2997.97 17252.5,3307.28 17252.5,3435.45C17252.5,3514.05 17188.8,3577.86 17110.2,3577.86C17031.7,3577.86 16967.9,3514.05 16967.9,3435.45C16967.9,3307.28 17110.2,2997.97 17110.2,2997.97ZM16397.3,2501.9C16341.9,2342.17 16290.6,2096.76 16317.9,2031.29C16346,1964.1 16393.9,2037.72 16499.4,2338.76C16467.4,2373.29 16415.8,2454.41 16397.3,2501.9ZM16703.8,2171.09C16663,2075.61 16593.6,1924.37 16570.7,1881.31C16530,1804.86 16482.3,1800.41 16436.4,1837.8C16398.4,1868.75 16354.7,1920.35 16339.2,1947.62C16339.2,1906.05 16464.8,1728.89 16680,1662.67C16864.8,1605.79 17088.8,1609.58 17286.2,1677.77C17371.8,1707.35 17452.5,1749.21 17522.6,1803.68C17562.5,1834.68 17599.5,1869.43 17630.7,1909.22C17661.6,1948.56 17687.7,1992.12 17707,2039.84C17725.3,2084.98 17738.1,2133.05 17743.7,2184.71C17747.2,2217.6 17747.5,2250.99 17745.2,2285.74C17466.5,2035.7 17009,1994.07 16703.8,2171.09ZM16518.7,2550.39C16450.1,2625.33 16376.6,2673.71 16358.9,2662.08C16345.1,2646.09 16382.3,2585.87 16419.9,2537.67C16966.1,1837.15 17715.5,2303.85 17715.5,2409.83C17715.5,2449 17598.9,2501.27 17483.4,2550.11C17496.7,2536.81 17513.2,2500.94 17511.1,2484.05C17495.2,2414.06 17329.3,2302.33 17110.3,2302.33C16891.3,2302.33 16723.2,2405.23 16709.5,2484.05C16709.5,2540.96 16768.1,2591.8 16858.7,2625.12C16801.2,2625.2 16539.1,2574.33 16518.7,2550.39ZM17667.2,2512.66C17637.2,2644.84 17372.8,2797.51 17110.3,2797.51C16878.6,2797.51 16683.7,2721.75 16575.4,2620.6C16994.4,2750.84 17271.6,2732.66 17667.2,2512.66Z"/>
                    </g>
                </g>
            </g>
        </g>
    </g>
</svg>
