<?xml version="1.0" encoding="UTF-8" standalone="no"?>
<!DOCTYPE svg PUBLIC "-//W3C//DTD SVG 1.1//EN" "http://www.w3.org/Graphics/SVG/1.1/DTD/svg11.dtd">
<svg width="100%" height="100%" viewBox="0 0 5130 5130" version="1.1" xmlns="http://www.w3.org/2000/svg" xmlns:xlink="http://www.w3.org/1999/xlink" xml:space="preserve" xmlns:serif="http://www.serif.com/" style="fill-rule:evenodd;clip-rule:evenodd;stroke-linejoin:round;stroke-miterlimit:2;">
    <g transform="matrix(1,0,0,1,-16606.9,0)">
        <g id="Artboard3" transform="matrix(1.04918,0,0,1,16606.9,0)">
            <rect x="0" y="0" width="4889.53" height="5130" style="fill:none;"/>
            <clipPath id="_clip1">
                <rect x="0" y="0" width="4889.53" height="5130"/>
            </clipPath>
            <g clip-path="url(#_clip1)">
                <g transform="matrix(26.8947,2.06048e-15,-1.9464e-15,28.4709,-19621.2,-4054.91)">
                    <path d="M869.685,142.651L869.708,142.423C869.708,142.423 869.723,142.424 869.73,142.425C897.45,144.984 907.113,154.665 909.663,182.416C911.925,207.028 911.925,256.301 909.663,280.914C907.111,308.68 897.439,318.356 869.685,320.909C845.084,323.172 795.832,323.172 771.231,320.909C743.477,318.356 733.805,308.68 731.253,280.914C728.991,256.301 728.991,207.028 731.253,182.416C733.804,154.657 743.471,144.979 771.208,142.423L771.231,142.65C761.027,143.78 753.271,145.694 748.091,150.899C742.322,156.696 740.604,165.689 739.509,177.711C738.894,184.458 738.126,198.95 738.126,205.807C738.126,215.181 737.948,215.691 733.838,218.545C733.739,228.646 734.009,243.839 734.451,256.346C738.323,258.847 738.648,259.443 739.912,270.037C741.177,280.631 742.794,291.166 748.099,296.497C753.733,302.158 761.157,305.954 772.66,307.012L788.642,308.483C788.642,308.483 789.886,311.186 791.439,314.538C793.359,318.683 797.207,320.931 800.747,321.509C809.702,322.972 831.206,322.972 840.16,321.509C843.701,320.931 847.549,318.683 849.469,314.538L852.274,308.483L868.256,307.012C879.94,305.938 887.183,302.158 892.817,296.497C898.122,291.166 899.739,280.631 901.004,270.037C902.268,259.443 902.593,258.847 906.465,256.346C906.907,243.839 907.177,228.646 907.078,218.545C902.968,215.691 902.79,215.181 902.79,205.807C902.79,198.95 902.013,184.458 901.398,177.711C900.303,165.689 898.585,156.696 892.817,150.899C887.638,145.695 879.885,143.781 869.685,142.651Z"/>
                </g>
                <g transform="matrix(0.93014,0,0,0.975885,-14375,35.2686)">
                    <path d="M18276.1,2954.87L18233,2270.17L18229.1,1724.49C18229.1,1692.42 18210,1682.54 18196.5,1682.54C18136.6,1682.54 18075,1739.88 18055.7,1884.82L18026.9,1884.82L18040.8,1656.18L18532.5,1656.18L18544,1884.82L18515.3,1884.82C18496,1739.88 18434.5,1682.54 18374.5,1682.54C18361,1682.54 18341.9,1692.42 18341.9,1724.49C18341.9,1724.49 18340.5,2543.5 18340.3,2639.61L18616.7,2627.36L18617.7,2349.26L18687,2349.26L18691.2,2624.07L18841.5,2617.41L18841.5,2818.02C18841.5,2848.61 18849.3,2872.79 18864.9,2890.54C18880.5,2908.3 18900.8,2917.18 18925.9,2917.18C18956,2917.18 18981.8,2904.47 19003.4,2879.07C19025,2853.66 19035.8,2822.66 19035.8,2786.06L19035.8,2641.82C19035.8,2621.57 19027.5,2608.63 19009.8,2608.63L18968.6,2608.63L18968.6,2578.63L19091.5,2563.97C19093.5,2569.6 19099.6,2599.55 19100.8,2606.59C19102,2613.62 19104.2,2635.46 19103.8,2645.92C19114.5,2603.3 19160.4,2563.97 19223.7,2563.97C19277.2,2563.97 19324.6,2600.89 19339,2652.48C19357.1,2604.22 19405.1,2564.95 19459.2,2564.95C19537.1,2564.95 19586.5,2622.98 19586.5,2700.83L19586.5,2890.95C19586.5,2912.8 19600.7,2923.73 19629.1,2923.73L19647.9,2923.73L19647.9,2954.87L19455.3,2954.87L19455.3,2923.73L19473.4,2923.73C19503.4,2923.73 19518.4,2912.8 19518.4,2890.95L19518.4,2700.83C19518.4,2672.97 19511.6,2651.11 19497.9,2635.27C19484.3,2619.42 19465.7,2611.5 19442.2,2611.5C19392.5,2611.5 19344.7,2649.35 19344.7,2779.9L19344.7,2890.95C19344.7,2912.8 19357,2923.73 19381.6,2923.73L19407.8,2923.73L19407.8,2954.87L19213.6,2954.87L19213.6,2923.73L19234.9,2923.73C19262.8,2923.73 19276.7,2914.17 19276.7,2895.05L19276.7,2779.9C19276.7,2636.14 19242.8,2610.68 19202.9,2610.68C19146,2610.68 19103.8,2654.69 19103.8,2779.9L19103.8,2879.48C19103.8,2908.98 19119.1,2923.73 19149.7,2923.73L19165.2,2923.73L19165.2,2954.87L19044.8,2954.87L19036.6,2879.48C19013.6,2906.25 18990.5,2926.6 18967.3,2940.53C18944.1,2954.46 18920.5,2961.43 18896.4,2961.43C18857.1,2961.43 18826.8,2948.45 18805.5,2922.5C18784.2,2896.55 18773.5,2858.72 18773.5,2809L18773.5,2701.17C18773.5,2677.6 18765.4,2666.26 18746.3,2666.26L18691.9,2666.26L18695.6,2907.34C18695.6,2907.34 18714.4,2923.73 18735.7,2923.73L18778.3,2923.73L18778.3,2954.87L18546.1,2954.87L18546.1,2923.73L18589.6,2923.73C18604.9,2923.73 18615.7,2915.13 18615.7,2915.13L18616.6,2666.26L18340.2,2666.26C18340,2765.35 18349.2,3589.97 18349.2,3589.97C18349.2,3615.71 18361.9,3625.01 18386.2,3625.01C18413.6,3625.01 18427.1,3615.45 18427.1,3596.33L18428,3347.17C18428,3326.92 18418.9,3311.52 18401.2,3311.52L18374.8,3311.52L18374.2,3279.74L18482.9,3266.86C18484.9,3272.48 18491,3302.44 18492.2,3309.47C18493.4,3316.51 18495.2,3348.82 18495.2,3348.82C18529,3293.09 18575.8,3265.25 18635.3,3265.25C18673.5,3265.25 18703.3,3277.27 18724.6,3301.31C18745.9,3325.34 18756.6,3358.4 18756.6,3400.46L18756.6,3656.15L18621.4,3656.15L18621.4,3625.01L18640.2,3625.01C18672.5,3625.01 18688.6,3613.53 18688.6,3590.59L18688.6,3426.69C18688.6,3349.11 18659.9,3310.32 18602.5,3310.32C18572.5,3310.32 18547.1,3322.61 18526.3,3347.2C18505.5,3371.78 18495.2,3404.29 18495.2,3444.72L18495.2,3587.31C18495.2,3601.51 18498.2,3611.35 18504.2,3616.81C18510.2,3622.28 18521.1,3625.01 18537,3625.01L18563.2,3625.01L18563.2,3656.15L18325.4,3656.15L18276.1,2954.87ZM19079.2,3302.94L19079.2,3271.8L19231.6,3265.25L19231.6,3597.14C19231.6,3615.72 19241.7,3625.01 19261.9,3625.01L19305.3,3625.01L19305.3,3656.15L19087.4,3656.15L19087.4,3625.01L19127.5,3625.01C19151.5,3625.01 19163.6,3613.53 19163.6,3590.59L19163.6,3348.84C19163.6,3318.24 19146.1,3302.94 19111.1,3302.94L19079.2,3302.94ZM19184.9,3042.34C19210.5,3042.34 19231.2,3063.12 19231.2,3088.71C19231.2,3114.3 19210.5,3135.07 19184.9,3135.07C19159.3,3135.07 19138.5,3114.3 19138.5,3088.71C19138.5,3063.12 19159.3,3042.34 19184.9,3042.34ZM18785.3,3511.92L18806.3,3511.92C18822.1,3556.17 18840.7,3588.27 18862,3608.21C18883.3,3628.15 18911.4,3638.12 18946.4,3638.12C18974.3,3638.12 18996.5,3631.7 19013.2,3618.86C19029.9,3606.02 19038.2,3589.5 19038.2,3569.28C19038.2,3537.05 19018.2,3517.38 18978.4,3510.28L18872.6,3487.33C18845.9,3480.78 18824.7,3468.21 18809.1,3449.63C18793.6,3431.06 18785.8,3409.75 18785.8,3385.71C18785.8,3352.93 18797.7,3324.66 18821.4,3300.89C18845.2,3277.13 18876.7,3265.25 18916.1,3265.25C18949.9,3265.25 18980.8,3275.63 19008.7,3296.39L19029.8,3271.8L19052.9,3271.8L19052.9,3404.56L19031.9,3404.56C19024.2,3370.78 19008.7,3339.82 18989,3321.79C18969.3,3303.76 18943.7,3294.75 18912,3294.75C18885.8,3294.75 18865.1,3301.17 18850.1,3314.01C18835.1,3326.85 18827.6,3342.55 18827.6,3361.13C18827.6,3393.91 18883.3,3420.13 18994.7,3439.8C19022.1,3444.17 19044.2,3456.19 19061.1,3475.86C19078.1,3495.53 19086.5,3518.74 19086.5,3545.52C19086.5,3581.03 19073.1,3610.26 19046.4,3633.2C19019.6,3656.15 18986,3667.62 18945.6,3667.62C18924.3,3667.62 18905.6,3664.75 18889.4,3659.02C18873.3,3653.28 18856.5,3643.58 18839,3629.92L18816.6,3656.15L18785.3,3656.15L18785.3,3511.92ZM19570.4,3656.15L19560.6,3578.3C19528.3,3634.57 19486.8,3662.7 19436,3662.7C19391.2,3662.7 19353.8,3643.99 19323.7,3606.57C19293.7,3569.14 19278.6,3520.93 19278.6,3461.93C19278.6,3403.47 19294.8,3355.53 19327,3318.11C19359.2,3280.68 19398,3261.97 19443.4,3261.97C19493.1,3261.97 19532.1,3286.28 19560.6,3334.9L19560.6,3118.56C19560.6,3093.43 19542,3080.86 19504.8,3080.86L19478.6,3080.86L19478.6,3050.54L19628.6,3042.34L19628.6,3567.64C19628.6,3605.89 19643.9,3625.01 19674.5,3625.01L19701.5,3625.01L19701.5,3656.15L19570.4,3656.15ZM19454,3293.93C19389.5,3293.93 19357.3,3346.1 19357.3,3450.45C19357.3,3566.82 19389.3,3625.01 19453.2,3625.01C19484.9,3625.01 19510.7,3609.71 19530.6,3579.12C19550.6,3548.52 19560.6,3505.91 19560.6,3451.27C19560.6,3404.29 19550.4,3366.32 19530.2,3337.36C19510,3308.41 19484.6,3293.93 19454,3293.93ZM20004.9,3539.78L20032,3551.25C19992.1,3628.83 19934.4,3667.62 19859,3667.62C19807.1,3667.62 19763.9,3649.18 19729.2,3612.31C19694.5,3575.43 19677.1,3527.76 19677.1,3469.3C19677.1,3407.57 19694.1,3357.3 19727.9,3318.51C19761.8,3279.72 19804.7,3260.33 19856.6,3260.33C19909,3260.33 19951,3278.77 19982.4,3315.65C20013.8,3352.52 20029.5,3403.47 20029.5,3468.48L19754.2,3468.48C19754.2,3489.79 19755.5,3508.64 19758.3,3525.03C19761,3541.42 19765.6,3555.62 19772.2,3567.64C19794.6,3609.71 19829.3,3630.74 19876.3,3630.74C19929.8,3630.74 19972.7,3600.42 20004.9,3539.78ZM19754.2,3437.34L19920.5,3437.34C19941.3,3437.34 19951.7,3423.68 19951.7,3396.37C19951.7,3365.77 19942.5,3339.68 19924.2,3318.11C19905.9,3296.53 19883.6,3285.74 19857.4,3285.74C19826.8,3285.74 19802,3299.12 19782.8,3325.89C19763.7,3352.66 19754.2,3389.81 19754.2,3437.34ZM19747.6,2626.25C19747.6,2628.44 19752.3,2637.45 19761.5,2653.3C19766.5,2661.49 19768.9,2668.87 19768.9,2675.42C19768.9,2702.74 19754.7,2716.4 19726.3,2716.4C19712.1,2716.4 19700.5,2712.16 19691.5,2703.7C19682.5,2695.23 19678,2683.07 19678,2667.23C19678,2638.82 19693.8,2613.82 19725.5,2592.24C19757.2,2570.66 19796.8,2559.87 19844.3,2559.87C19887.5,2559.87 19921.5,2569.3 19946.3,2588.15C19971.2,2606.99 19983.6,2631.44 19983.6,2661.49L19983.6,2866.2C19983.6,2920.25 19999.4,2934.05 20021.2,2934.05C20027.7,2934.05 20038.4,2932.68 20048.3,2930.26C20060.7,2927.25 20065.4,2928.97 20071.5,2938.07C20074.8,2942.99 20077.6,2947.83 20078.4,2950.29C20064.1,2957.41 20037,2966.35 20007.5,2966.35C19958.7,2966.35 19918.9,2942.7 19918.9,2897.51C19894.8,2922.64 19874.1,2939.85 19856.6,2949.14C19835.3,2960.61 19809.3,2966.35 19778.7,2966.35C19741.1,2966.35 19711.7,2958.15 19690.7,2941.76C19669.6,2925.37 19659.1,2903.52 19659.1,2876.2C19659.1,2837.41 19681.6,2804.49 19726.7,2777.45C19771.8,2750.41 19834.7,2732.24 19915.6,2722.95L19915.6,2665.59C19915.6,2643.19 19907.3,2624.89 19890.6,2610.68C19873.9,2596.48 19853,2589.38 19827.9,2589.38C19806.6,2589.38 19787.9,2593.61 19771.8,2602.08C19755.7,2610.55 19747.6,2618.61 19747.6,2626.25ZM19915.6,2805.72L19915.6,2750.82C19852.2,2759.56 19806.2,2772.81 19777.5,2790.56C19748.8,2808.32 19734.5,2834.13 19734.5,2868.01C19734.5,2888.77 19740.1,2905.02 19751.3,2916.77C19762.5,2928.51 19777.7,2934.39 19796.8,2934.39C19828.5,2934.39 19856.2,2922.23 19880,2897.92C19903.7,2873.61 19915.6,2842.87 19915.6,2805.72ZM20092,2922.9C20089.2,2918.24 20087.2,2912.9 20087.2,2907.46C20087.2,2861.39 20087.2,2641.31 20087.2,2641.31C20087.2,2610.71 20071.9,2597.05 20041.3,2597.05L20025.7,2597.05L20025.7,2565.91L20146.2,2565.91C20146.2,2565.91 20154.4,2631.47 20154.4,2642.95C20181,2591.2 20235,2559.35 20294.5,2559.35C20332.8,2559.35 20362.5,2571.37 20383.8,2595.41C20405.1,2619.45 20415.8,2652.51 20415.8,2694.58L20415.8,2881.45C20415.8,2895.11 20418.7,2904.8 20424.4,2910.54C20430.1,2916.28 20440.7,2919.15 20455.9,2919.15L20483.8,2919.15L20483.8,2950.29L20280.6,2950.29L20280.6,2919.15L20299.4,2919.15C20331.7,2919.15 20347.8,2907.67 20347.8,2884.72L20347.8,2720.81C20347.8,2643.22 20319.1,2604.43 20261.7,2604.43C20212.2,2604.43 20154.4,2644.76 20154.4,2738.84L20154.4,2881.45C20154.4,2895.65 20157.4,2905.49 20163.4,2910.95C20169.4,2916.41 20180.3,2919.15 20196.2,2919.15L20222.4,2919.15L20222.4,2950.29L20126.4,2950.29C20114,2950.29 20109.5,2947.99 20102.2,2938.08C20097.7,2932 20093.5,2925.33 20092,2922.9ZM18616.4,2261.79C18616.1,1989.59 18617.4,1735.67 18617.4,1735.67C18617.4,1702.89 18598.8,1686.5 18564.9,1686.5L18563.3,1656.18L18675.8,1648.48L18682.9,1944.65C18723.3,1892.74 18769.8,1866.79 18822.2,1866.79C18860.5,1866.79 18890.2,1879.63 18911.5,1905.31C18932.8,1930.99 18943.5,1967.59 18943.5,2015.12L18943.5,2197.05C18943.5,2219.45 18955.8,2230.65 18980.4,2230.65L19013.2,2230.65L19013.2,2261.79L18805.8,2261.79L18805.8,2230.65L18829.6,2230.65C18860.2,2230.65 18875.5,2219.45 18875.5,2197.05L18875.5,2015.12C18875.5,1983.98 18868,1959.26 18852.9,1940.96C18837.9,1922.66 18817.3,1913.51 18791.1,1913.51C18762.7,1913.51 18737.5,1925.52 18715.7,1949.56C18693.8,1973.6 18682.9,2003.92 18682.9,2040.53C18682.9,2040.53 18684,2135.11 18685.7,2261.79L18616.4,2261.79ZM19316.6,2145.42L19343.6,2156.9C19303.7,2234.48 19246.1,2273.26 19170.7,2273.26C19118.8,2273.26 19075.5,2254.83 19040.8,2217.95C19006.1,2181.07 18988.8,2133.4 18988.8,2074.95C18988.8,2013.21 19005.7,1962.95 19039.6,1924.16C19073.4,1885.37 19116.3,1865.97 19168.2,1865.97C19220.7,1865.97 19262.6,1884.41 19294,1921.29C19325.4,1958.17 19341.2,2009.11 19341.2,2074.13L19065.8,2074.13C19065.8,2095.43 19067.2,2114.28 19069.9,2130.67C19072.6,2147.06 19077.3,2161.27 19083.8,2173.29C19106.2,2215.35 19140.9,2236.39 19187.9,2236.39C19241.4,2236.39 19284.3,2206.07 19316.6,2145.42ZM19065.8,2042.99L19232.2,2042.99C19252.9,2042.99 19263.3,2029.33 19263.3,2002.01C19263.3,1971.42 19254.1,1945.33 19235.8,1923.75C19217.5,1902.17 19195.3,1891.38 19169.1,1891.38C19138.5,1891.38 19113.6,1904.76 19094.5,1931.53C19075.4,1958.3 19065.8,1995.46 19065.8,2042.99ZM18083,3656.15L17612.8,3611.51C17611.2,3611.34 17609.9,3610.21 17609.4,3608.66C17608.9,3607.1 17609.4,3605.41 17610.7,3604.39L17817.3,3435.36C17823.7,3430.11 17824.7,3428.07 17824.7,3419.77C17824.6,3207.13 17824.3,2319.63 17824.1,1656.15L17936.8,1656.15L17936.2,2270.17C17936.2,2270.17 17863.4,3239.87 17849.1,3401.95C17846.8,3427.84 17848.2,3430.48 17871.9,3441.77C17934.8,3471.73 18006.9,3494.82 18083,3512.9L18083,3656.15ZM17110.2,3031.55C17110.2,3031.55 17252.5,3340.86 17252.5,3469.03C17252.5,3547.62 17188.8,3611.44 17110.2,3611.44C17031.7,3611.44 16967.9,3547.62 16967.9,3469.03C16967.9,3340.86 17110.2,3031.55 17110.2,3031.55ZM16397.3,2535.48C16341.9,2375.75 16290.6,2130.34 16317.9,2064.87C16346,1997.68 16393.9,2071.29 16499.4,2372.34C16467.4,2406.87 16415.8,2487.98 16397.3,2535.48ZM16703.8,2204.67C16663,2109.19 16593.6,1957.95 16570.7,1914.89C16530,1838.44 16482.3,1833.99 16436.4,1871.38C16398.4,1902.33 16354.7,1953.93 16339.2,1981.2C16339.2,1939.63 16464.8,1762.47 16680,1696.25C16864.8,1639.37 17088.8,1643.15 17286.2,1711.35C17371.8,1740.93 17452.5,1782.79 17522.6,1837.26C17562.5,1868.26 17599.5,1903.01 17630.7,1942.8C17661.6,1982.14 17687.7,2025.7 17707,2073.42C17725.3,2118.56 17738.1,2166.63 17743.7,2218.29C17747.2,2251.18 17747.5,2284.57 17745.2,2319.32C17466.5,2069.28 17009,2027.65 16703.8,2204.67ZM16518.7,2583.97C16450.1,2658.9 16376.6,2707.29 16358.9,2695.66C16345.1,2679.67 16382.3,2619.45 16419.9,2571.25C16966.1,1870.73 17715.5,2337.43 17715.5,2443.41C17715.5,2482.58 17598.9,2534.85 17483.4,2583.69C17496.7,2570.39 17513.2,2534.52 17511.1,2517.62C17495.2,2447.64 17329.3,2335.91 17110.3,2335.91C16891.3,2335.91 16723.2,2438.81 16709.5,2517.62C16709.5,2574.54 16768.1,2625.38 16858.7,2658.7C16801.2,2658.78 16539.1,2607.91 16518.7,2583.97ZM17667.2,2546.24C17637.2,2678.42 17372.8,2831.09 17110.3,2831.09C16878.6,2831.09 16683.7,2755.33 16575.4,2654.18C16994.4,2784.41 17271.6,2766.24 17667.2,2546.24Z"/>
                </g>
            </g>
        </g>
    </g>
</svg>
