<?xml version="1.0" encoding="UTF-8" standalone="no"?>
<!DOCTYPE svg PUBLIC "-//W3C//DTD SVG 1.1//EN" "http://www.w3.org/Graphics/SVG/1.1/DTD/svg11.dtd">
<svg width="100%" height="100%" viewBox="0 0 5130 5130" version="1.1" xmlns="http://www.w3.org/2000/svg" xmlns:xlink="http://www.w3.org/1999/xlink" xml:space="preserve" xmlns:serif="http://www.serif.com/" style="fill-rule:evenodd;clip-rule:evenodd;stroke-linejoin:round;stroke-miterlimit:2;">
    <g id="_1" serif:id="1" transform="matrix(1,0,0,1,-10676.3,0)">
        <rect x="10676.3" y="0" width="5130" height="5130" style="fill:none;"/>
        <clipPath id="_clip1">
            <rect x="10676.3" y="0" width="5130" height="5130"/>
        </clipPath>
        <g clip-path="url(#_clip1)">
            <g transform="matrix(1.71843,0,0,1.71843,20314.6,-2458.4)">
                <path d="M-5448.81,3595.77C-5551.11,3393.62 -5608.76,3165.12 -5608.76,2923.25C-5608.76,2099.44 -4939.93,1430.61 -4116.12,1430.61C-3292.31,1430.61 -2623.48,2099.44 -2623.48,2923.25C-2623.48,3298.5 -2762.25,3641.59 -2991.23,3903.96L-3054.75,3433.78L-3052.69,3428.32L-3051.8,3421.19C-3051.8,3418.19 -3054.06,3407.66 -3056.04,3400.03C-3057.72,3393 -3061.28,3386.53 -3066.37,3381.31L-3066.82,3380.84L-3067.3,3380.42C-3067.3,3380.42 -3092.27,3358.35 -3110.54,3343.12L-3110.67,3339.48L-3111.99,3335L-3114.37,3330.99L-3117.73,3327.65L-3165,3291.11L-3167.41,3289.53L-3195.18,3274.19L-3197.27,3221.44C-3151.6,3209.96 -3115.86,3197.5 -3091.6,3184.49C-3077.87,3177.14 -3067.49,3169.42 -3060.4,3161.7C-3050.91,3151.37 -3046.6,3140.52 -3046.46,3129.77C-3046.18,3124.41 -3046.17,3118.95 -3046.46,3113.4C-3046.51,3110.06 -3046.97,3106.71 -3047.86,3103.37C-3050.67,3092.64 -3058.08,3082.05 -3067.35,3072.84C-3075.96,3064.29 -3092.26,3051.08 -3109.76,3038.13L-3109.67,3037.22L-3109.82,3032.62L-3111.06,3028.26L-3113.31,3024.32L-3116.49,3020.98L-3165.29,2981.03L-3167.09,2979.72L-3209.09,2952.96L-3213.56,2950.88L-3217.84,2950.13L-3218.06,2933.43C-3173.57,2920.27 -3138.04,2905.65 -3114.33,2890.85C-3085.24,2872.7 -3071.2,2852.15 -3069.8,2832.59C-3069.62,2830.12 -3069.7,2820.43 -3069.92,2816.52C-3070.08,2805.4 -3074.09,2794.25 -3082.53,2783.47C-3086.87,2777.6 -3092.96,2770.98 -3101.68,2763.6C-3113.51,2753.58 -3126.67,2743 -3141.04,2732.35L-3137.49,2720.7L-3172.19,2691.83C-3169.16,2689.26 -3166.36,2686.68 -3163.8,2684.09C-3147.93,2668.07 -3140.41,2651.13 -3140.35,2634.2C-3140.23,2628.37 -3140.42,2622.52 -3141.37,2616.68C-3146.44,2574.68 -3221.62,2368.34 -3271.88,2284.1L-3273.3,2282.04C-3276.23,2278.34 -3279.39,2274.46 -3282.76,2270.41L-3279.2,2271.11L-3270.68,2269.45L-3266.72,2267.36L-3263.17,2264.47L-3241.37,2242.67L-3238.48,2239.12L-3236.39,2235.16L-3234.73,2226.64L-3236.39,2218.12L-3238.48,2214.15L-3241.37,2210.61L-3243.9,2208.08L-3190.91,2140.67L-3187.59,2134.84L-3186.12,2128.3L-3185.1,2114.09L-3092.21,2012.51L-3089.07,2015.08L-3085.1,2017.17L-3076.58,2018.83L-3068.06,2017.17L-3064.09,2015.08L-3060.55,2012.19L-3048.74,2000.38L-3044.75,1994.99L-3042.54,1988.82L-3042.19,1982.27L-3043.78,1975.77C-3055.23,1947.79 -3083.47,1910.59 -3116.24,1877.82C-3149.01,1845.05 -3186.2,1816.81 -3214.18,1805.37L-3220.69,1803.78L-3227.24,1804.13L-3233.41,1806.34L-3238.79,1810.32L-3250.61,1822.13L-3253.5,1825.68L-3255.58,1829.64L-3257.24,1838.16L-3255.58,1846.68L-3253.5,1850.65L-3250.61,1854.19L-3243.86,1860.94L-3344.85,1954.42L-3358.98,1955.44L-3365.53,1956.91L-3371.36,1960.23L-3438.76,2013.22L-3449.03,2002.95L-3452.57,2000.06L-3456.53,1997.97L-3465.06,1996.31L-3473.58,1997.97L-3477.54,2000.06L-3481.09,2002.95L-3502.88,2024.75L-3505.78,2028.29L-3507.86,2032.26L-3509.52,2040.78L-3508.18,2047.69C-3545.82,2016.28 -3581.73,1989.63 -3611.19,1972.92C-3662.93,1943.56 -3735,1915.32 -3817.29,1893.97C-3831.42,1882.14 -3844.99,1874.39 -3856.92,1871.49C-3861.27,1870.43 -3865.66,1869.4 -3870.1,1868.4L-3899.14,1780.8L-3903.03,1772.99L-3908.83,1766.69L-3916.13,1762.22L-3924.78,1759.88C-3952.7,1757.11 -4009.05,1754.65 -4009.05,1754.65L-4025.57,1753.93L-4031.51,1814.45L-4091.03,1814.45L-4091.69,1813.56C-4093.55,1811.67 -4095.73,1809.88 -4098.17,1808.34C-4100.65,1806.78 -4103.37,1805.48 -4106.23,1804.56L-4116.12,1802.98L-4126.01,1804.56C-4128.87,1805.48 -4131.6,1806.78 -4134.07,1808.34C-4136.51,1809.88 -4138.69,1811.67 -4140.55,1813.56L-4141.21,1814.45L-4200.73,1814.45L-4206.67,1753.93L-4223.19,1754.65C-4223.19,1754.65 -4279.54,1757.11 -4307.23,1759.86L-4307.46,1759.88C-4307.69,1759.91 -4316.11,1762.22 -4316.11,1762.22L-4323.41,1766.69L-4329.21,1772.99L-4333.1,1780.8L-4362.14,1868.4C-4366.58,1869.4 -4370.97,1870.43 -4375.32,1871.49C-4387.25,1874.39 -4400.82,1882.14 -4414.95,1893.97C-4497.24,1915.32 -4569.31,1943.56 -4621.05,1972.92C-4650.18,1989.44 -4686.36,2016.27 -4724.05,2047.62L-4722.72,2040.78L-4724.38,2032.26L-4726.47,2028.29L-4729.36,2024.75L-4751.15,2002.95L-4754.7,2000.06L-4758.66,1997.97L-4767.19,1996.31L-4775.71,1997.97L-4779.67,2000.06L-4783.21,2002.95L-4793.48,2013.22L-4860.88,1960.23L-4866.71,1956.91L-4873.26,1955.44L-4887.39,1954.42L-4988.38,1860.94L-4981.63,1854.19L-4978.74,1850.65L-4976.66,1846.68L-4974.99,1838.16L-4976.66,1829.64L-4978.74,1825.68L-4981.63,1822.13L-4993.45,1810.32L-4998.83,1806.34L-5005,1804.13L-5011.55,1803.78L-5018.06,1805.37C-5046.04,1816.81 -5083.23,1845.05 -5116,1877.82C-5148.77,1910.59 -5177.01,1947.79 -5188.45,1975.77L-5190.05,1982.27L-5189.7,1988.82L-5187.49,1994.99L-5183.5,2000.38L-5171.69,2012.19L-5168.15,2015.08L-5164.18,2017.17L-5155.66,2018.83L-5147.14,2017.17L-5143.17,2015.08L-5140.03,2012.51L-5047.14,2114.09L-5046.11,2128.3L-5044.65,2134.84L-5041.33,2140.67L-4988.34,2208.08L-4990.87,2210.61L-4993.76,2214.15L-4995.85,2218.12L-4997.51,2226.64L-4995.85,2235.16L-4993.76,2239.12L-4990.87,2242.67L-4969.07,2264.47L-4965.52,2267.36L-4961.56,2269.45L-4953.04,2271.11L-4949.48,2270.41C-4952.85,2274.46 -4956,2278.34 -4958.94,2282.04L-4960.36,2284.1C-5010.61,2368.33 -5085.8,2574.67 -5090.87,2616.69C-5091.82,2622.52 -5092.01,2628.37 -5091.89,2634.22C-5091.83,2651.14 -5084.31,2668.07 -5068.44,2684.09C-5065.88,2686.68 -5063.08,2689.26 -5060.05,2691.83L-5094.75,2720.7L-5091.2,2732.35C-5105.57,2743 -5118.73,2753.58 -5130.56,2763.6C-5139.28,2770.98 -5145.37,2777.6 -5149.72,2783.49C-5158.15,2794.25 -5162.16,2805.39 -5162.32,2816.53C-5162.54,2820.43 -5162.62,2830.11 -5162.44,2832.59C-5161.04,2852.15 -5147,2872.7 -5117.91,2890.85C-5094.2,2905.65 -5058.67,2920.27 -5014.18,2933.43L-5014.4,2950.13L-5018.68,2950.88L-5023.15,2952.96L-5065.15,2979.72L-5066.95,2981.03L-5115.75,3020.98L-5118.93,3024.32L-5121.18,3028.26L-5122.42,3032.62L-5122.57,3037.22L-5122.48,3038.13C-5139.98,3051.08 -5156.28,3064.29 -5164.89,3072.84C-5174.16,3082.06 -5181.58,3092.66 -5184.39,3103.4C-5185.27,3106.71 -5185.73,3110.05 -5185.78,3113.41C-5186.07,3118.94 -5186.06,3124.41 -5185.78,3129.78C-5185.64,3140.52 -5181.33,3151.37 -5171.84,3161.7C-5164.75,3169.42 -5154.37,3177.14 -5140.65,3184.49C-5116.38,3197.5 -5080.64,3209.97 -5034.95,3221.45L-5036.98,3273.85L-5064.75,3289.19L-5067.15,3290.77L-5114.43,3327.31L-5117.78,3330.65L-5120.16,3334.66L-5121.48,3339.14L-5121.61,3342.71C-5129.29,3348.98 -5140.56,3358.21 -5147.89,3364.32C-5153.97,3364.17 -5159.48,3364.28 -5166.4,3364.59C-5301.68,3370.54 -5415.66,3468.39 -5448.81,3595.77ZM-5065.62,4074.64C-5110.94,4037.21 -5154.03,3997.16 -5194.63,3954.72C-5184.84,3955.28 -5174.92,3955.36 -5164.87,3954.92C-5148.97,3954.22 -5133.36,3952.25 -5118.14,3949.11L-5056.81,4060.1C-5059.98,4064.82 -5062.91,4069.67 -5065.62,4074.64Z"/>
            </g>
            <g transform="matrix(1,0,0,1,10676.3,0)">
                <path d="M277.719,3726.3C332.79,3506.46 528.5,3337.15 761.192,3327.29C786.045,3326.24 809.683,3326.91 832.425,3329.22C845.106,3318.36 858.021,3307.45 868.224,3299.2L866.945,3285.1C866.875,3284.32 867.207,3283.56 867.826,3283.08L949.066,3220.3C949.158,3220.23 949.256,3220.16 949.359,3220.11L1011.88,3185.56L1033.15,2886.02L1076.75,2865.95L1125.81,2893.84C1125.56,2895.12 1125.39,2896.41 1125.3,2897.71L1107.2,3174.32L1153.54,3171.86L1150.96,3215.44C1026.9,3233.19 940.304,3252.33 911.545,3271.68C898.396,3280.52 867.345,3305.41 838.251,3329.86C854.235,3331.69 869.785,3334.35 885.013,3337.8C1134.24,3270.39 1795.8,3222.07 2570.8,3222.07C3361.53,3222.07 4033.92,3272.31 4270.98,3341.86C4296.13,3349.24 4316.42,3356.86 4331.5,3364.64C4298.23,3334.81 4238.31,3285.52 4218.61,3272.26C4189.85,3252.92 4103.25,3233.78 3979.19,3216.03L3976.61,3172.45L4022.95,3174.91L4004.85,2898.3C4004.76,2896.99 4004.6,2895.7 4004.34,2894.43L4053.4,2866.53L4097,2886.61L4118.27,3186.15L4180.79,3220.7C4180.89,3220.75 4180.99,3220.82 4181.09,3220.89L4262.32,3283.67C4262.94,3284.15 4263.28,3284.91 4263.21,3285.69L4261.93,3299.79C4292.51,3324.51 4347.45,3373.09 4347.45,3373.09C4352.46,3378.22 4355.94,3384.59 4357.55,3391.54C4360.28,3402.01 4363.96,3416.53 4363.96,3420.68C4363.96,3427.25 4360.66,3433.81 4354,3440.21C4350.24,3443.83 4345.4,3447.4 4339.45,3450.96L4360.85,3458.76L4376.54,3573.38C4376.78,3573.86 4377.08,3574.73 4377.36,3576.09C4378.67,3582.34 4379.27,3588.2 4379.23,3593.36L4471.78,4279.93L4468.86,4283.16L4377.59,3606.01C4376.05,3610.81 4371.08,3623.64 4369.35,3627.2C4365.7,3634.67 4360.07,3638.55 4353.15,3637.18C4346.97,3635.95 4340.44,3630.77 4334.51,3622.89C4325.85,3611.37 4318.39,3594.06 4314.96,3575.46C4311.51,3556.71 4312.96,3540.97 4317.9,3532.03C4321.4,3525.67 4326.64,3522.6 4333.12,3523.89C4342.7,3525.79 4354.57,3533.37 4359.81,3538.85C4363.94,3543.17 4367.72,3549.07 4370.82,3555.79L4358.27,3462.7L4272.78,3431.61L4381.5,4227.07L4392.46,4227.18L4318.51,3677.01L4384.06,3705.06L4461.32,4291.48L4435.83,4319.05L4424.8,4249.69L4425.8,4329.68L4421.26,4334.45L4419.99,4232.05L4335.16,4231.2C4334.48,4229.65 4333.79,4228.11 4333.07,4226.59L4332.96,4226.35C4322.79,4205.08 4308.11,4186.18 4290.18,4170.88C4284.41,4165.95 4278.31,4161.39 4271.94,4157.25C4269.8,4155.86 4267.64,4154.52 4265.44,4153.23C4264.5,4152.67 4263.55,4152.12 4262.6,4151.59C4262.28,4151.4 4261.46,4151.36 4261.65,4151.05C4269.31,4138.39 4277.59,4126.11 4285.56,4113.64C4287.26,4110.99 4288.2,4107.9 4288.27,4104.76C4288.32,4102.55 4287.95,4100.33 4287.17,4098.26C4286.43,4096.29 4285.33,4094.47 4283.94,4092.9C4282.79,4091.59 4281.43,4090.47 4279.94,4089.57C4274.33,4086.18 4267.08,4086.31 4261.59,4089.89C4259.53,4091.23 4257.82,4093 4256.48,4095.05L4247.41,4109.22L4134.41,3390.85L3911.04,3354.63L4030.02,4095.93L3965.24,4198.38L3947.87,4196.86C3947.34,4196.81 3946.93,4196.44 3946.84,4195.91L3942.8,4172.77C3881.54,4165.41 3810.19,4157.18 3741.38,4150.88L3705.9,4179.34L3348.07,4168.54L3343.35,4123.29C3263.43,4119.12 3174.71,4114.8 3089.86,4111.94L3073.28,4159.34C3073.11,4159.8 3072.67,4160.11 3072.18,4160.11C2903.1,4157.86 2734.05,4156.75 2565,4156.75C2395.95,4156.75 2226.9,4157.86 2057.82,4160.11C2057.33,4160.11 2056.89,4159.8 2056.72,4159.34L2040.14,4111.94C1955.29,4114.8 1866.57,4119.12 1786.65,4123.29L1781.93,4168.54L1424.1,4179.34L1388.62,4150.88C1319.81,4157.18 1248.46,4165.41 1187.2,4172.77L1183.16,4195.91C1183.07,4196.44 1182.66,4196.81 1182.13,4196.86L1164.77,4198.38L1131.31,4145.48C1209.54,4053.7 1257.1,3935.12 1257.1,3807.52C1257.1,3713.84 1231.49,3627.27 1186.93,3554.23L1218.96,3354.63L1008.34,3388.78C933.368,3348.26 852.52,3326.74 761.332,3330.61C528.807,3340.46 333.456,3510.56 280.023,3730.81L277.719,3726.3ZM1737.88,4993.5L1733.26,4991.92L1729.11,4245C1729.08,4238.89 1726.61,4233.04 1722.26,4228.75C1717.9,4224.46 1712.01,4222.08 1705.9,4222.14L1247.9,4226.7L1245.04,4222.13L1705.9,4217.57C1713.24,4217.49 1720.3,4220.35 1725.53,4225.49C1730.76,4230.64 1733.72,4237.66 1733.76,4245L1737.88,4993.5ZM1917.57,5047.45L1816.59,5018.91L1999.89,4529.91C2168.62,4524.21 2366.46,4520.69 2565,4520.69C2763.54,4520.69 2961.38,4524.21 3130.11,4529.91L3313.41,5018.91C3276.7,5030.73 3241.98,5039.75 3212.43,5047.45L3030.81,4643.6C2882.81,4641.3 2722.46,4639.98 2565,4639.98C2407.54,4639.98 2247.19,4641.3 2099.19,4643.6L1917.57,5047.45ZM3396.75,4989.48C3395.21,4990.02 3393.67,4990.56 3392.13,4991.1L3396.24,4245C3396.28,4237.66 3399.24,4230.64 3404.47,4225.49C3409.7,4220.35 3416.76,4217.49 3424.1,4217.57L3884.96,4222.13L3882.1,4226.7L3424.1,4222.14C3417.99,4222.08 3412.1,4224.46 3407.74,4228.75C3403.39,4233.04 3400.92,4238.89 3400.89,4245L3396.75,4989.48ZM1438.73,4869.78C1386.93,4919.49 1316.29,4952.39 1237.52,4957.43C1071.84,4968.03 932.521,4851.37 926.604,4697.09C924.775,4649.4 935.903,4603.66 957.044,4562.92C964.365,4548.81 972.887,4535.3 982.488,4522.51C982.601,4522.36 982.715,4522.21 982.828,4522.06L984.787,4525.63L993.09,4540.78C984.804,4551.29 977.313,4562.34 970.699,4573.85C947.495,4614.22 935.076,4660.21 936.92,4708.3C942.485,4853.38 1075.81,4962.93 1234.46,4952.78C1312.01,4947.82 1381.36,4915.17 1431.33,4866.14C1483.59,4814.87 1514.68,4745.69 1511.83,4671.53C1506.55,4533.71 1385.99,4427.96 1237.94,4426.4L1223.73,4397.95C1386.01,4391.35 1521.16,4506.78 1526.99,4658.69C1530.09,4739.62 1495.88,4814.93 1438.73,4869.78ZM680.616,4304.49C457.832,4275.56 288.129,4087.06 288.129,3851.45C288.129,3821.07 290.95,3791.22 296.344,3762.17C337.71,3539.38 530.361,3363.55 761.475,3353.38C1022.72,3341.89 1234.82,3546.41 1234.82,3809.82C1234.82,4073.22 1022.72,4296.39 761.475,4307.88C733.911,4309.09 706.894,4307.9 680.616,4304.49ZM4311.66,4400.53L4380.64,4459.02C4386.87,4464.3 4387.72,4473.59 4382.54,4479.91L4382.54,4479.91L4382.52,4479.93L4382.44,4480.03L4206.14,4695.21C4199.33,4703.51 4189.15,4709.36 4178.66,4707.06L4158.68,4702.68L4078.55,4804.94C4076.29,4807.82 4073.12,4810.42 4069.6,4812.38C4030.45,4855.66 3970.61,4881.12 3903.59,4876.83C3854.98,4873.73 3810.15,4855.45 3774.25,4827.22C3723.15,4787.05 3690.16,4726.71 3690.16,4661.24C3690.16,4616.51 3705.56,4576.14 3731.62,4544.33C3738.63,4533.98 3746.68,4524.38 3755.64,4515.63L3743.64,4506.19C3731.26,4496.45 3727.88,4477.37 3736.24,4464.02L3889.43,4219.33C3892.58,4214.28 3898.43,4211.59 3904.32,4212.47L3954.32,4219.94L4047.73,4072.21C4050.44,4067.94 4055.12,4065.32 4060.18,4065.25C4065.24,4065.18 4069.99,4067.68 4072.81,4071.88L4119.79,4142.02C4140.44,4133.91 4163.58,4130.11 4188.02,4131.67C4202.75,4132.61 4217.01,4135.44 4230.53,4139.9L4258.41,4096.29C4262.86,4089.33 4272.12,4087.29 4279.08,4091.74C4286.04,4096.19 4288.07,4105.45 4283.62,4112.4L4258.38,4151.88C4300.29,4174.45 4331.53,4213.55 4341.74,4258.67L4393.71,4257.84C4399.49,4257.75 4404.81,4261 4407.36,4266.19C4409.92,4271.38 4409.26,4277.58 4405.66,4282.11L4311.66,4400.53ZM3772.05,4828.4C3808.43,4857.26 3854,4875.97 3903.44,4879.13C3973.69,4883.62 4035.32,4855.12 4071.95,4813.86C4074.59,4812.09 4076.56,4810.23 4078.45,4807.83L4159.6,4705.23L4178.17,4709.31C4181.45,4710.02 4184.81,4710 4188.1,4709.38L4188.44,4709.32C4182.28,4851.33 4051.34,4958.14 3895.83,4948.19C3820.03,4943.35 3752.16,4911.65 3703.01,4863.99C3650.97,4813.51 3619.95,4745.11 3622.76,4671.7C3625.77,4593.15 3666.94,4525.28 3729.39,4481.8C3729.76,4490.91 3733.44,4499.9 3740.13,4506.19L3752.17,4515.84C3743.86,4524.17 3736.37,4533.24 3729.78,4542.95C3703.43,4575.15 3687.86,4615.99 3687.86,4661.24C3687.86,4727.07 3720.86,4787.79 3772.05,4828.4ZM3698.67,4866.14C3748.64,4915.17 3817.99,4947.82 3895.54,4952.78C4054.19,4962.93 4187.52,4853.38 4193.08,4708.3L4193.09,4707.9L4193.57,4707.7C4197.03,4706.22 4200.16,4704.18 4203.01,4701.73L4203.19,4701.57C4194.77,4853.62 4056.56,4967.93 3892.48,4957.43C3813.71,4952.39 3743.07,4919.49 3691.27,4869.78C3634.12,4814.93 3599.91,4739.62 3603.01,4658.69C3606.87,4558.13 3667.4,4473.55 3754.96,4429.78L3734.29,4462.8C3731.81,4466.82 3730.28,4471.29 3729.65,4475.97L3729.64,4476.05C3664.43,4520.22 3621.28,4590.31 3618.17,4671.53C3615.32,4745.69 3646.41,4814.87 3698.67,4866.14ZM865.254,4305.94L869.869,4304.86L1108.11,4735.96C1120.87,4757.05 1140.04,4773.58 1162.97,4783L895.679,4297.07C929.234,4285.94 961.32,4271.34 991.519,4253.72L1272.91,4773.16C1310.07,4750.4 1335.19,4709.1 1335.19,4663.05C1335.19,4641.48 1329.67,4621.43 1319.98,4604.22L1100.1,4169.32C1101.2,4168.21 1102.31,4167.11 1103.4,4165.99L1323.99,4601.97C1334.05,4619.84 1339.78,4640.65 1339.78,4663.05C1339.78,4733.47 1283.07,4793.13 1213.22,4796.2C1166.86,4798.24 1126.28,4774.87 1104.17,4738.34L865.254,4305.94ZM974.326,4576.73C980.592,4565.76 987.669,4555.21 995.484,4545.15C1012,4575.29 1028.14,4604.8 1042.67,4631.36C1032,4667.35 1032.44,4706.33 1045.9,4742.88C1048.05,4748.69 1059.07,4775.53 1062.82,4783.04C1107.2,4871.87 1217.89,4906.66 1309.86,4860.68C1397.49,4816.87 1435.57,4715.88 1401.8,4629.11C1400.21,4625.02 1390.66,4601.54 1386.85,4594.02C1363.6,4548.26 1322.96,4516.78 1276.41,4503.39C1265.29,4481.17 1253.01,4456.59 1240.26,4431.04C1384.68,4433.66 1502.07,4537 1507.24,4671.7C1510.06,4745.11 1479.03,4813.51 1426.99,4863.99C1377.84,4911.65 1309.97,4943.35 1234.17,4948.19C1078.22,4958.17 946.984,4850.73 941.515,4708.12C939.713,4661.14 951.772,4616.22 974.326,4576.73ZM1501.26,4899.38C1532.05,4865.44 1556.02,4826.1 1571.25,4783.2C1580.76,4756.62 1601.81,4735.79 1628.47,4726.54L1682.18,4707.9L1681.75,4631.49L1625.08,4612.12C1599.05,4603.23 1578.28,4583.3 1568.32,4557.66L1568.32,4557.65C1529.76,4457.61 1442.96,4379.15 1334.11,4345.57C1305.79,4336.78 1283.34,4315.04 1273.65,4287.02L1257.28,4239.71L1153.75,4239.71L1149.9,4250.83L1148.45,4247.98L1151.85,4238.19C1152.01,4237.72 1152.44,4237.41 1152.93,4237.41L1258.1,4237.41C1258.59,4237.41 1259.03,4237.72 1259.19,4238.19L1264.8,4254.4L1680.75,4250.3L1708.65,4273.32L1712.72,4984.77L1680.22,4973.07L1678.85,4729.51C1664.64,4734.44 1650.47,4739.36 1638.91,4743.37C1608.31,4753.98 1593.31,4768.84 1582.4,4799.33C1568.24,4838.9 1546.7,4875.44 1519.29,4907.53L1501.26,4899.38ZM3417.3,4982.19L3421.35,4273.32L3449.25,4250.3L3856.89,4254.37L3855.74,4258.95L3453.82,4254.94L3451.72,4627.87L3504.18,4609.95C3529.57,4601.27 3549.83,4581.83 3559.54,4556.83C3598.34,4456.14 3686.09,4377.03 3795.63,4343.25C3802.39,4341.15 3809.25,4337.9 3814.89,4334.05L3811.72,4339.12C3807,4341.56 3802.05,4343.62 3796.91,4345.26C3685.49,4380.66 3601.56,4454.17 3561.68,4557.65L3561.68,4557.66C3551.72,4583.3 3530.95,4603.23 3504.92,4612.12L3448.25,4631.49L3447.82,4707.9L3501.53,4726.54C3528.2,4735.79 3549.24,4756.62 3558.75,4783.2C3573.92,4825.94 3597.78,4865.15 3628.4,4899.01C3622.46,4901.61 3616.39,4904.25 3610.18,4906.91C3583.02,4874.97 3561.67,4838.65 3547.6,4799.33C3536.69,4768.84 3521.69,4753.98 3491.09,4743.37C3479.53,4739.36 3465.36,4734.44 3451.15,4729.51L3449.8,4970.38C3438.97,4974.36 3428.12,4978.31 3417.3,4982.19ZM4374.08,4382.65L4373.38,4326.48L4377.92,4320.75L4378.66,4378.09L4374.08,4382.65ZM1568.95,4929.13C1579.91,4915.84 1590.04,4901.94 1599.27,4887.52C1601.43,4884.04 1605.63,4882.42 1609.57,4883.53C1613.51,4884.64 1616.24,4888.23 1616.27,4892.32L1616.59,4948.68L1614.28,4947.76L1614,4898.11C1610.74,4897.47 1607.39,4898.9 1605.62,4901.76C1598.37,4913.08 1590.58,4924.07 1582.27,4934.71L1568.95,4929.13ZM3513.43,4946.3L3513.73,4892.32C3513.76,4888.23 3516.49,4884.64 3520.43,4883.53C3524.37,4882.42 3528.57,4884.04 3530.73,4887.52C3539.66,4901.47 3549.43,4914.93 3559.97,4927.82C3555.55,4929.62 3551.08,4931.42 3546.58,4933.22C3538.7,4923.05 3531.29,4912.56 3524.38,4901.76C3522.61,4898.9 3519.26,4897.47 3516,4898.11L3515.73,4945.4C3514.97,4945.7 3514.2,4946 3513.43,4946.3ZM887.845,3338.45C900.381,3341.38 912.702,3344.84 924.872,3348.83C1206.04,3287.66 1835.18,3245.03 2565,3245.03C3512.38,3245.03 4290.12,3316.87 4357.26,3407.83C4356.06,3402.82 4354.6,3397.22 4353.36,3392.49L4353.36,3392.46C4352.3,3387.88 4350.33,3383.6 4347.59,3379.85C4346.91,3379.29 4346.19,3378.74 4345.44,3378.18C4330.61,3367.06 4304.99,3356.31 4269.67,3345.95C4031.99,3276.21 3357.82,3225.93 2565,3225.93C1801.34,3225.93 1147.29,3272.7 887.845,3338.45ZM3361.19,3310.39L3434.88,4107.78L3511.76,4111.79L3452.2,3540.54L3637.02,3561.53L3694.21,4123.49L3763.26,4129.99L3689.1,3335.76L3361.19,3310.39ZM3533.73,3371.32C3534.74,3371.54 3550.15,3374.92 3556.46,3377.07C3579.41,3384.88 3598.96,3412.56 3600.53,3439.99C3600.76,3444.03 3600.59,3447.85 3600.06,3451.4C3598.68,3460.62 3593.27,3480.06 3588.33,3487.79C3579.63,3501.41 3562.28,3507.94 3544.26,3502.73C3513.86,3493.94 3487.5,3457.54 3485.43,3421.49C3483.44,3386.66 3504.85,3364.82 3533.73,3371.32ZM3554.87,3382.56C3533.93,3376.51 3518.09,3391.75 3519.51,3416.57C3520.94,3441.4 3539.09,3466.47 3560.03,3472.52C3580.97,3478.57 3596.81,3463.33 3595.39,3438.5C3593.97,3413.68 3575.81,3388.61 3554.87,3382.56ZM3338.11,3326.65C3250.91,3323.08 3159.34,3320.09 3064.15,3317.75L3062.07,3317.7L3075.42,3618.87C3143.58,3621.32 3219.49,3624.65 3284.98,3628.06L3285.09,3627.6L3264.54,3388.72L3338.11,3326.65ZM1016.66,3182.91L1019.49,3181.35L1052.85,3179.57L1076.27,2871.09L1037.57,2888.49L1016.66,3182.91ZM3732.55,3776.37L3763.25,4105.14C3793.95,4108.03 3832.81,4111.82 3863.64,4115.06L3796.91,3783.59C3796.89,3783.47 3796.89,3783.35 3796.9,3783.23C3776.75,3781.02 3750.73,3778.22 3732.55,3776.37ZM4231.77,3265.85L4178.42,3224.62L4129.15,3197.39L4191.33,3238.61L4231.77,3265.85ZM4191.57,3254.81C4204.44,3259.35 4214.39,3263.91 4221.16,3268.46C4228.66,3273.51 4241.97,3283.75 4257.42,3296.16L4258.48,3286.6L4193.13,3242.59L4191.57,3254.81ZM4113.49,3183.5L4092.59,2889.08L4053.88,2871.68L4077.3,3180.16L4110.66,3181.94L4113.49,3183.5ZM2071.12,3297.57L2035.93,4091.81L2145.99,4089.34L2183.6,3515.06L2946.4,3515.06L2984.01,4089.34L3094.07,4091.81L3058.88,3297.57L2565,3297.57L2071.12,3297.57ZM2862.41,3342.73C2898.83,3342.73 2928.4,3372.3 2928.4,3408.73C2928.4,3445.15 2898.83,3474.72 2862.41,3474.72C2825.98,3474.72 2796.41,3445.15 2796.41,3408.73C2796.41,3372.3 2825.98,3342.73 2862.41,3342.73ZM2862.41,3352.47C2834.06,3352.47 2811.05,3375.48 2811.05,3403.83C2811.05,3432.17 2834.06,3455.18 2862.41,3455.18C2890.75,3455.18 2913.76,3432.17 2913.76,3403.83C2913.76,3375.48 2890.75,3352.47 2862.41,3352.47ZM2267.59,3342.73C2304.02,3342.73 2333.59,3372.3 2333.59,3408.73C2333.59,3445.15 2304.02,3474.72 2267.59,3474.72C2231.17,3474.72 2201.6,3445.15 2201.6,3408.73C2201.6,3372.3 2231.17,3342.73 2267.59,3342.73ZM2267.59,3352.47C2239.25,3352.47 2216.24,3375.48 2216.24,3403.83C2216.24,3432.17 2239.25,3455.18 2267.59,3455.18C2295.94,3455.18 2318.95,3432.17 2318.95,3403.83C2318.95,3375.48 2295.94,3352.47 2267.59,3352.47ZM4256.32,3434.12L4255.59,3433.49C4253.34,3431.55 4250.5,3429.64 4247.1,3427.72C4232.31,3419.38 4207.63,3411.35 4174.06,3403.55C4163.2,3401.03 4151.43,3398.54 4138.74,3396.08L4137.52,3395.85L4190.19,3730.64C4199.05,3732.68 4210.46,3735.41 4219.13,3737.55L4183.82,3466.15L4256.32,3434.12ZM1768.81,3310.39L1440.9,3335.76L1366.74,4129.99L1435.79,4123.49L1492.98,3561.53L1677.81,3540.54L1618.24,4111.79L1695.12,4107.78L1768.81,3310.39ZM1596.27,3371.32C1625.15,3364.82 1646.56,3386.66 1644.57,3421.49C1642.5,3457.54 1616.14,3493.94 1585.74,3502.73C1567.72,3507.94 1550.37,3501.41 1541.67,3487.79C1536.73,3480.06 1531.32,3460.62 1529.94,3451.4C1529.41,3447.85 1529.24,3444.03 1529.47,3439.99C1531.04,3412.56 1550.59,3384.88 1573.54,3377.07C1579.85,3374.92 1595.26,3371.54 1596.27,3371.32ZM1575.13,3382.56C1554.19,3388.61 1536.04,3413.68 1534.61,3438.5C1533.19,3463.33 1549.03,3478.57 1569.97,3472.52C1590.91,3466.47 1609.06,3441.4 1610.49,3416.57C1611.91,3391.75 1596.07,3376.51 1575.13,3382.56ZM898.38,3265.26L938.819,3238.03L1001,3196.8L951.729,3224.03L898.38,3265.26ZM3514.33,4114.23L3512.28,4128.64L3681.46,4138.13L3572.55,3614.25L3460.88,3601.71L3514.33,4114.23ZM3579.63,3953.96C3580.64,3954.18 3596.05,3957.56 3602.36,3959.71C3625.31,3967.52 3644.86,3995.2 3646.43,4022.63C3646.66,4026.67 3646.49,4030.48 3645.96,4034.04C3644.58,4043.26 3639.17,4062.7 3634.23,4070.43C3625.53,4084.06 3608.18,4090.58 3590.16,4085.37C3559.76,4076.58 3533.4,4040.18 3531.33,4004.14C3529.34,3969.3 3550.75,3947.46 3579.63,3953.96ZM3600.77,3965.2C3579.83,3959.14 3563.99,3974.39 3565.41,3999.21C3566.84,4024.04 3584.99,4049.11 3605.93,4055.16C3626.87,4061.21 3642.71,4045.97 3641.29,4021.14C3639.86,3996.32 3621.71,3971.25 3600.77,3965.2ZM1235.6,3359.63L1235.65,3359.66C1296.23,3353.61 1363.16,3347.98 1435.62,3342.83L1435.63,3342.79C1363.41,3347.92 1295.97,3353.6 1235.6,3359.63ZM1437.63,3346.01L1435.86,3346.14C1363.57,3351.28 1296.78,3356.9 1236.33,3362.93L1318.08,3419.67C1318.44,3419.93 1318.63,3420.37 1318.56,3420.81L1274.28,3674.68L1274.65,3675.37C1315.31,3670.52 1366.08,3664.94 1408.25,3660.71L1437.63,3346.01ZM1397.45,3776.37C1379.27,3778.22 1353.25,3781.02 1333.1,3783.23C1333.11,3783.35 1333.11,3783.47 1333.09,3783.59L1266.36,4115.06C1297.19,4111.82 1336.05,4108.03 1366.75,4105.14L1397.45,3776.37ZM4394.78,4227.2L4421.27,4227.46L4341.19,3723.67L4326.29,3717.68L4394.78,4227.2ZM4349.94,3537.55C4346.91,3537.32 4344.74,3539.5 4343.24,3543.01C4340.43,3549.59 4340.11,3560.52 4342.74,3573.08C4345.42,3585.83 4350.57,3597.36 4356.36,3604.7C4359.84,3609.12 4363.45,3612.03 4366.92,3612.3C4369.95,3612.53 4372.11,3610.35 4373.61,3606.84C4376.42,3600.26 4376.74,3589.33 4374.11,3576.77C4371.44,3564.02 4366.29,3552.49 4360.5,3545.15C4357.02,3540.73 4353.41,3537.82 4349.94,3537.55ZM2067.93,3317.7L2065.85,3317.75C1970.66,3320.09 1879.09,3323.08 1791.89,3326.65L1865.46,3388.72L1844.91,3627.6L1845.02,3628.06C1910.51,3624.65 1986.42,3621.32 2054.58,3618.87L2067.93,3317.7ZM3080.5,3733.62L3095.16,4064.36C3160.21,4066.56 3229.59,4069.35 3291.84,4072.33L3257.7,3741.27L3257.7,3741.23C3202.35,3738.49 3137.42,3735.68 3080.5,3733.62ZM2049.5,3733.62C1992.58,3735.68 1927.65,3738.49 1872.3,3741.23L1872.3,3741.27L1838.16,4072.33C1900.41,4069.35 1969.79,4066.56 2034.84,4064.36L2049.5,3733.62ZM3893.68,3362.93C3833.22,3356.9 3766.43,3351.28 3694.14,3346.14L3692.37,3346.01L3721.75,3660.71C3763.92,3664.94 3814.7,3670.52 3855.35,3675.37L3855.72,3674.68L3811.45,3420.81C3811.37,3420.37 3811.56,3419.93 3811.92,3419.67L3893.68,3362.93ZM1615.67,4114.23L1669.12,3601.71L1557.45,3614.25L1448.54,4138.13L1617.72,4128.64L1615.67,4114.23ZM1550.37,3953.96C1579.25,3947.46 1600.66,3969.3 1598.67,4004.14C1596.6,4040.18 1570.24,4076.58 1539.84,4085.37C1521.82,4090.58 1504.47,4084.06 1495.77,4070.43C1490.83,4062.7 1485.42,4043.26 1484.04,4034.04C1483.51,4030.48 1483.34,4026.67 1483.57,4022.63C1485.14,3995.2 1504.69,3967.52 1527.64,3959.71C1533.95,3957.56 1549.37,3954.18 1550.37,3953.96ZM1529.23,3965.2C1508.29,3971.25 1490.14,3996.32 1488.71,4021.14C1487.29,4045.97 1503.13,4061.21 1524.07,4055.16C1545.01,4049.11 1563.16,4024.04 1564.59,3999.21C1566.01,3974.39 1550.17,3959.14 1529.23,3965.2ZM938.577,3254.23L937.017,3242L871.667,3286.01L872.732,3295.57C888.182,3283.16 901.485,3272.92 908.988,3267.87C915.758,3263.32 925.708,3258.76 938.577,3254.23ZM2890.39,3577.19L2239.61,3577.19L2169.99,4109.44L2565,4109.45L2960.01,4109.44L2890.39,3577.19ZM2862.41,3920.78C2898.83,3920.78 2928.4,3950.36 2928.4,3986.78C2928.4,4023.2 2898.83,4052.77 2862.41,4052.77C2825.98,4052.77 2796.41,4023.2 2796.41,3986.78C2796.41,3950.36 2825.98,3920.78 2862.41,3920.78ZM2862.41,3930.53C2834.06,3930.53 2811.05,3953.54 2811.05,3981.88C2811.05,4010.22 2834.06,4033.24 2862.41,4033.24C2890.75,4033.24 2913.76,4010.22 2913.76,3981.88C2913.76,3953.54 2890.75,3930.53 2862.41,3930.53ZM2267.59,3920.78C2304.02,3920.78 2333.59,3950.36 2333.59,3986.78C2333.59,4023.2 2304.02,4052.77 2267.59,4052.77C2231.17,4052.77 2201.6,4023.2 2201.6,3986.78C2201.6,3950.36 2231.17,3920.78 2267.59,3920.78ZM2267.59,3930.53C2239.25,3930.53 2216.24,3953.54 2216.24,3981.88C2216.24,4010.22 2239.25,4033.24 2267.59,4033.24C2295.94,4033.24 2318.95,4010.22 2318.95,3981.88C2318.95,3953.54 2295.94,3930.53 2267.59,3930.53ZM3867.95,2829.44C3895.38,2835.87 3918.97,2842.49 3938.39,2849.26L3868.88,2849.26L3867.95,2829.44ZM3313.81,2230.7C3408.2,2239.06 3494.96,2248.93 3572.35,2260.05L3440.81,2260.05L3440.32,2243.33L3314.04,2243.33L3313.81,2230.7ZM1536.62,2800.95L1416.66,2800.95C1453.82,2795.42 1494.08,2790.13 1537.18,2785.13L1536.62,2800.95ZM3455.96,2771.07C3494.73,2774.59 3531.88,2778.32 3567.25,2782.23L3456.2,2782.23L3455.96,2771.07ZM3730.09,2803.49C3779.92,2811.19 3823.79,2819.34 3860.97,2827.82L3731.09,2827.82L3730.09,2803.49ZM2097.89,2220.09L1965.77,2219.27C2008.71,2216.42 2052.85,2213.86 2098.06,2211.62L2097.89,2220.09ZM1693.05,2594.63C1380.27,2624.57 1103.89,2670.38 946.749,2730.3C910.532,2748.97 835.761,2803.13 798.646,2835.93C832.857,2813.25 887.679,2791.64 960.18,2771.58C1260.9,2688.41 1867.25,2631.49 2565,2631.49C3262.75,2631.49 3869.1,2688.41 4169.82,2771.58C4242.32,2791.64 4297.14,2813.25 4331.35,2835.93C4294.24,2803.13 4219.47,2748.97 4183.25,2730.3C4026.09,2670.37 3749.67,2624.56 3436.95,2594.63L3436.13,2567.11L3377.27,2521.28L3356.33,2519.14L3348.81,2245.63L3438.21,2245.63L3448.39,2591.19C3466.94,2593 3485.36,2594.86 3503.64,2596.78L3493.43,2262.35L3572.22,2262.35L3584.32,2605.74C3604.85,2608.14 3625.16,2610.62 3645.16,2613.17L3632.81,2284.84L3706.64,2284.84L3720.52,2623.29C3743.66,2626.57 3766.38,2629.95 3788.64,2633.43L3774.82,2317.35L3841.81,2317.35L3857.13,2644.74C3883.08,2649.25 3908.26,2653.92 3932.6,2658.75L3916.87,2342.78L3921.48,2345.02C3936.64,2352.78 3948.29,2360.71 3956.2,2368.8C3963.41,2376.18 3967.44,2383.64 3967.92,2391.22L3983.1,2633.59L3936.22,2631.58L3937.68,2661.91L3942.28,2661.69L3941.05,2636.39L3988.01,2638.4L3972.56,2391.7L4016.49,2352.97L4060.65,2381.34L4079.01,2639.85L4106.4,2640.99C4106.81,2641.01 4107.2,2641.13 4107.54,2641.35L4179.71,2687.35C4179.79,2687.4 4179.86,2687.45 4179.94,2687.51L4263.8,2756.17C4264.39,2756.65 4264.7,2757.39 4264.63,2758.15L4262.96,2776.63C4296.56,2800.81 4329.76,2827.12 4346.09,2843.35C4358,2855.18 4368.13,2868.4 4371.73,2882.18C4372.66,2885.68 4373.14,2889.19 4373.14,2892.7C4373.63,2901.6 4373.61,2910.37 4373.14,2918.98C4373.13,2931.03 4367.72,2942.9 4357.09,2954.48C4346.75,2965.73 4331.43,2976.76 4311.4,2987.49C4267.18,3011.2 4199.87,3033.54 4113.03,3054.1L4100.79,2881.69L4052.42,2859.43L4002.14,2888.01C4000.32,2883.01 3997.17,2878.22 3992.68,2873.63C3982.72,2863.45 3966.05,2854.24 3943.11,2846.04C3841.62,2809.78 3620.74,2777.33 3328.87,2756.12L3328.33,2732.02L3214.81,2725.13L3181.75,2739.95L3181.9,2746.74C2995.26,2736.39 2786.2,2730.43 2565,2730.43C2343.8,2730.43 2134.74,2736.39 1948.1,2746.74L1948.25,2739.95L1915.19,2725.13L1801.67,2732.02L1801.13,2756.12C1509.27,2777.33 1288.38,2809.78 1186.89,2846.04C1163.95,2854.24 1147.28,2863.45 1137.32,2873.63C1132.83,2878.22 1129.68,2883.01 1127.86,2888.01L1077.58,2859.43L1029.21,2881.69L1016.97,3054.1C930.132,3033.54 862.818,3011.2 818.596,2987.49C798.575,2976.76 783.25,2965.73 772.915,2954.48C762.278,2942.9 756.87,2931.03 756.858,2918.98C756.385,2910.37 756.372,2901.6 756.858,2892.7C756.864,2889.19 757.335,2885.68 758.268,2882.18C761.874,2868.4 771.997,2855.18 783.91,2843.35C800.239,2827.12 833.443,2800.81 867.043,2776.63L865.368,2758.15C865.299,2757.39 865.611,2756.65 866.201,2756.17L950.065,2687.51C950.135,2687.45 950.209,2687.4 950.286,2687.35L1022.46,2641.35C1022.8,2641.13 1023.2,2641.01 1023.6,2640.99L1050.99,2639.85L1069.35,2381.34L1113.51,2352.97L1157.44,2391.7L1141.99,2638.4L1188.95,2636.39L1187.72,2661.69L1192.32,2661.91L1193.78,2631.58L1146.9,2633.59L1162.08,2391.22C1162.56,2383.64 1166.59,2376.18 1173.8,2368.8C1181.71,2360.71 1193.36,2352.78 1208.52,2345.02L1213.13,2342.78L1197.4,2658.75C1221.74,2653.92 1246.92,2649.25 1272.87,2644.74L1288.19,2317.35L1355.18,2317.35L1341.36,2633.43C1363.62,2629.95 1386.34,2626.57 1409.48,2623.29L1423.36,2284.84L1497.19,2284.84L1484.84,2613.17C1504.84,2610.62 1525.15,2608.14 1545.68,2605.74L1557.79,2262.35L1636.57,2262.35L1626.36,2596.78C1644.64,2594.86 1663.06,2593 1681.61,2591.19L1691.79,2245.63L1781.19,2245.63L1773.67,2519.14L1752.73,2521.28L1693.87,2567.11L1693.05,2594.63ZM4038.22,2638.15L4074.39,2639.66L4056.21,2383.62L4016.97,2358.85L4038.22,2638.15ZM4185.18,2707.78L4239.09,2741.88L4177.13,2691.16L4121.42,2655.65L4185.18,2707.78ZM4191.63,2729.81C4209.44,2739.73 4233.95,2755.91 4258.62,2773.52L4259.94,2758.95L4253.69,2753.84L4193.43,2715.72L4191.63,2729.81ZM938.373,2729.81L936.574,2715.72L876.307,2753.84L870.057,2758.95L871.378,2773.52C896.046,2755.91 920.557,2739.73 938.373,2729.81ZM1091.62,2640.46L1113.03,2358.85L1073.79,2383.62L1055.45,2641.97L1091.62,2640.46ZM944.825,2707.78L1008.58,2655.65L952.872,2691.16L890.912,2741.88L944.825,2707.78ZM2565,2659.96C3533.1,2659.96 4324.74,2769.34 4368.9,2906.82C4368.92,2902.21 4368.8,2897.58 4368.55,2892.9L4368.54,2892.77C4368.54,2890.37 4368.3,2887.99 4367.83,2885.63C4365.02,2871.58 4353.98,2857.89 4335.61,2844.49C4302.43,2820.26 4245.54,2797.3 4168.6,2776.01C3868.11,2692.9 3262.21,2636.09 2565,2636.09C1867.79,2636.09 1261.89,2692.9 961.405,2776.01C884.458,2797.3 827.569,2820.26 794.385,2844.49C776.019,2857.89 764.975,2871.58 762.169,2885.63C761.703,2887.99 761.456,2890.37 761.456,2892.77L761.452,2892.9C761.196,2897.58 761.08,2902.21 761.1,2906.82C805.256,2769.34 1596.9,2659.96 2565,2659.96ZM1798.45,3082.88L1805.47,2768.06L1708.13,2768.07C1739.02,2765.43 1770.84,2762.92 1803.55,2760.55L1805.64,2760.4L1806.17,2736.35L1914.35,2729.79L1943.59,2742.89L1936.19,3073.23L1942.17,3072.81L1987.84,3075.45L1986.2,3145.25C1883.52,3150.09 1781.95,3156.01 1684.53,3162.78L1685.24,3130.63L1741.44,3086.87L1798.45,3082.88ZM1911.57,2734.56L1810.67,2740.69L1803.06,3082.56L1904.27,3075.47L1911.57,2734.56ZM1704.12,3156.81C1771.37,3152.24 1840.51,3148.08 1910.53,3144.4L1922.02,3143.71L1922.55,3119.89L1689.77,3133.94L1689.24,3157.71L1704.12,3156.81ZM1923.32,3115.24L1938.66,3077.67L1743.15,3091.36L1694.78,3129.03L1923.32,3115.24ZM3310.86,2206.69L3318.35,2519.96L3357.54,2523.89L3375.49,2525.72L3431.6,2569.41L3432.34,2594.19C3334.46,2584.87 3233.06,2577.11 3130.66,2570.95L3129.11,2512.46L3174.6,2505.56L3180.79,2506.18L3173.45,2213.88L3203.56,2199.14L3310.86,2206.69ZM3206.37,2203.95L3212.63,2509.37L3313.74,2519.5L3306.37,2210.99L3206.37,2203.95ZM3420.91,2588.57L3427.66,2589.11L3427.66,2572.74L3194.87,2553.92L3194.87,2570.34L3204.42,2571.11C3277.74,2576.11 3350.23,2581.94 3420.91,2588.57ZM3194.16,2549.25L3422.41,2567.7L3373.67,2530.12L3178.25,2510.55L3194.16,2549.25ZM2223.6,2743.33L2143.21,2742.46C2169.7,2741.51 2196.53,2740.64 2223.65,2739.86L2223.6,2743.33ZM3448.05,2770.36L3453.69,2770.87L3465.14,3159.55C3483.91,3160.88 3502.51,3162.25 3520.95,3163.65L3509.37,2784.53L3587.62,2784.53L3590.63,2784.88L3604.21,3170.28C3625.24,3172.04 3645.96,3173.83 3666.34,3175.67L3652.32,2803.24L3727.9,2803.24L3743.47,3182.94C3767.24,3185.3 3790.43,3187.7 3812.97,3190.15L3797.24,2830.12L3865.81,2830.12L3883.03,3198.16C3903.06,3200.58 3922.4,3203.03 3941.03,3205.51C3947.42,3206.36 3953.73,3207.21 3959.94,3208.07L3942.07,2850.55C3960.3,2857.1 3974.43,2864.26 3984.16,2872.11C3993.54,2879.68 3998.76,2887.84 3999.34,2896.76L4017.16,3169.15L3970.7,3166.68L3973.54,3214.61C3962.78,3213.09 3951.73,3211.57 3940.42,3210.06C3806.59,3192.25 3636.01,3176.11 3450.08,3163.11L3449.31,3128.35L3390.28,3082.38L3372,3081.1L3371.84,3083.4L3363.23,2770.36L3448.05,2770.36ZM2127.78,2210.2C2161.76,2208.64 2196.3,2207.26 2231.36,2206.07L2231.27,2211.94L2102.64,2211.39L2111.09,2210.98L2120.19,2210.55L2127.78,2210.2ZM1969.21,1832.99L1969.27,1830.36C2149.37,1816.95 2351.29,1809.5 2565,1809.5C2778.71,1809.5 2980.63,1816.95 3160.73,1830.36L3160.79,1832.99L3024.42,1832.99L3024.23,1823.81L2893.26,1823.81L2893.15,1817.69L2762.09,1817.69L2762.05,1813.7L2631.25,1813.7L2631.25,1811.77L2498.75,1811.77L2498.75,1813.7L2367.95,1813.7L2367.91,1817.69L2236.85,1817.69L2236.74,1823.81L2105.77,1823.81L2105.58,1832.99L1969.21,1832.99ZM3843.9,2315.3C3871.56,2323.71 3895.08,2332.43 3914.07,2341.43L3845.12,2341.43L3843.9,2315.3ZM3708.73,2282.8C3721.09,2285.21 3733.07,2287.65 3744.65,2290.14C3770.15,2295.61 3793.76,2301.28 3815.35,2307.12C3825,2309.73 3834.24,2312.38 3843.08,2315.05L3710.06,2315.05L3708.73,2282.8ZM1554.89,2282.55L1422.58,2282.55C1463.01,2274.7 1507.51,2267.28 1555.68,2260.33L1554.89,2282.55ZM987.517,2163.25C972.612,2153.32 960.004,2143.2 949.811,2132.91C929.017,2111.91 918.214,2090.17 918.205,2067.97C918.026,2059.44 918.227,2050.9 919.67,2042.37C927.278,1973.65 1055.08,1624.37 1139.99,1482.04C1140.04,1481.95 1140.1,1481.86 1140.16,1481.78C1201.28,1404.81 1320.14,1280.06 1442.56,1168.3C1539.03,1080.23 1637.72,1000.22 1712.11,958.012C1800.58,907.819 1924.43,859.692 2065.7,823.563C2087.59,804.406 2108.29,791.245 2126.67,786.774C2139.36,783.688 2152.21,780.749 2165.33,777.96L2220.62,611.227C2223.4,602.82 2230.77,596.762 2239.56,595.652C2286.59,590.974 2382.31,586.819 2382.31,586.819L2391.17,677.157C2391.87,684.22 2397.8,689.604 2404.9,689.604L2538.28,689.604C2538.84,687.732 2539.59,685.944 2540.51,684.262C2544.31,677.323 2554.32,669.9 2565,669.9C2575.68,669.9 2585.69,677.323 2589.49,684.262C2590.41,685.944 2591.16,687.732 2591.72,689.604L2725.1,689.604C2732.2,689.604 2738.14,684.22 2738.83,677.157L2747.69,586.819C2747.69,586.819 2843.41,590.974 2890.44,595.652C2899.23,596.762 2906.6,602.82 2909.39,611.227L2964.67,777.96C2977.79,780.749 2990.64,783.688 3003.33,786.774C3021.71,791.245 3042.41,804.406 3064.3,823.563C3205.57,859.692 3329.42,907.819 3417.89,958.012C3492.28,1000.22 3590.97,1080.23 3687.44,1168.3C3809.86,1280.06 3928.72,1404.81 3989.84,1481.78C3989.9,1481.86 3989.96,1481.95 3990.01,1482.04C4074.93,1624.37 4202.72,1973.65 4210.33,2042.37C4211.77,2050.9 4211.97,2059.44 4211.8,2067.97C4211.79,2090.17 4200.98,2111.91 4180.19,2132.91C4170,2143.2 4157.39,2153.32 4142.48,2163.25L4133.2,2155.53L4051.12,2110.4L4044.45,2110.45L4038.55,2027.1L3991.33,1980.84L3949.18,2017.68C3947.44,2010.07 3943.47,2002.57 3937.34,1995.2C3925.87,1981.42 3906.7,1968.04 3880.49,1955.27C3780.08,1906.32 3575.47,1865.52 3307.71,1838.84L3307.34,1822.44L3194.68,1811.87L3160.58,1823.88L3160.61,1825.74C2980.51,1812.34 2778.64,1804.9 2565,1804.9C2351.36,1804.9 2149.49,1812.34 1969.39,1825.74L1969.42,1823.88L1935.32,1811.87L1822.66,1822.44L1822.29,1838.84C1554.53,1865.52 1349.92,1906.32 1249.51,1955.27C1223.3,1968.04 1204.13,1981.42 1192.66,1995.2C1186.53,2002.57 1182.56,2010.07 1180.82,2017.68L1138.67,1980.84L1091.45,2027.1L1085.55,2110.45L1078.88,2110.4L996.798,2155.53L987.517,2163.25ZM2565,674.498C2556.1,674.498 2547.71,680.686 2544.54,686.47C2542.75,689.742 2541.73,693.497 2541.73,697.487C2541.73,697.715 2541.74,697.943 2541.74,698.169C2487.26,701.373 2435.77,715.753 2389.51,739.054C2385.61,731.885 2378.02,727.013 2369.29,727.013C2356.6,727.013 2346.3,737.314 2346.3,750.002C2346.3,754.444 2347.56,758.594 2349.75,762.111C2305.51,791.367 2267.56,829.373 2238.38,873.638C2234.87,871.463 2230.73,870.208 2226.3,870.208C2213.61,870.208 2203.31,880.509 2203.31,893.197C2203.31,901.934 2208.19,909.539 2215.38,913.429C2192.19,959.628 2177.89,1011.06 2174.73,1065.44C2162,1065.95 2151.07,1076.25 2151.07,1088.42C2151.07,1101.11 2161.37,1111.41 2174.06,1111.41C2174.29,1111.41 2174.51,1111.41 2174.73,1111.4C2177.9,1165.9 2192.25,1217.41 2215.5,1263.67C2208.33,1267.56 2203.45,1275.16 2203.45,1283.89C2203.45,1296.58 2213.75,1306.88 2226.44,1306.88C2230.87,1306.88 2235.02,1305.62 2238.53,1303.44C2267.75,1347.7 2305.73,1385.68 2349.98,1414.89C2347.8,1418.41 2346.54,1422.55 2346.54,1426.99C2346.54,1439.67 2356.84,1449.98 2369.53,1449.98C2378.26,1449.98 2385.87,1445.1 2389.76,1437.92C2436.22,1461.28 2487.96,1475.65 2542.69,1478.74C2542.69,1478.94 2542.68,1479.15 2542.68,1479.36C2542.68,1491.83 2552.62,1501.98 2565,1502.34C2577.38,1501.98 2587.32,1491.83 2587.32,1479.36C2587.32,1479.15 2587.31,1478.94 2587.31,1478.74C2642.04,1475.65 2693.78,1461.28 2740.24,1437.92C2744.14,1445.1 2751.74,1449.98 2760.47,1449.98C2773.16,1449.98 2783.46,1439.67 2783.46,1426.99C2783.46,1422.55 2782.2,1418.41 2780.02,1414.89C2824.27,1385.68 2862.25,1347.7 2891.47,1303.44C2894.98,1305.62 2899.13,1306.88 2903.56,1306.88C2916.25,1306.88 2926.55,1296.58 2926.55,1283.89C2926.55,1275.16 2921.67,1267.56 2914.5,1263.67C2937.75,1217.41 2952.1,1165.9 2955.27,1111.4C2955.49,1111.41 2955.71,1111.41 2955.94,1111.41C2968.63,1111.41 2978.93,1101.11 2978.93,1088.42C2978.93,1076.25 2968,1065.95 2955.27,1065.44C2952.11,1011.06 2937.81,959.628 2914.62,913.429C2921.81,909.539 2926.69,901.934 2926.69,893.197C2926.69,880.509 2916.39,870.208 2903.7,870.208C2899.27,870.208 2895.13,871.463 2891.62,873.638C2862.44,829.373 2824.49,791.367 2780.25,762.111C2782.44,758.594 2783.7,754.444 2783.7,750.002C2783.7,737.314 2773.4,727.013 2760.71,727.013C2751.98,727.013 2744.39,731.885 2740.49,739.054C2694.23,715.753 2642.74,701.373 2588.26,698.169C2588.26,697.943 2588.27,697.715 2588.27,697.487C2588.27,693.497 2587.25,689.742 2585.46,686.47C2582.29,680.686 2573.9,674.498 2565,674.498ZM2565,1467.31C2356.43,1466.63 2186.11,1297.12 2186.11,1088.42C2186.11,879.311 2355.89,709.538 2565,709.538C2774.11,709.538 2943.89,879.311 2943.89,1088.42C2943.89,1297.12 2773.57,1466.63 2565,1467.31ZM2565,711.837C2361.13,711.837 2188.46,879.973 2187.86,1087.29L2265.93,1130.21C2286.31,1277.12 2412.53,1390.37 2565,1390.37C2717.47,1390.37 2843.69,1277.12 2864.07,1130.21L2942.14,1087.29C2941.54,879.973 2768.87,711.837 2565,711.837ZM2565,1388.07C2400.05,1387.54 2265.35,1253.47 2265.35,1088.42C2265.35,923.045 2399.62,788.778 2565,788.778C2730.38,788.778 2864.65,923.045 2864.65,1088.42C2864.65,1253.47 2729.95,1387.54 2565,1388.07ZM2565,808.246C2410.37,808.246 2284.82,933.79 2284.82,1088.42C2284.82,1243.06 2410.37,1368.6 2565,1368.6C2719.64,1368.6 2845.18,1243.06 2845.18,1088.42C2845.18,933.79 2719.64,808.246 2565,808.246ZM2565,1306.03C2447.84,1306.03 2352.19,1213.24 2347.57,1097.22L2290.65,1132.81C2288.33,1118.36 2287.12,1103.53 2287.12,1088.42C2287.12,935.059 2411.63,810.545 2565,810.545C2718.37,810.545 2842.88,935.059 2842.88,1088.42C2842.88,1103.53 2841.67,1118.36 2839.35,1132.81L2782.43,1097.22C2777.81,1213.24 2682.16,1306.03 2565,1306.03ZM2565,868.135C2446.17,868.135 2349.7,969.595 2349.7,1088.42C2349.7,1207.26 2446.17,1303.73 2565,1303.73C2683.83,1303.73 2780.3,1207.26 2780.3,1088.42C2780.3,969.595 2683.83,868.135 2565,868.135ZM2565,1291.55C2451.29,1291.55 2358.97,1199.23 2358.97,1085.52C2358.97,971.802 2451.29,879.481 2565,879.481C2678.71,879.481 2771.03,971.802 2771.03,1085.52C2771.03,1199.23 2678.71,1291.55 2565,1291.55ZM2565,890.36C2459.72,890.36 2373.81,973.898 2369.98,1078.23C2473.89,1088.33 2656.11,1088.33 2760.02,1078.23C2756.19,973.898 2670.28,890.36 2565,890.36ZM2376.36,723.331C2382.3,724.902 2387.45,728.405 2391.11,733.124C2434.43,711.864 2482.19,698.296 2532.61,694.202L2404.9,694.202C2395.44,694.202 2387.52,687.023 2386.6,677.606L2379,600.143L2366.76,649.362L2376.36,723.331ZM2565,1552.39C2770.32,1552.48 2960.44,1554.94 3166.4,1573.09L3109.62,1236.33L2905.02,612.674C2902.56,605.222 2897.93,601.027 2889.91,600.22C2844.43,595.645 2798.65,593.063 2752.69,591.62L2765.25,638.896C2797.8,641.778 2829.15,645.346 2859.05,649.532C2860.85,649.785 2862.33,651.066 2862.83,652.806L3002.47,1134.23C3013.74,1173.08 2989.86,1204.87 2949.4,1204.87L2943.08,1204.87C2936.99,1224.64 2929.4,1243.75 2920.43,1262.06C2926.95,1267.11 2931.15,1275.02 2931.15,1283.89C2931.15,1299.12 2918.79,1311.48 2903.56,1311.48C2899.83,1311.48 2896.27,1310.74 2893.02,1309.39C2882.36,1325.19 2870.58,1340.17 2857.8,1354.24L2869.26,1492.27C2869.95,1500.6 2867.13,1508.84 2861.47,1514.98C2855.81,1521.13 2847.83,1524.63 2839.48,1524.63L2290.52,1524.63C2282.17,1524.63 2274.19,1521.13 2268.53,1514.98C2262.87,1508.84 2260.05,1500.6 2260.74,1492.27L2272.2,1354.24C2259.42,1340.17 2247.64,1325.19 2236.98,1309.39C2233.73,1310.74 2230.17,1311.48 2226.44,1311.48C2211.21,1311.48 2198.85,1299.12 2198.85,1283.89C2198.85,1275.02 2203.05,1267.11 2209.58,1262.06C2200.6,1243.75 2193.01,1224.64 2186.92,1204.87L2180.6,1204.87C2140.14,1204.87 2116.26,1173.08 2127.53,1134.23L2267.17,652.806C2267.68,651.066 2269.15,649.785 2270.95,649.532C2300.85,645.346 2332.2,641.778 2364.75,638.896L2377.31,591.62C2331.35,593.063 2285.57,595.645 2240.09,600.22C2232.07,601.027 2227.44,605.222 2224.98,612.674L2020.38,1236.33L1963.6,1573.09C2172.82,1554.65 2355.59,1552.41 2565,1552.39ZM3071.67,830.198C3108.42,864.17 3148.07,913.832 3185.35,966.821C3299.38,1010.5 3405.72,1066.38 3491.69,1131.05C3497.33,1135.31 3502.77,1139.85 3507.97,1144.64C3543.53,1178.17 3669.14,1305.84 3700.64,1351.82C3703.55,1356.05 3707.85,1359.13 3712.79,1360.51C3801.46,1385.15 3923.72,1432.82 3984.4,1482.33C3873.93,1344.1 3583.11,1057.04 3415.62,962.011C3329.21,912.986 3208.91,865.939 3071.67,830.198ZM2317.83,1397.14C2311.15,1401.77 2305.97,1409.7 2305.34,1418.31L2304.74,1426.43C2304.18,1434.07 2306.83,1441.6 2312.05,1447.21C2317.26,1452.82 2324.58,1456.01 2332.24,1456.01L2368.83,1456.01C2376.8,1456.01 2383.96,1452.43 2388.76,1446.77L2388.51,1447C2383.57,1451.69 2376.88,1454.57 2369.53,1454.57C2356.07,1454.57 2344.85,1444.91 2342.43,1432.15C2341.92,1431.81 2341.44,1431.42 2341,1430.98C2339.27,1429.23 2338.3,1426.86 2338.3,1424.38L2338.3,1424.38C2338.3,1421.9 2339.27,1419.53 2341,1417.79C2341.71,1417.07 2342.53,1416.48 2343.42,1416.03C2334.63,1410.08 2326.09,1403.77 2317.83,1397.14ZM2565,1741.3C3436.78,1741.3 4151.8,1876.47 4206.17,2047.04C4206.05,2045.69 4205.92,2044.35 4205.77,2043.01C4202.23,2022.25 4189.1,2001.91 4167.35,1982.09C4134.16,1951.87 4081.02,1923.01 4010.71,1896.15C3736.12,1791.28 3199.6,1717.55 2565,1717.55C1930.4,1717.55 1393.88,1791.28 1119.29,1896.15C1048.98,1923.01 995.835,1951.87 962.652,1982.09C940.897,2001.91 927.771,2022.25 924.225,2043.01C924.078,2044.35 923.947,2045.69 923.829,2047.04C978.199,1876.47 1693.22,1741.3 2565,1741.3ZM3211.84,1005.59C3273.29,1098 3324,1191.38 3337.38,1223.26C3343.38,1237.23 3353.12,1266.43 3364.69,1303.6C3465.47,1319.15 3558.01,1337.36 3640.4,1357.57C3650.38,1360.01 3660.2,1362.5 3669.87,1365.01C3670.82,1365.26 3671.82,1364.88 3672.37,1364.06C3672.91,1363.24 3672.87,1362.17 3672.27,1361.39C3624.62,1300.62 3507.76,1181.06 3478.37,1154.52C3477.94,1154.13 3477.5,1153.77 3477.05,1153.42C3401.27,1095.43 3309.77,1045.41 3211.84,1005.59ZM2812.17,1397.14C2803.91,1403.77 2795.37,1410.08 2786.58,1416.03C2787.47,1416.48 2788.29,1417.07 2789,1417.79C2790.73,1419.53 2791.7,1421.9 2791.7,1424.38L2791.7,1424.38C2791.7,1426.86 2790.73,1429.23 2789,1430.98C2788.56,1431.42 2788.08,1431.81 2787.57,1432.15C2785.15,1444.91 2773.93,1454.57 2760.47,1454.57C2753.12,1454.57 2746.43,1451.69 2741.49,1447L2741.24,1446.77C2746.04,1452.43 2753.2,1456.01 2761.17,1456.01L2797.76,1456.01C2805.42,1456.01 2812.74,1452.82 2817.95,1447.21C2823.17,1441.6 2825.82,1434.07 2825.26,1426.43L2824.66,1418.31C2824.03,1409.7 2818.85,1401.77 2812.17,1397.14ZM3996.32,1502.2C3942.45,1455.04 3844.98,1409.35 3719,1372.84C3717.39,1372.37 3715.67,1372.87 3714.55,1374.1C3713.43,1375.34 3713.12,1377.11 3713.75,1378.66C3714.49,1380.49 3715.21,1382.33 3715.9,1384.19C3753.6,1488.19 3825.32,1731.93 3846.71,1840.29C3909.22,1856.4 3964.71,1873.66 4012.35,1891.86C4083.34,1918.97 4136.94,1948.18 4170.44,1978.69C4183.29,1990.39 4193.19,2002.3 4200.03,2014.35C4174.25,1911.42 4071.82,1637.63 3996.32,1502.2ZM1133.68,1502.2C1058.18,1637.63 955.752,1911.42 929.968,2014.35C936.81,2002.3 946.714,1990.39 959.556,1978.69C993.056,1948.18 1046.66,1918.97 1117.65,1891.86C1165.29,1873.66 1220.78,1856.4 1283.29,1840.29C1304.68,1731.93 1376.4,1488.19 1414.1,1384.19C1414.79,1382.33 1415.51,1380.49 1416.25,1378.66C1416.88,1377.11 1416.57,1375.34 1415.45,1374.1C1414.33,1372.87 1412.61,1372.37 1411,1372.84C1285.02,1409.35 1187.55,1455.04 1133.68,1502.2ZM2753.64,723.331L2763.24,649.362L2751,600.143L2743.4,677.606C2742.48,687.023 2734.56,694.202 2725.1,694.202L2597.39,694.202C2647.81,698.296 2695.57,711.864 2738.89,733.124C2742.55,728.405 2747.7,724.902 2753.64,723.331ZM2058.33,830.198C1921.09,865.939 1800.79,912.986 1714.38,962.011C1546.89,1057.04 1256.07,1344.1 1145.6,1482.33C1206.28,1432.82 1328.54,1385.15 1417.21,1360.51C1422.15,1359.13 1426.45,1356.05 1429.36,1351.82C1460.86,1305.84 1586.47,1178.17 1622.03,1144.64C1627.23,1139.85 1632.67,1135.31 1638.31,1131.05C1724.29,1066.38 1830.62,1010.5 1944.65,966.821C1981.93,913.832 2021.58,864.17 2058.33,830.198ZM2966.35,783.02L3116.29,1235.22L3169.6,1550.73C3170.94,1559.92 3172.68,1569.13 3174.69,1578.19C3180.74,1605.56 3200.32,1631.4 3272.45,1641.93C3344.59,1652.47 3463.43,1669.63 3463.43,1669.63C3464.6,1669.63 3359.05,1287.76 3330.31,1223.26C3312.56,1180.96 3212.22,996.861 3115.45,883.176C3074.63,835.209 3034.82,799.168 3002.24,791.242C2990.45,788.372 2978.5,785.63 2966.35,783.02ZM2500.81,1478.77C2501.27,1479.34 2501.74,1479.89 2502.17,1480.32C2507.41,1485.57 2514.46,1488.61 2521.88,1488.61L2539.68,1488.61C2539.05,1486.84 2538.59,1484.99 2538.34,1483.07C2525.66,1482.23 2513.14,1480.78 2500.81,1478.77ZM2163.65,783.02C2151.5,785.63 2139.55,788.372 2127.76,791.242C2095.18,799.168 2055.37,835.209 2014.55,883.176C1917.78,996.861 1817.44,1180.96 1799.69,1223.26C1770.95,1287.76 1665.4,1669.63 1666.57,1669.63C1666.57,1669.63 1785.41,1652.47 1857.55,1641.93C1929.68,1631.4 1949.26,1605.56 1955.31,1578.19C1957.32,1569.13 1959.06,1559.92 1960.4,1550.73L2013.71,1235.22L2163.65,783.02ZM1918.16,1005.59C1820.23,1045.41 1728.73,1095.43 1652.95,1153.42C1652.5,1153.77 1652.06,1154.13 1651.63,1154.52C1622.24,1181.06 1505.38,1300.62 1457.73,1361.39C1457.13,1362.17 1457.09,1363.24 1457.63,1364.06C1458.18,1364.88 1459.18,1365.26 1460.13,1365.01C1469.8,1362.5 1479.62,1360.01 1489.6,1357.57C1571.99,1337.36 1664.53,1319.15 1765.31,1303.6C1776.88,1266.43 1786.62,1237.23 1792.62,1223.26C1806,1191.38 1856.71,1098 1918.16,1005.59ZM2629.19,1478.77C2616.86,1480.78 2604.34,1482.23 2591.66,1483.07C2591.41,1484.99 2590.95,1486.84 2590.32,1488.61L2608.12,1488.61C2615.54,1488.61 2622.59,1485.57 2627.83,1480.32C2628.26,1479.89 2628.73,1479.34 2629.19,1478.77ZM2288.81,1512.37C2284.33,1512.37 2280.05,1510.5 2277,1507.21C2273.96,1503.92 2272.42,1499.52 2272.76,1495.05L2282.7,1365.36C2280.19,1362.81 2277.72,1360.22 2275.29,1357.61L2263.68,1490.56C2263.01,1498.26 2265.6,1505.89 2270.82,1511.6C2276.05,1517.3 2283.43,1520.55 2291.16,1520.55L2838.84,1520.55C2846.57,1520.55 2853.95,1517.3 2859.18,1511.6C2864.4,1505.89 2866.99,1498.26 2866.32,1490.56L2854.71,1357.61C2852.28,1360.22 2849.81,1362.81 2847.3,1365.36L2857.24,1495.05C2857.58,1499.52 2856.04,1503.92 2853,1507.21C2849.95,1510.5 2845.67,1512.37 2841.19,1512.37L2288.81,1512.37ZM2565,1712.95C3089.84,1712.95 3547.94,1763.39 3846.12,1840.14C3812.68,1731.8 3724.85,1484.98 3686.75,1387.87C3684.07,1381.16 3678.38,1376.1 3671.4,1374.21C3656.22,1370.13 3640.65,1366.13 3624.68,1362.21C3546.74,1343.09 3460.54,1326.17 3367.22,1311.77C3402.7,1431.14 3437.12,1550.5 3470.42,1669.87C3472.36,1674.47 3471.5,1679.35 3469.87,1683.84L3457.32,1718.46C3189.72,1684.14 2887.06,1664.9 2565,1664.9C2242.94,1664.9 1940.28,1684.14 1672.68,1718.46L1660.13,1683.84C1658.5,1679.35 1657.64,1674.47 1659.58,1669.87C1692.88,1550.5 1727.3,1431.14 1762.78,1311.77C1669.46,1326.17 1583.26,1343.09 1505.32,1362.21C1489.35,1366.13 1473.78,1370.13 1458.6,1374.21C1451.62,1376.1 1445.93,1381.16 1443.25,1387.87C1405.15,1484.98 1317.32,1731.8 1283.88,1840.14C1582.06,1763.39 2040.16,1712.95 2565,1712.95ZM1669.1,1390.21C1704.82,1384.44 1703.66,1407.11 1698.85,1423.37L1609.22,1726.06C1514.56,1738.04 1430.04,1753.22 1356.65,1771.93C1356.65,1771.93 1440.51,1549.87 1473.4,1462.73C1481.78,1440.52 1501.27,1425.38 1524.26,1419.48C1565.74,1408.83 1627.61,1396.91 1669.1,1390.21ZM1366.54,1766.27C1437.89,1748.55 1515.81,1734.74 1606.78,1723.24C1606.78,1723.24 1669.08,1512.12 1695.16,1424.04C1697.17,1417.22 1698.55,1409.28 1696.84,1402.78C1692.1,1398.63 1683.84,1396.68 1670.2,1398.89C1628.71,1405.59 1568.64,1417.19 1527.17,1427.84C1502.17,1434.26 1487.31,1446.6 1478.19,1470.75C1449.52,1546.71 1383.36,1721.74 1366.54,1766.27ZM3460.9,1390.21C3502.39,1396.91 3564.26,1408.83 3605.74,1419.48C3628.73,1425.38 3648.22,1440.52 3656.6,1462.73C3689.49,1549.87 3773.35,1771.93 3773.35,1771.93C3699.96,1753.22 3615.44,1738.04 3520.78,1726.06L3431.15,1423.37C3426.34,1407.11 3425.18,1384.44 3460.9,1390.21ZM3763.46,1766.27C3746.64,1721.74 3680.48,1546.71 3651.81,1470.75C3642.69,1446.6 3627.83,1434.26 3602.83,1427.84C3561.36,1417.19 3501.29,1405.59 3459.8,1398.89C3446.16,1396.68 3437.9,1398.63 3433.16,1402.78C3431.45,1409.28 3432.83,1417.22 3434.84,1424.04C3460.93,1512.12 3523.22,1723.24 3523.22,1723.24C3614.19,1734.74 3692.11,1748.55 3763.46,1766.27ZM1772.46,2523.89L1811.65,2519.96L1819.14,2206.69L1926.44,2199.14L1956.55,2213.88L1949.21,2506.18L1955.4,2505.56L2000.89,2512.46L1999.34,2570.95C1896.94,2577.11 1795.52,2584.88 1697.66,2594.19L1698.4,2569.41L1754.52,2525.72L1772.46,2523.89ZM1935.84,2549.25L1951.75,2510.55L1756.33,2530.12L1707.59,2567.7L1935.84,2549.25ZM1923.63,2203.95L1823.63,2210.99L1816.26,2519.5L1917.37,2509.37L1923.63,2203.95ZM1709.09,2588.57C1779.77,2581.94 1852.26,2576.11 1925.58,2571.11L1935.13,2570.34L1935.13,2553.92L1702.34,2572.74L1702.34,2589.11L1709.09,2588.57ZM1261.12,2849.26L1191.61,2849.26C1211.03,2842.5 1234.61,2835.88 1262.05,2829.44L1261.12,2849.26ZM1679.92,3163.11C1493.96,3176.11 1323.39,3192.25 1189.58,3210.06C1178.27,3211.57 1167.22,3213.09 1156.46,3214.61L1159.3,3166.68L1112.84,3169.15L1130.66,2896.76C1131.24,2887.84 1136.46,2879.68 1145.85,2872.11C1155.58,2864.26 1169.7,2857.1 1187.93,2850.55L1170.06,3208.07C1176.27,3207.21 1182.58,3206.36 1188.97,3205.51C1207.6,3203.03 1226.94,3200.58 1246.98,3198.16L1264.19,2830.12L1332.77,2830.12L1317.03,3190.15C1339.57,3187.7 1362.76,3185.3 1386.53,3182.94L1402.1,2803.24L1477.68,2803.24L1463.66,3175.67C1484.04,3173.83 1504.76,3172.04 1525.79,3170.28L1539.37,2784.88L1542.38,2784.53L1620.63,2784.53L1609.05,3163.65C1627.49,3162.25 1646.09,3160.88 1664.86,3159.55L1676.31,2770.87L1681.95,2770.36L1766.77,2770.36L1758.16,3083.4L1758,3081.1L1739.72,3082.38L1680.69,3128.35L1679.92,3163.11ZM1816.19,2230.7L1815.96,2243.33L1689.68,2243.33L1689.19,2260.05L1557.65,2260.05C1635.02,2248.94 1721.79,2239.06 1816.19,2230.7ZM3574.32,2260.33C3622.49,2267.28 3666.99,2274.7 3707.42,2282.55L3575.11,2282.55L3574.32,2260.33ZM1421.27,2282.8L1419.94,2315.05L1286.92,2315.05C1295.76,2312.38 1305,2309.73 1314.65,2307.12C1336.24,2301.28 1359.85,2295.61 1385.35,2290.14C1396.93,2287.65 1408.91,2285.21 1421.27,2282.8ZM1286.1,2315.3L1284.88,2341.43L1215.93,2341.43C1234.92,2332.43 1258.44,2323.71 1286.1,2315.3ZM3143.8,3145.25L3142.16,3075.45L3187.83,3072.81L3193.81,3073.23L3186.41,2742.89L3215.65,2729.79L3323.83,2736.35L3324.36,2760.4L3326.45,2760.55C3359.16,2762.92 3390.98,2765.43 3421.87,2768.07L3324.53,2768.06L3331.55,3082.88L3388.56,3086.87L3444.76,3130.63L3445.47,3162.78C3348.07,3156.01 3246.49,3150.09 3143.8,3145.25ZM3425.88,3156.81L3440.76,3157.71L3440.24,3133.94L3207.45,3119.89L3207.98,3143.71L3219.47,3144.4C3289.49,3148.08 3358.63,3152.24 3425.88,3156.81ZM3206.68,3115.24L3435.22,3129.03L3386.85,3091.36L3191.34,3077.67L3206.68,3115.24ZM3218.43,2734.56L3225.73,3075.47L3326.94,3082.56L3319.33,2740.69L3218.43,2734.56ZM3031.94,2211.62C3077.16,2213.86 3121.29,2216.42 3164.23,2219.27L3032.11,2220.09L3031.94,2211.62ZM2770.05,2736.75C2790.22,2737.1 2810.26,2737.49 2830.15,2737.93L2770.07,2738.49L2770.05,2736.75ZM2359.93,2738.49L2299.85,2737.93C2319.74,2737.49 2339.77,2737.1 2359.95,2736.75L2359.93,2738.49ZM1823.37,1999.5L1826.43,1859.24L1700.87,1859.24L1700.32,1878.18L1569.02,1878.18L1568.08,1903.32L1436.71,1903.32L1435.09,1939.85L1303.55,1939.85L1302.02,1969.82L1233.89,1969.82L1233.89,1968.7C1239.34,1965.57 1245.23,1962.47 1251.52,1959.4C1351.91,1910.46 1558.79,1869.62 1826.79,1843.01L1827.16,1826.63L1934.74,1816.54L1964.75,1827.11L1961.35,1983.09L1967.61,1982.34L2012.65,1987.73L2011.64,2038.3C2007.2,2038.59 2002.75,2038.89 1998.31,2039.19L1949.89,2042.74L1718.87,2063.68C1715.84,2064.01 1712.83,2064.34 1709.84,2064.67L1710.01,2045.33L1766.89,2006.21L1823.37,1999.5ZM1932.1,1821.41L1831.66,1830.82L1827.98,1998.95L1928.49,1987.08L1932.1,1821.41ZM1948.17,2021.38L1963.81,1987.43L1768.56,2010.64L1720.94,2043.39L1948.17,2021.38ZM1947.41,2038.23L1947.41,2026.08L1714.61,2048.62L1714.61,2059.45L1721.39,2058.83C1793.82,2050.95 1869.31,2044.05 1947.41,2038.23ZM2087.16,2750.58L1989.81,2749.12C2021.71,2747.49 2054.23,2745.99 2087.28,2744.62L2087.16,2750.58ZM3903.03,929.297L4107.18,740.33L4073.54,706.687C4070.04,703.19 4070.04,697.52 4073.54,694.023L4093.84,673.723C4096.39,671.173 4100.22,670.401 4103.56,671.766C4148.93,690.317 4208.88,736.59 4262.01,789.721C4315.14,842.852 4361.42,902.802 4379.97,948.171C4381.33,951.51 4380.56,955.342 4378.01,957.892L4357.71,978.193C4354.21,981.69 4348.54,981.69 4345.05,978.193L4323.49,956.633L4135.73,1161.96L4133.21,1196.77C4133.08,1198.55 4132.42,1200.25 4131.32,1201.66L4023.81,1338.42L4046.98,1361.59C4050.48,1365.09 4050.48,1370.76 4046.98,1374.26L4009.53,1411.71C4006.02,1415.21 4000.33,1415.22 3996.86,1411.71L3940.68,1355.53L3897.45,1359.8C3894.78,1360.06 3892.13,1359.12 3890.23,1357.22L3694.51,1161.5C3692.62,1159.6 3691.67,1156.96 3691.93,1154.29L3696.2,1111.06L3640.02,1054.87C3636.52,1051.37 3636.52,1045.7 3640.02,1042.21L3677.48,1004.75C3680.97,1001.25 3686.64,1001.25 3690.14,1004.75L3726.61,1041.21L3863.37,933.703C3864.77,932.599 3866.47,931.94 3868.25,931.811L3903.03,929.297ZM4113.81,740.458L3904.97,933.767L3868.59,936.397C3867.72,936.46 3866.89,936.78 3866.21,937.317L3726.24,1047.35L3686.89,1008C3685.19,1006.3 3682.43,1006.3 3680.73,1008L3643.27,1045.46C3641.57,1047.16 3641.57,1049.92 3643.27,1051.62L3700.99,1109.34L3696.51,1154.74C3696.38,1156.04 3696.84,1157.33 3697.76,1158.25L3893.49,1353.97C3894.41,1354.89 3895.7,1355.35 3896.99,1355.22L3942.39,1350.74L4000.11,1408.46C4001.81,1410.17 4004.57,1410.16 4006.28,1408.46L4043.73,1371C4045.43,1369.3 4045.43,1366.54 4043.73,1364.84L4017.67,1338.78L4127.7,1198.81C4128.24,1198.13 4128.56,1197.3 4128.62,1196.44L4131.26,1160.04L4323.34,949.983L4348.3,974.941C4350,976.643 4352.76,976.643 4354.46,974.941L4374.76,954.641C4376,953.4 4376.38,951.536 4375.71,949.911C4357.33,904.958 4311.4,845.616 4258.76,792.972C4206.12,740.328 4146.77,694.402 4101.82,676.022C4100.2,675.358 4098.33,675.733 4097.09,676.974L4076.79,697.275C4075.09,698.976 4075.09,701.735 4076.79,703.436L4113.81,740.458ZM4041.47,1368.74L4004.01,1406.19C4003.56,1406.64 4002.83,1406.64 4002.38,1406.19L3645.54,1049.35C3645.09,1048.9 3645.09,1048.17 3645.54,1047.73L3683,1010.27C3683.45,1009.82 3684.17,1009.82 3684.62,1010.27L4041.47,1367.11C4041.91,1367.56 4041.91,1368.29 4041.47,1368.74ZM3861.42,1190.32L3683.81,1012.71L3647.98,1048.54L3825.59,1226.15L3861.42,1190.32ZM4306.09,934.639L4319.38,947.928C4319.82,948.363 4319.83,949.063 4319.42,949.517L4128.14,1158.69L4125.43,1196.2C4125.41,1196.43 4125.32,1196.65 4125.18,1196.83L4017.06,1334.37C4016.86,1334.62 4016.56,1334.78 4016.23,1334.8C4015.9,1334.82 4015.58,1334.7 4015.35,1334.47L4002.06,1321.18C4001.65,1320.77 4001.61,1320.11 4001.97,1319.66L4109.87,1182.4L4112.58,1144.84C4112.6,1144.58 4112.71,1144.34 4112.88,1144.15L4304.43,934.676C4304.64,934.445 4304.94,934.31 4305.26,934.303C4305.57,934.296 4305.87,934.417 4306.09,934.639ZM4138.68,768.848L3795.01,1112.51C3794.57,1112.96 3793.84,1112.96 3793.39,1112.51L3730.55,1049.67C3730.32,1049.44 3730.2,1049.12 3730.22,1048.79C3730.24,1048.46 3730.4,1048.16 3730.66,1047.96L3868.19,939.839C3868.37,939.697 3868.59,939.613 3868.82,939.596L3906.33,936.885L4115.51,745.604C4115.96,745.189 4116.66,745.204 4117.09,745.639L4138.68,767.222C4139.12,767.671 4139.12,768.399 4138.68,768.848ZM4370.86,952.373L4099.36,680.868C4098.97,680.481 4098.91,679.874 4099.22,679.418C4099.52,678.963 4100.1,678.784 4100.61,678.991C4145.27,697.252 4204.19,742.936 4256.49,795.24C4308.8,847.544 4354.48,906.463 4372.74,951.125C4372.95,951.632 4372.77,952.214 4372.31,952.517C4371.86,952.821 4371.25,952.76 4370.86,952.373ZM4254.87,796.866C4204.91,746.911 4148.92,702.987 4105.2,683.458L4236.74,814.995L4254.87,796.866ZM4369.73,955.134L4352.19,972.674C4351.74,973.122 4351.01,973.122 4350.57,972.674L4079.06,701.168C4078.61,700.719 4078.61,699.991 4079.06,699.543L4096.6,682.003C4097.05,681.554 4097.78,681.554 4098.22,682.003L4369.73,953.508C4370.18,953.957 4370.18,954.685 4369.73,955.134ZM4232.35,819.381L4097.41,684.441L4081.5,700.355L4216.44,835.295L4232.35,819.381ZM4303.37,933.464L4111.05,1143.77L4108.33,1181.43C4108.31,1181.77 4108.18,1182 4108.02,1182.15L4000.99,1318.3C4000.79,1318.56 4000.49,1318.71 4000.16,1318.73C3999.83,1318.75 3999.51,1318.63 3999.28,1318.4L3939.22,1258.34C3938.77,1257.89 3938.77,1257.17 3939.22,1256.72L4282.89,913.056C4283.33,912.607 4284.06,912.607 4284.51,913.056L4303.33,931.876C4303.77,932.31 4303.78,933.01 4303.37,933.464ZM4106.06,1180.93L4108.79,1143.21C4108.81,1142.95 4108.91,1142.71 4109.09,1142.52L4300.93,932.724L4283.7,915.495L3941.66,1257.53L3999.99,1315.86L4106.06,1180.93ZM3934.67,1253.79L3797.94,1117.06C3797.49,1116.61 3797.49,1115.88 3797.94,1115.43L4141.6,771.772C4142.05,771.323 4142.78,771.323 4143.23,771.772L4279.96,908.506C4280.41,908.955 4280.41,909.683 4279.96,910.131L3936.3,1253.79C3935.85,1254.24 3935.12,1254.24 3934.67,1253.79ZM3867.83,1183.7L4209.87,841.667L4142.41,774.211L3800.38,1116.25L3867.83,1183.7ZM3935.14,1348.23L3896.68,1352.03C3896.34,1352.07 3896,1351.94 3895.75,1351.7L3700.03,1155.98C3699.79,1155.74 3699.67,1155.4 3699.7,1155.06L3703.5,1116.59C3703.54,1116.15 3703.84,1115.77 3704.26,1115.62C3704.68,1115.47 3705.14,1115.58 3705.46,1115.89L3935.84,1346.28C3936.15,1346.59 3936.26,1347.06 3936.11,1347.48C3935.96,1347.89 3935.58,1348.19 3935.14,1348.23ZM3819.02,1232.71L3705.55,1119.24L3702.04,1154.74L3799.52,1252.21L3819.02,1232.71ZM3914.16,2145.75L3912.84,2115.9L3955.47,2115.59C3955.47,2115.59 3950.07,2023.45 3950.03,2023.03L3991.15,1987.11L4034.09,2029.16L4040.17,2115.07L4049.95,2115.01L4130.6,2159.35L4212.2,2227.25L4205.67,2248.64C4236.54,2270.69 4264.39,2292.83 4288.87,2313.55C4301.82,2324.52 4310.9,2334.27 4317.29,2342.99C4327.55,2355.98 4332.81,2369.25 4332.83,2382.68C4333.22,2387.11 4333.39,2403.2 4333.11,2407.06C4331.22,2433.48 4309.91,2459.37 4270.64,2483.87C4227.77,2510.62 4161.4,2536.72 4077.95,2559.98L4065.08,2378.72L4016.05,2347.23L3971.83,2386.22C3970.24,2379.27 3966.11,2372.37 3959.48,2365.59C3947.82,2353.66 3928.26,2341.97 3901.5,2330.73C3798.93,2287.67 3589.6,2250.59 3315.94,2226.28L3315.36,2202.4L3202.65,2194.47L3168.78,2211.05L3168.88,2214.97C2986.13,2202.73 2781.46,2195.81 2565,2195.81C2348.54,2195.81 2143.87,2202.73 1961.12,2214.97L1961.22,2211.05L1927.35,2194.47L1814.64,2202.4L1814.06,2226.28C1540.4,2250.59 1331.07,2287.67 1228.5,2330.73C1201.74,2341.97 1182.18,2353.66 1170.52,2365.59C1163.89,2372.37 1159.76,2379.27 1158.17,2386.22L1113.95,2347.23L1064.92,2378.72L1052.05,2559.98C968.601,2536.72 902.234,2510.62 859.365,2483.87C820.091,2459.37 798.785,2433.48 796.892,2407.06C796.615,2403.2 796.785,2387.11 797.167,2382.68C797.192,2369.25 802.449,2355.98 812.706,2342.99C819.101,2334.27 828.178,2324.52 841.132,2313.55C865.615,2292.83 893.457,2270.69 924.327,2248.64L917.799,2227.25L999.4,2159.35L1080.05,2115.01L1089.83,2115.07L1095.91,2029.16L1138.85,1987.11L1179.97,2023.03C1179.93,2023.45 1174.53,2115.59 1174.53,2115.59L1217.16,2115.9L1215.84,2145.75C1125.05,2167.2 1046.87,2190.86 983.593,2216.25C978.213,2218.43 973.051,2221.12 968.178,2224.28C927.581,2250.65 891.378,2278.03 859.961,2303.84C893.105,2283.62 938.896,2264.26 995.849,2246.03C1289.81,2151.95 1882.75,2087.56 2565,2087.56C3247.25,2087.56 3840.19,2151.95 4134.15,2246.03C4191.1,2264.26 4236.9,2283.62 4270.04,2303.84C4238.62,2278.03 4202.42,2250.65 4161.82,2224.28C4156.95,2221.12 4151.79,2218.43 4146.41,2216.25C4083.14,2190.86 4004.95,2167.2 3914.16,2145.75ZM4136.25,2207.34C4140.4,2208.94 4144.51,2210.56 4148.56,2212.18C4153.92,2214.36 4159.07,2217.04 4163.93,2220.19C4176.98,2228.66 4189.58,2237.23 4201.72,2245.83L4206.82,2229.14L4141.54,2191.63L4136.25,2207.34ZM4073.45,2133.14L4141.54,2186.33L4187.64,2212.82L4127.94,2163.14L4073.45,2133.14ZM993.746,2207.34L988.464,2191.63L923.183,2229.14L928.277,2245.83C940.421,2237.23 953.024,2228.66 966.068,2220.19C970.93,2217.04 976.079,2214.36 981.445,2212.18C985.492,2210.56 989.6,2208.94 993.746,2207.34ZM2565,2113.98C3508.23,2113.98 4280.46,2237.01 4328.57,2391.58C4328.5,2387.89 4328.39,2384.58 4328.24,2382.99C4327.35,2373.15 4324.88,2360.88 4313,2344.95C4308.34,2339.19 4302.64,2333.48 4295.94,2327.83C4263.52,2300.44 4207.93,2274.47 4132.75,2250.41C3839.05,2156.41 3246.64,2092.16 2565,2092.16C1883.36,2092.16 1290.95,2156.41 997.251,2250.41C922.067,2274.47 866.478,2300.44 834.056,2327.83C827.362,2333.48 821.663,2339.19 817.002,2344.95C805.123,2360.88 802.65,2373.15 801.755,2382.99C801.611,2384.58 801.496,2387.89 801.426,2391.58C849.539,2237.01 1621.77,2113.98 2565,2113.98ZM1100.46,2030.11L1094.43,2115L1128.17,2115L1136.7,1994.78L1100.46,2030.11ZM4029.54,2030.11L3993.3,1994.78L4001.83,2115L4035.57,2115L4029.54,2030.11ZM1056.55,2133.14L1002.06,2163.14L942.357,2212.82L988.463,2186.33L1056.55,2133.14ZM2906.35,2739.86C2933.48,2740.64 2960.3,2741.51 2986.79,2742.46L2906.4,2743.33L2906.35,2739.86ZM3027.36,2211.39L2898.73,2211.94L2898.64,2206.07C2933.7,2207.26 2968.24,2208.64 3002.22,2210.2L3009.81,2210.55L3018.91,2210.98L3027.36,2211.39ZM2364.58,2202.48L2364.54,2206.23L2237.81,2205.85C2279.4,2204.47 2321.68,2203.34 2364.58,2202.48ZM2364.58,2202.48C2404.62,2201.73 2456.68,2200.99 2497.75,2200.73L2497.74,2202.44L2364.58,2202.48ZM3342.04,1999.08L3338.26,1861.51L3426.89,1861.51L3432.78,2061.51C3451.24,2063.6 3469.49,2065.74 3487.49,2067.95L3481.77,1880.51L3558.76,1880.48L3565.72,2078.11C3585.9,2080.89 3605.77,2083.74 3625.35,2086.68L3618.54,1905.62L3691.08,1905.62L3698.99,2098.36C3721.74,2102.16 3744,2106.08 3765.76,2110.11L3758.42,1942.15L3824.26,1942.15L3832.73,2123.17C3858.21,2128.41 3882.89,2133.81 3906.74,2139.36L3898.26,1969.95C3910.27,1977 3920.12,1984.21 3927.69,1991.56C3938.72,2002.29 3944.87,2013.27 3945.54,2024.55L3950.6,2111.03L3908.04,2111.33L3909.51,2144.66C3773.44,2112.76 3609.32,2085.77 3424.76,2065.18L3424.57,2042.9L3364.78,2001.78L3342.04,1999.08ZM1673.8,2782.23L1562.75,2782.23C1598.12,2778.32 1635.27,2774.59 1674.04,2771.07L1673.8,2782.23ZM1969.17,1834.78L2076.57,1834.82L2072.39,2029.96C2082.91,2029.35 2093.41,2028.77 2103.94,2028.2L2108.03,1826.1L2214.3,1826.1L2211.28,2023.13C2219.56,2022.8 2227.87,2022.47 2236.19,2022.16L2239.11,1819.99L2352.15,1819.99L2350.31,2018.64L2356.14,2018.5L2364.03,2018.32L2368.35,2018.22L2370.1,1816.01L2489.92,1816.03L2489.28,2016.38C2493,2016.35 2496.73,2016.32 2500.46,2016.3L2501.04,1814.07L2628.96,1814.07L2629.54,2016.3C2633.27,2016.32 2637,2016.35 2640.72,2016.38L2640.08,1816.03L2759.9,1816.01L2761.65,2018.22L2765.97,2018.32L2773.86,2018.5L2779.69,2018.64L2777.85,1819.99L2890.89,1819.99L2893.81,2022.16C2902.13,2022.47 2910.44,2022.8 2918.72,2023.13L2915.7,1826.1L3021.97,1826.1L3026.06,2028.2C3036.59,2028.77 3047.09,2029.35 3057.61,2029.96L3053.43,1834.82L3160.83,1834.78L3164,1977.9L3162.39,1977.71L3112.66,1983.66L3113.76,2038C2941.15,2026.75 2756.27,2020.67 2565,2020.67C2373.73,2020.67 2188.85,2026.75 2016.24,2038L2017.34,1983.66L1967.61,1977.71L1966,1977.9L1969.17,1834.78ZM1398.91,2827.82L1269.03,2827.82C1306.21,2819.34 1350.07,2811.19 1399.91,2803.49L1398.91,2827.82ZM3042.72,2744.62C3075.79,2745.99 3108.3,2747.49 3140.19,2749.12L3042.84,2750.58L3042.72,2744.62ZM1226.97,929.297L1261.75,931.811C1263.53,931.94 1265.23,932.599 1266.63,933.703L1403.39,1041.21L1439.86,1004.75C1443.36,1001.25 1449.03,1001.25 1452.52,1004.75L1489.98,1042.21C1493.48,1045.7 1493.48,1051.37 1489.98,1054.87L1433.8,1111.06L1438.07,1154.29C1438.33,1156.96 1437.38,1159.6 1435.49,1161.5L1239.77,1357.22C1237.87,1359.12 1235.22,1360.06 1232.55,1359.8L1189.32,1355.53L1133.14,1411.71C1129.67,1415.22 1123.98,1415.21 1120.47,1411.71L1083.02,1374.26C1079.52,1370.76 1079.52,1365.09 1083.02,1361.59L1106.19,1338.42L998.681,1201.66C997.577,1200.25 996.918,1198.55 996.79,1196.77L994.274,1161.96L806.513,956.633L784.954,978.193C781.457,981.69 775.788,981.69 772.291,978.193L751.99,957.892C749.44,955.342 748.668,951.51 750.034,948.171C768.584,902.802 814.857,842.852 867.988,789.721C921.119,736.59 981.069,690.317 1026.44,671.766C1029.78,670.401 1033.61,671.173 1036.16,673.723L1056.46,694.023C1059.96,697.52 1059.96,703.19 1056.46,706.687L1022.82,740.33L1226.97,929.297ZM1016.19,740.458L1053.21,703.436C1054.91,701.735 1054.91,698.976 1053.21,697.275L1032.91,676.974C1031.67,675.733 1029.8,675.358 1028.18,676.022C983.226,694.402 923.883,740.328 871.239,792.972C818.596,845.616 772.67,904.958 754.289,949.911C753.625,951.536 754.001,953.4 755.241,954.641L775.542,974.941C777.243,976.643 780.002,976.643 781.703,974.941L806.662,949.983L998.744,1160.04L1001.38,1196.44C1001.44,1197.3 1001.76,1198.13 1002.3,1198.81L1112.33,1338.78L1086.27,1364.84C1084.57,1366.54 1084.57,1369.3 1086.27,1371L1123.73,1408.46C1125.43,1410.16 1128.19,1410.17 1129.89,1408.46L1187.61,1350.74L1233.01,1355.22C1234.31,1355.35 1235.59,1354.89 1236.52,1353.97L1432.24,1158.25C1433.16,1157.33 1433.62,1156.04 1433.49,1154.74L1429.01,1109.34L1486.73,1051.62C1488.43,1049.92 1488.43,1047.16 1486.73,1045.46L1449.27,1008C1447.57,1006.3 1444.81,1006.3 1443.11,1008L1403.76,1047.35L1263.79,937.317C1263.11,936.78 1262.28,936.46 1261.41,936.397L1225.03,933.767L1016.19,740.458ZM1088.54,1368.74C1088.09,1368.29 1088.09,1367.56 1088.54,1367.11L1445.38,1010.27C1445.83,1009.82 1446.55,1009.82 1447,1010.27L1484.46,1047.73C1484.91,1048.17 1484.91,1048.9 1484.46,1049.35L1127.62,1406.19C1127.17,1406.64 1126.44,1406.64 1125.99,1406.19L1088.54,1368.74ZM1268.58,1190.32L1304.41,1226.15L1482.02,1048.54L1446.19,1012.71L1268.58,1190.32ZM760.27,955.134C759.821,954.685 759.821,953.957 760.27,953.508L1031.78,682.003C1032.22,681.554 1032.95,681.554 1033.4,682.003L1050.94,699.543C1051.39,699.991 1051.39,700.719 1050.94,701.168L779.435,972.674C778.986,973.122 778.259,973.122 777.81,972.674L760.27,955.134ZM897.648,819.381L913.562,835.295L1048.5,700.355L1032.59,684.441L897.648,819.381ZM823.906,934.639C824.128,934.417 824.431,934.296 824.745,934.303C825.058,934.31 825.356,934.445 825.567,934.676L1017.12,1144.15C1017.29,1144.34 1017.4,1144.58 1017.42,1144.84L1020.13,1182.4L1128.03,1319.66C1128.39,1320.11 1128.35,1320.77 1127.94,1321.18L1114.65,1334.47C1114.42,1334.7 1114.1,1334.82 1113.77,1334.8C1113.44,1334.78 1113.14,1334.62 1112.94,1334.37L1004.82,1196.83C1004.68,1196.65 1004.59,1196.43 1004.57,1196.2L1001.86,1158.69L810.582,949.517C810.167,949.063 810.183,948.363 810.617,947.928L823.906,934.639ZM826.634,933.464C826.219,933.01 826.235,932.31 826.67,931.876L845.489,913.056C845.938,912.607 846.666,912.607 847.115,913.056L1190.78,1256.72C1191.23,1257.17 1191.23,1257.89 1190.78,1258.34L1130.72,1318.4C1130.49,1318.63 1130.17,1318.75 1129.84,1318.73C1129.51,1318.71 1129.21,1318.56 1129.01,1318.3L1021.98,1182.15C1021.82,1182 1021.7,1181.77 1021.67,1181.43L1018.95,1143.77L826.634,933.464ZM1023.94,1180.93L1130.01,1315.86L1188.34,1257.53L846.302,915.495L829.073,932.724L1020.91,1142.52C1021.09,1142.71 1021.19,1142.95 1021.21,1143.21L1023.94,1180.93ZM1195.33,1253.79C1194.88,1254.24 1194.15,1254.24 1193.7,1253.79L850.04,910.131C849.591,909.683 849.591,908.955 850.04,908.506L986.773,771.772C987.222,771.323 987.95,771.323 988.399,771.772L1332.06,1115.43C1332.51,1115.88 1332.51,1116.61 1332.06,1117.06L1195.33,1253.79ZM1262.17,1183.7L1329.62,1116.25L987.586,774.211L920.13,841.667L1262.17,1183.7ZM1194.86,1348.23C1194.42,1348.19 1194.04,1347.89 1193.89,1347.48C1193.74,1347.06 1193.85,1346.59 1194.16,1346.28L1424.54,1115.89C1424.86,1115.58 1425.32,1115.47 1425.74,1115.62C1426.16,1115.77 1426.46,1116.15 1426.5,1116.59L1430.3,1155.06C1430.33,1155.4 1430.21,1155.74 1429.97,1155.98L1234.25,1351.7C1234,1351.94 1233.66,1352.07 1233.32,1352.03L1194.86,1348.23ZM1310.98,1232.71L1330.48,1252.21L1427.96,1154.74L1424.45,1119.24L1310.98,1232.71ZM991.323,768.848C990.875,768.399 990.875,767.671 991.323,767.222L1012.91,745.639C1013.34,745.204 1014.04,745.189 1014.5,745.604L1223.67,936.885L1261.18,939.596C1261.41,939.613 1261.63,939.697 1261.81,939.839L1399.35,1047.96C1399.6,1048.16 1399.76,1048.46 1399.78,1048.79C1399.8,1049.12 1399.68,1049.44 1399.45,1049.67L1336.61,1112.51C1336.16,1112.96 1335.43,1112.96 1334.99,1112.51L991.323,768.848ZM759.135,952.373C758.748,952.76 758.141,952.821 757.686,952.517C757.23,952.214 757.051,951.632 757.258,951.125C775.52,906.463 821.203,847.544 873.507,795.24C925.811,742.936 984.73,697.252 1029.39,678.991C1029.9,678.784 1030.48,678.963 1030.79,679.418C1031.09,679.874 1031.03,680.481 1030.64,680.868L759.135,952.373ZM875.133,796.866L893.262,814.995L1024.8,683.458C981.078,702.987 925.088,746.911 875.133,796.866ZM1787.96,1999.08L1765.22,2001.78L1705.43,2042.9L1705.24,2065.18C1520.68,2085.77 1356.56,2112.76 1220.49,2144.66L1221.96,2111.33L1179.4,2111.03L1184.46,2024.55C1185.13,2013.27 1191.28,2002.29 1202.31,1991.56C1209.88,1984.21 1219.73,1977 1231.74,1969.95L1223.26,2139.36C1247.11,2133.81 1271.79,2128.41 1297.27,2123.17L1305.74,1942.15L1371.58,1942.15L1364.24,2110.11C1386,2106.08 1408.27,2102.16 1431.01,2098.36L1438.92,1905.62L1511.46,1905.62L1504.65,2086.68C1524.23,2083.74 1544.1,2080.89 1564.28,2078.11L1571.24,1880.48L1648.23,1880.51L1642.51,2067.95C1660.51,2065.74 1678.76,2063.6 1697.22,2061.51L1703.11,1861.51L1791.74,1861.51L1787.96,1999.08ZM2765.43,2202.48L2632.26,2202.44L2632.25,2200.73C2673.32,2200.99 2725.38,2201.73 2765.43,2202.48ZM2765.43,2202.48C2808.32,2203.34 2850.6,2204.47 2892.19,2205.85L2765.46,2206.23L2765.43,2202.48ZM2498.37,2735.21C2520.43,2735.09 2542.65,2735.03 2565,2735.03C2587.35,2735.03 2609.57,2735.09 2631.63,2735.21L2632.75,3126.28L2637.06,3126.31L2644.26,3126.37L2643.01,2736.99L2767.86,2736.72L2767.87,2736.72L2771.26,3128.11C2777.49,3128.23 2783.72,3128.36 2789.97,3128.48L2786.38,2740.71L2904.15,2739.8L2904.17,2739.8L2909.83,3131.55L2916.75,3131.76L2928.39,3132.12L2935.73,3132.36L2929.8,2745.46L3035.52,2744.33L3040.53,2744.53L3048.46,3136.45C3059.4,3136.89 3070.35,3137.35 3081.31,3137.82L3073.07,2752.56L3167.88,2750.58C3172.62,2750.83 3177.32,2751.09 3182,2751.35L3189.1,3068.29L3187.86,3068.21L3137.46,3071.11L3139.2,3145.03C2944.66,3135.91 2746.34,3130.65 2565,3130.65C2383.66,3130.65 2185.34,3135.91 1990.81,3145.03L1992.54,3071.11L1942.14,3068.21L1940.9,3068.29L1948,2751.35C1952.68,2751.09 1957.38,2750.83 1962.12,2750.58L2056.93,2752.56L2048.69,3137.82C2059.65,3137.35 2070.6,3136.89 2081.54,3136.45L2089.47,2744.53L2094.48,2744.33L2200.2,2745.46L2194.27,3132.36L2201.61,3132.12L2213.25,3131.76L2220.18,3131.55L2225.83,2739.8L2225.85,2739.8L2343.62,2740.71L2340.03,3128.48C2346.28,3128.36 2352.51,3128.23 2358.74,3128.11L2362.13,2736.72L2362.14,2736.72L2486.99,2736.99L2485.74,3126.37L2492.94,3126.31L2497.25,3126.28L2498.37,2735.21ZM1960.95,2221.62L2068.28,2222.28L2060.99,2562.86C2071.69,2562.28 2082.43,2561.72 2093.17,2561.18L2100.19,2213.73L2208.35,2214.2L2203.11,2556.25C2211.6,2555.92 2220.05,2555.6 2228.49,2555.29L2233.51,2208.18L2348.55,2208.52L2345.38,2551.72L2351.57,2551.57L2358.79,2551.41L2363.73,2551.29L2366.74,2204.56L2488.68,2204.73L2487.58,2549.34L2494.39,2549.28L2498.92,2549.24L2499.92,2202.78L2630.08,2202.78L2631.08,2549.24L2635.61,2549.28L2642.42,2549.34L2641.32,2204.73L2763.26,2204.56L2766.27,2551.29L2771.21,2551.41L2778.43,2551.57L2784.62,2551.72L2781.45,2208.52L2896.49,2208.18L2901.51,2555.29C2909.95,2555.6 2918.4,2555.92 2926.89,2556.25L2921.65,2214.2L3029.81,2213.73L3036.83,2561.18C3047.57,2561.72 3058.31,2562.28 3069.01,2562.86L3061.72,2222.28L3169.05,2221.62L3176.06,2501.09L3174.49,2500.93L3124.4,2508.52L3126.05,2570.68C2936.94,2559.39 2744.61,2553.59 2565,2553.59C2385.39,2553.59 2193.06,2559.39 2003.95,2570.68L2005.6,2508.52L1955.51,2500.93L1953.94,2501.09L1960.95,2221.62ZM3592.82,2785.13C3635.9,2790.13 3676.17,2795.42 3713.34,2800.95L3593.38,2800.95L3592.82,2785.13ZM3118.36,2038.3L3117.35,1987.73L3162.39,1982.34L3168.66,1983.09L3165.25,1827.11L3195.26,1816.54L3302.84,1826.63L3303.21,1843.01C3571.21,1869.62 3778.09,1910.46 3878.48,1959.4C3884.77,1962.47 3890.66,1965.57 3896.11,1968.7L3896.11,1969.82L3827.98,1969.82L3826.45,1939.85L3694.91,1939.85L3693.29,1903.32L3561.93,1903.32L3560.98,1878.18L3429.68,1878.18L3429.13,1859.24L3303.57,1859.24L3306.53,1994.86L3305.48,1994.73L3304.93,1999.3L3363.11,2006.21L3419.99,2045.33L3420.16,2064.67C3417.14,2064.34 3414.14,2064.01 3411.13,2063.68L3180.11,2042.74L3131.69,2039.19C3127.25,2038.89 3122.8,2038.59 3118.36,2038.3ZM3182.59,2038.23C3260.69,2044.05 3336.18,2050.95 3408.61,2058.83L3415.39,2059.45L3415.39,2048.62L3182.59,2026.08L3182.59,2038.23ZM3197.9,1821.41L3201.51,1987.08L3302.02,1998.95L3298.34,1830.82L3197.9,1821.41ZM3181.83,2021.38L3409.06,2043.39L3361.44,2010.64L3166.19,1987.43L3181.83,2021.38ZM4040.83,3443.69C4041.76,3443.9 4055.95,3447.01 4061.76,3448.99C4082.89,3456.18 4100.89,3481.67 4102.34,3506.92C4102.55,3510.64 4102.39,3514.15 4101.9,3517.42C4100.63,3525.92 4095.65,3543.81 4091.1,3550.93C4083.09,3563.47 4067.12,3569.48 4050.53,3564.68C4022.54,3556.59 3998.27,3523.08 3996.36,3489.89C3994.53,3457.82 4014.24,3437.71 4040.83,3443.69ZM4060.3,3454.04C4041.02,3448.47 4026.43,3462.5 4027.74,3485.36C4029.05,3508.22 4045.77,3531.3 4065.05,3536.87C4084.32,3542.44 4098.91,3528.41 4097.6,3505.55C4096.29,3482.69 4079.57,3459.61 4060.3,3454.04ZM1317.07,4525.78C1344.58,4542.09 1367.46,4566.11 1382.89,4596.37C1386.63,4603.7 1395.92,4626.61 1397.48,4630.6C1430.49,4715.24 1393.27,4813.8 1307.76,4856.55C1218.02,4901.41 1110,4867.46 1066.7,4780.79C1064.87,4777.14 1061.3,4768.84 1057.91,4760.72C1103.78,4838.74 1205.41,4867.88 1290.43,4825.38C1379.04,4781.08 1416.26,4675.64 1373.5,4590.06C1360.12,4563.27 1340.46,4541.57 1317.07,4525.78ZM4050.16,4066.29L3992.36,3601.51C3992.31,3601.15 3992.45,3600.78 3992.71,3600.53C3992.98,3600.28 3993.35,3600.17 3993.71,3600.24L4128.32,3625.33C4128.79,3625.42 4129.16,3625.79 4129.24,3626.27L4216.38,4133.54L4215.71,4133.39C4208.38,4131.74 4200.99,4130.54 4193.51,4129.8L4193.32,4129.78L4074.55,3662.76L4000.55,3648.75L4052.32,4064.95L4052.18,4065.02C4051.56,4065.36 4050.96,4065.73 4050.38,4066.14L4050.16,4066.29ZM3867.01,4250.81L3852.57,4273.86C3854.9,4267.49 3857.01,4261.03 3858.42,4254.33L3867.01,4250.81ZM1092.69,3443.05C1104.13,3441.42 1114.12,3444.75 1121.37,3451.83C1128.63,3458.9 1133.16,3469.72 1133.7,3483.06C1120.85,3468.89 1107.15,3455.53 1092.69,3443.05ZM3526.23,4312.7L3661.06,4314.03C3665.19,4314.08 3668.78,4316.86 3669.85,4320.85C3670.91,4324.84 3669.19,4329.05 3665.64,4331.15C3612.18,4363.43 3566.87,4406.22 3533.07,4456.47C3530.85,4459.86 3526.66,4461.39 3522.77,4460.22C3518.89,4459.05 3516.23,4455.46 3516.25,4451.4C3516.43,4412.57 3516.81,4345.03 3516.94,4321.85C3516.96,4319.4 3517.94,4317.06 3519.69,4315.35C3521.43,4313.63 3523.78,4312.68 3526.23,4312.7ZM3661.24,4331.14C3659.79,4329.7 3657.81,4328.83 3655.67,4328.81L3520.84,4327.48C3520.29,4327.48 3519.74,4327.53 3519.21,4327.63C3519.06,4354.77 3518.72,4415.43 3518.55,4451.41C3518.53,4454.46 3520.52,4457.15 3523.43,4458.02C3526.35,4458.9 3529.49,4457.75 3531.15,4455.2L3531.16,4455.19C3564.47,4405.68 3608.88,4363.36 3661.24,4331.14ZM4110.18,3997.3C4111.01,3997.49 4123.69,4000.26 4128.88,4002.03C4147.77,4008.46 4163.85,4031.24 4165.15,4053.81C4165.34,4057.13 4165.2,4060.27 4164.76,4063.2C4163.62,4070.79 4159.17,4086.78 4155.11,4093.14C4147.94,4104.35 4133.67,4109.72 4118.85,4105.43C4093.83,4098.2 4072.14,4068.25 4070.44,4038.59C4068.8,4009.93 4086.42,3991.95 4110.18,3997.3ZM4127.58,4006.55C4110.35,4001.57 4097.31,4014.11 4098.48,4034.54C4099.65,4054.97 4114.59,4075.6 4131.82,4080.57C4149.05,4085.55 4162.09,4073.01 4160.91,4052.58C4159.74,4032.16 4144.81,4011.53 4127.58,4006.55ZM700.114,4250.09C931.171,4274.53 1144.73,4108.43 1176.72,3879.39C1208.7,3650.36 1047.09,3444.57 816.029,3420.13C584.972,3395.69 371.413,3561.79 339.426,3790.82C307.438,4019.86 469.057,4225.64 700.114,4250.09ZM763.151,4240.22C541.785,4250 360.302,4078.36 358.13,3857.16C355.959,3635.96 533.916,3448.43 755.282,3438.65C976.647,3428.87 1158.13,3600.51 1160.3,3821.72C1162.47,4042.91 984.516,4230.44 763.151,4240.22ZM930.977,4077.05C992.073,4032.35 1036.14,3964.78 1047.96,3886.05C1070.86,3733.52 964.117,3596.47 809.749,3580.2C655.381,3563.92 511.464,3674.53 488.567,3827.06C465.671,3979.59 572.409,4116.63 726.777,4132.91C762.282,4136.65 797.234,4133.69 830.296,4125.04C812.157,4129.62 793.34,4132.44 774.058,4133.28C623.305,4139.91 500.912,4023.57 500.912,3873.63C500.912,3723.69 623.305,3596.58 774.058,3589.95C924.812,3583.32 1047.2,3699.67 1047.2,3849.6C1047.2,3941.47 1001.26,4024.77 930.977,4077.05ZM884.452,3976.26C914.125,3948.52 934.292,3910.38 938.358,3867.56C946.909,3777.55 881.064,3700.77 791.412,3696.22C701.76,3691.66 622.032,3761.05 613.482,3851.06C604.932,3941.08 670.776,4017.86 760.428,4022.41C776.225,4023.21 791.713,4021.72 806.568,4018.22C798.047,4020.07 789.29,4021.22 780.356,4021.61C695.193,4025.36 626.051,3958.69 626.051,3872.82C626.051,3786.95 695.193,3714.2 780.356,3710.46C865.519,3706.71 934.661,3773.38 934.661,3859.25C934.661,3904.68 915.305,3946.44 884.452,3976.26ZM3891.37,4220.55L3738.19,4465.24C3730.43,4477.63 3733.57,4495.34 3745.06,4504.38L3790.89,4540.44L3791.98,4538.27L3752.75,4507.41C3743.51,4500.15 3741.24,4487.09 3747.48,4477.13L3901.58,4231.32C3902.55,4229.77 3904.35,4228.94 3906.15,4229.21L4024.17,4246.87C4026.23,4242.4 4028.38,4238.02 4030.62,4233.68L3903.98,4214.74C3899,4214 3894.05,4216.28 3891.37,4220.55ZM3950.04,4465.18C3970.19,4434.02 3996.87,4392.82 4006.17,4378.64L3907.34,4423.77L3915.61,4459.95C3927.34,4460.84 3938.84,4462.61 3950.04,4465.18ZM3917.47,4457.8L3911.44,4431.4C3912.76,4431.46 3914.09,4431.54 3915.41,4431.63C3932.1,4432.69 3948.4,4435.06 3964.22,4438.62C3958.59,4447.27 3953.27,4455.49 3948.74,4462.53C3938.53,4460.27 3928.1,4458.67 3917.47,4457.8ZM3956.44,4403.88C3965.35,4405.64 3974.13,4407.76 3982.74,4410.22C3977.51,4418.21 3972.11,4426.5 3966.89,4434.51C3950.35,4430.69 3933.24,4428.16 3915.7,4427.04C3913.93,4426.92 3912.15,4426.82 3910.38,4426.74L3910,4425.08L3956.44,4403.88ZM3986.67,4224.78L4031.74,4231.52C4036.37,4222.72 4041.37,4214.08 4046.78,4205.29L4001.5,4201.32L3986.67,4224.78ZM4256.35,4150.8L4281.69,4111.17C4285.45,4105.28 4283.73,4097.44 4277.84,4093.68C4271.95,4089.91 4264.11,4091.64 4260.35,4097.52L4232.77,4140.66C4236.31,4141.87 4239.79,4143.2 4243.21,4144.64L4270.03,4102.68C4271.74,4100.01 4275.3,4099.22 4277.97,4100.93C4280.64,4102.64 4281.43,4106.2 4279.72,4108.87L4253.75,4149.48C4254.62,4149.91 4255.49,4150.36 4256.35,4150.8ZM3980.04,4254.04L3969.19,4252.42L3895,4369.76L3900.53,4393.98L4011.73,4343.2C4010.08,4335.68 4009,4328.14 4008.54,4320.71C4002.19,4312.6 3997.15,4303.42 3993.7,4293.46L3980.04,4254.04ZM4118.91,4530.07L4112.91,4537.43L4103.89,4548.5L4191.66,4524.7L4188.61,4511.17L4118.91,4530.07ZM4020.31,4255.59L3907.77,4238.75L3755.27,4482.02C3751.53,4487.99 3752.89,4495.83 3758.43,4500.19L3796.2,4529.89L3802.52,4517.36L3757.57,4482L3908.44,4241.02L4019.45,4257.61C4019.74,4256.93 4020.02,4256.26 4020.31,4255.59ZM4035.68,4233.22C4027.05,4245.49 4024.66,4267.44 4024.66,4283.81C4024.66,4364.53 4093.96,4434.46 4179.27,4439.92C4229,4443.1 4273.27,4423.67 4301.53,4390.91C4272.87,4417.39 4232.53,4432.45 4187.88,4429.59C4101.04,4424.04 4030.57,4352.8 4030.57,4270.64C4030.57,4257.6 4032.35,4245.06 4035.68,4233.22ZM3822.85,4568.51L3813.83,4561.41L3767.97,4652.39L3783.05,4652.08C3784.1,4628.89 3793.19,4608.76 3807.45,4587.35C3811.33,4581.52 3817.91,4573.54 3822.85,4568.51ZM4115.99,4143.57L4117.61,4142.89L4070.9,4073.16C4069.63,4071.27 4067.9,4069.79 4065.92,4068.82L4115.99,4143.57ZM4043.08,4677.36L4021.08,4672.53C4015.97,4671.41 4012.04,4667.8 4010.3,4663.24C4004.34,4670.55 3999.7,4676.22 3999.29,4676.71C3993.41,4683.78 3986.06,4689.66 3977.66,4693.99L4014,4737.73C4015.23,4736.49 4016.47,4735.18 4017.7,4733.78C4031.17,4718.36 4040.19,4698.71 4043.08,4677.36ZM3843.39,4816.52L3858.36,4770.87C3822.23,4753.23 3794.37,4719.91 3785.68,4681.95L3766.08,4682.36C3740.42,4682.88 3730.61,4660.03 3738.04,4645.29L3789.83,4542.53L3757.48,4517.07C3723.37,4550.26 3702.56,4595.95 3702.56,4647.55C3702.56,4715.32 3738.43,4777.51 3793.18,4816.97C3827.2,4841.5 3868.51,4857.24 3913.03,4860.09C3968.22,4863.62 4018.47,4846.69 4056.01,4816.15C4048.85,4816.31 4041.44,4813.65 4035.36,4806.82L3993.52,4759.84C3971.22,4776.98 3941.6,4786.48 3909.59,4784.44C3907.02,4784.27 3903.63,4784.04 3900.92,4783.73L3870.01,4829.54C3865.84,4835.73 3857.74,4837.9 3851.03,4834.61C3844.33,4831.33 3841.07,4823.61 3843.39,4816.52ZM4145.15,4671.44L4026.99,4645.55C4026.32,4645.4 4025.65,4645.31 4024.98,4645.28L4019.49,4652L4015.76,4656.56L4136.15,4682.91L4145.15,4671.44ZM4206.97,4592.53L4194.7,4538.14L4093.19,4565.67C4101.83,4579.23 4108.94,4593.7 4114.28,4608.83C4120.59,4626.69 4124.43,4645.46 4125.41,4664.76L4146.72,4669.43L4206.97,4592.53ZM4116.2,4607.38C4111.17,4593.31 4104.64,4579.82 4096.77,4567.08L4141.74,4554.89C4146.75,4561.96 4151.4,4569.24 4155.67,4576.73C4164.69,4592.51 4172.02,4609.16 4177.47,4626.46L4145.8,4666.87L4127.61,4662.89C4126.46,4643.74 4122.53,4625.11 4116.2,4607.38ZM4159.3,4573.85C4155.32,4566.93 4151.03,4560.18 4146.44,4553.61L4164.98,4548.58C4167.78,4553.29 4170.44,4558.07 4172.95,4562.92C4180.51,4577.48 4186.78,4592.68 4191.65,4608.37L4180.89,4622.1C4175.37,4605.34 4168.12,4589.19 4159.3,4573.85ZM4187.88,4133.97C4130.47,4130.29 4080.29,4156.66 4053.5,4198.88C4040.38,4219.55 4032.87,4244.03 4032.87,4270.64C4032.87,4351.64 4102.41,4421.82 4188.02,4427.3C4238.84,4430.55 4283.99,4410.26 4312.27,4376.28C4331.59,4353.07 4343.02,4323.47 4343.02,4290.62C4343.02,4209.62 4273.49,4139.44 4187.88,4133.97ZM4192.12,4215.19C4231.94,4217.74 4264.23,4250.42 4264.23,4288.09C4264.23,4303.43 4258.88,4317.26 4249.86,4328.1C4236.68,4343.94 4215.66,4353.41 4191.98,4351.9C4152.16,4349.35 4119.87,4316.67 4119.87,4279C4119.87,4266.57 4123.38,4255.14 4129.51,4245.48C4141.99,4225.8 4165.36,4213.48 4192.12,4215.19ZM4191.98,4217.48C4166.22,4215.84 4143.68,4227.61 4131.59,4246.5C4144.39,4235.47 4161.91,4229.28 4181.22,4230.52C4220.43,4233.03 4252.25,4265.18 4252.25,4302.27C4252.25,4311.72 4250.19,4320.59 4246.45,4328.52C4247.02,4327.9 4247.56,4327.27 4248.09,4326.63C4256.78,4316.19 4261.93,4302.86 4261.93,4288.09C4261.93,4251.57 4230.57,4219.95 4191.98,4217.48ZM4126.54,4256.24C4125.3,4259.32 4124.3,4262.53 4123.58,4265.85C4134.13,4260.63 4146.44,4258.04 4159.57,4258.88C4198.77,4261.39 4230.6,4293.54 4230.6,4330.63C4230.6,4334.41 4230.27,4338.1 4229.64,4341.67C4232.69,4340.02 4235.58,4338.15 4238.28,4336.06C4240.33,4329.93 4241.43,4323.34 4241.43,4316.45C4241.43,4279.36 4209.6,4247.21 4170.4,4244.7C4153.85,4243.64 4138.62,4248.03 4126.54,4256.24ZM4219.1,4510.34L4219.64,4512.75L4291.29,4422.49L4289.95,4421.36L4219.1,4510.34ZM4220.29,4515.63L4237.73,4592.88C4238.72,4597.26 4237.68,4601.86 4234.91,4605.4L4200.86,4648.86L4201.46,4653.7L4274.12,4565.02C4272.28,4561.74 4270.63,4558.33 4269.19,4554.81L4269.18,4554.81C4261.99,4537.22 4253.31,4520.28 4243.27,4504.15C4241.25,4500.91 4239.18,4497.7 4237.05,4494.52L4220.29,4515.63ZM4021.09,4371.82L4008.51,4377.57C4008.51,4377.57 3876.1,4584.71 3872.86,4589.82C3866.55,4599.76 3862.94,4611.54 3862.94,4624.34C3862.94,4645.85 3873.12,4665.78 3889.17,4679.76L4067.24,4430.35C4047.31,4414.67 4031.35,4394.6 4021.09,4371.82ZM3902.51,4718.79L3898.02,4732.48L3902.27,4725.57C3902.99,4723.29 3903.03,4720.96 3902.51,4718.79ZM4286.51,4415.43L4352.39,4471.28C4353.49,4472.21 4351.68,4473.33 4351.68,4473.33C4352.02,4473.33 4352.35,4473.18 4352.56,4472.91L4183.59,4679.14C4183.14,4679.69 4182.65,4679.62 4182.65,4679.62C4182.57,4679.62 4182.48,4679.62 4182.4,4679.6L4177.59,4678.54L4168.6,4690.01L4180.87,4692.7C4185.09,4693.62 4189.48,4692.1 4192.22,4688.75L4366.59,4475.84L4290.12,4411.3C4288.94,4412.7 4287.74,4414.07 4286.51,4415.43ZM4129.86,4690.95L4014.25,4665.65C4016.01,4667.93 4018.54,4669.63 4021.57,4670.29L4127.81,4693.56L4129.86,4690.95ZM3885.38,4462C3877.66,4462.46 3870.07,4463.33 3862.63,4464.58L3827.57,4534.15L3847.12,4549.53C3862.82,4540.64 3882.26,4535.07 3901.78,4533.79L3885.38,4462ZM4054.85,4068.82C4052.76,4069.83 4050.95,4071.42 4049.68,4073.44L3956.81,4220.32L3971.47,4222.51L4053.65,4092.54L4059.25,4100.9L3981.41,4223.99L3984.18,4224.41L4060.68,4103.42L4094.95,4154.57C4099.01,4152.02 4103.2,4149.64 4107.54,4147.47L4054.85,4068.82ZM4012.24,4345.49L3859.73,4415.14C3857.11,4416.34 3854.97,4418.39 3853.68,4420.96L3740.09,4646.32C3733.29,4659.82 3742.54,4680.54 3766.03,4680.06L3839.02,4678.56C3840.98,4678.51 3842.83,4678.03 3844.46,4677.2L3764.57,4678.79C3758.92,4678.9 3753.62,4676.04 3750.62,4671.26C3747.62,4666.47 3747.34,4660.46 3749.9,4655.42L3863.54,4431.35C3864.96,4428.56 3867.27,4426.34 3870.12,4425.04L4015.85,4358.49C4014.47,4354.18 4013.26,4349.84 4012.24,4345.49ZM3878.16,4717.82L3845.58,4817.23C3844.08,4821.81 3845.32,4826.69 3848.51,4829.99L4010.37,4590.07C4010.56,4589.79 4010.72,4589.5 4010.87,4589.2L4082.3,4440.94C4086.2,4443.36 4090.22,4445.62 4094.34,4447.72L4023.29,4595.19C4022.86,4596.09 4022.36,4596.96 4021.81,4597.78L3863.55,4832.36C3865.34,4831.41 3866.91,4830.03 3868.11,4828.26L4026.63,4593.28C4026.97,4592.78 4027.28,4592.25 4027.54,4591.7L4096.41,4448.76C4097.1,4449.09 4097.79,4449.43 4098.48,4449.76L4097.64,4449.35C4089.02,4445.12 4080.68,4440.15 4072.63,4434.47L4073.03,4434.77L4074.53,4435.82L4005.08,4579.94L3876.72,4771.41L3869.41,4778.95L3880.66,4760.68L3896.93,4711.03C3896.08,4710.5 3895.14,4710.05 3894.14,4709.73C3887.5,4707.55 3880.34,4711.17 3878.16,4717.82ZM4026.19,4251.34C4020.73,4266.24 4017.76,4282.3 4017.76,4299.09C4017.76,4380.69 4087.81,4448.75 4174.06,4451.02C4218.05,4452.18 4257.82,4436 4286.23,4409.04C4258.18,4432.06 4220.52,4444.86 4179.12,4442.21C4092.59,4436.68 4022.36,4365.68 4022.36,4283.81C4022.36,4272.57 4023.69,4261.71 4026.19,4251.34ZM4056.21,4114.8L4037.71,4144.06L4038.3,4147.76L4060.6,4150.11L4056.21,4114.8ZM4020.92,4260.09C4014.24,4276.28 4010.58,4293.97 4010.58,4312.56C4010.58,4393.58 4080.14,4461.16 4165.77,4463.42C4214.67,4464.71 4258.32,4444.42 4286.77,4411.68C4258.01,4438.46 4218.09,4454.48 4174,4453.32C4086.48,4451.02 4015.46,4381.89 4015.46,4299.09C4015.46,4285.55 4017.36,4272.47 4020.92,4260.09ZM4230.96,4454.06C4228.14,4455.2 4225.27,4456.27 4222.39,4457.25C4219.53,4458.22 4216.65,4459.11 4213.74,4459.91L4213.7,4459.92C4215.89,4462.48 4218.03,4465.07 4220.15,4467.69L4230.96,4454.06ZM3884.86,4459.73L3879.55,4436.46L3875.98,4438.09L3863.91,4462.04C3870.77,4460.94 3877.76,4460.16 3884.86,4459.73ZM3882.02,4457.61C3877.28,4457.96 3872.59,4458.46 3867.96,4459.11L3877.67,4439.85L3877.93,4439.73L3882.02,4457.61ZM4112.36,4610.29C4106.98,4594.85 4099.73,4580.1 4090.88,4566.3L4088.97,4566.81C4088.97,4566.81 4054.55,4609.04 4040.51,4626.26C4042.67,4632.91 4044.34,4640.19 4045.31,4647.21L4123.08,4664.25C4122.07,4645.64 4118.38,4627.53 4112.36,4610.29ZM3823.76,4729.71C3834.52,4741.65 3847.53,4751.86 3862.06,4759.58L3862.78,4757.37C3853.51,4752.41 3844.89,4746.44 3837.1,4739.63L3887.63,4681.46C3871.12,4667.04 3860.64,4646.5 3860.64,4624.34C3860.64,4611.08 3864.38,4598.89 3870.92,4588.58C3872.44,4586.19 3887.02,4563.36 3902.87,4538.55L3902.3,4536.06C3883.33,4537.26 3864.39,4542.56 3849.09,4551.07L3866.03,4564.41C3872.52,4569.51 3873.64,4578.93 3868.54,4585.42C3863.43,4591.91 3854.02,4593.03 3847.53,4587.92L3847.53,4587.93L3847.42,4587.84L3824.68,4569.95C3805.3,4589.59 3791.05,4616.66 3791.05,4646.59C3791.05,4648.14 3791.05,4650.2 3791.11,4651.87L3838.45,4650.94C3846.71,4650.77 3853.55,4657.33 3853.72,4665.59C3853.88,4673.49 3847.87,4680.1 3840.09,4680.8L3839.92,4680.83C3839.91,4680.83 3839.91,4680.84 3839.91,4680.84L3795.81,4681.74C3801.26,4698.65 3811.54,4716.1 3823.51,4729.43L3823.76,4729.71ZM3968.41,4711.85C3964.4,4716.58 3964.39,4723.68 3968.63,4728.44L4037.08,4805.29C4049.67,4819.43 4068.46,4814.08 4076.82,4803.42L4233.1,4603.98C4235.45,4600.98 4236.32,4597.09 4235.48,4593.38L4205.81,4461.89C4201.85,4462.77 4197.84,4463.51 4193.77,4464.09L4223.05,4593.82C4223.43,4595.51 4223.02,4597.28 4221.95,4598.65L4066.06,4795.85C4063.74,4798.79 4060.25,4800.54 4056.51,4800.65C4052.78,4800.76 4049.18,4799.21 4046.7,4796.42L3969.98,4710.29C3969.88,4710.38 3969.77,4710.47 3969.66,4710.56C3969.21,4710.97 3968.79,4711.4 3968.41,4711.85ZM4058.14,4111.74L4062.95,4150.36L4062.1,4162.71L4080.83,4164.74C4084.71,4161.56 4088.78,4158.59 4093.02,4155.82L4060.74,4107.63L4058.14,4111.74ZM4122.29,4694.71L4045.34,4677.85C4042.1,4701.45 4031.19,4723.15 4015.53,4739.56L4056.08,4785.09L4121.4,4701.74C4121.74,4699.41 4122.03,4697.07 4122.29,4694.71ZM3887.61,4399.89L3881.37,4372.61C3880.56,4369.03 3881.2,4365.27 3883.16,4362.17L3953.99,4250.15L3939.33,4247.96L3872.02,4354.4C3867.41,4361.69 3866.27,4368.04 3868.19,4376.46L3874.87,4405.7L3887.61,4399.89ZM4178.32,4465.58C4175.99,4465.69 4173.65,4465.76 4171.3,4465.77C4159.81,4479.87 4141.68,4502.13 4121.4,4527.02L4188.14,4509.09L4178.32,4465.58ZM4137.91,4510.39C4140.13,4513.05 4142.29,4515.73 4144.41,4518.45L4127.68,4522.95L4137.91,4510.39ZM4093.93,4560.73L4091.47,4563.75L4194.19,4535.9L4193.69,4533.68L4093.93,4560.73ZM4345.31,4288.54C4345.32,4289.23 4345.32,4289.93 4345.32,4290.62C4345.32,4297.94 4344.77,4305.09 4343.69,4312.05L4362.57,4288.26L4345.31,4288.54ZM3823.84,4475.06C3808.49,4480.88 3794.15,4488.46 3781.09,4497.58L3803.57,4515.27L3823.84,4475.06ZM3992.1,4758.25L3990.54,4756.49C3970.18,4768.7 3945.38,4775.04 3918.65,4773.33C3915.27,4773.12 3911.93,4772.78 3908.62,4772.32L3907.19,4774.44C3910.92,4774.98 3914.69,4775.39 3918.5,4775.63C3945.9,4777.38 3971.29,4770.83 3992.1,4758.25ZM3898.4,4394.96L3892.65,4369.8L3892.8,4368.93L3966.7,4252.05L3963.93,4251.64L3890.93,4367.08C3890.28,4368.12 3890.07,4369.37 3890.34,4370.57L3896.15,4395.98L3898.4,4394.96ZM4345.16,4283.74C4345.2,4284.57 4345.23,4285.4 4345.26,4286.24L4367.39,4285.89L4342.87,4316.77C4339.71,4333.37 4333.56,4348.8 4324.98,4362.6L4388.46,4282.87L4345.16,4283.74ZM4186.85,4666.73L4187.35,4670.92L4191.08,4666.38L4190.46,4662.12L4186.85,4666.73ZM3982.61,4254.43L3995.87,4292.71C3998.86,4301.35 4003.09,4309.4 4008.35,4316.64C4008.3,4315.27 4008.28,4313.91 4008.28,4312.56C4008.28,4293.88 4011.92,4276.1 4018.55,4259.8L3982.61,4254.43ZM4124.55,4695.2C4124.44,4696.19 4124.32,4697.18 4124.2,4698.16L4126.23,4695.57L4124.55,4695.2ZM4350.07,4472.33L4293.04,4423.98L4238.55,4492.63C4240.77,4495.93 4242.93,4499.26 4245.03,4502.63C4255.22,4518.96 4264.01,4536.12 4271.31,4553.94C4272.6,4557.09 4274.07,4560.15 4275.69,4563.11L4350.07,4472.33ZM3826.51,4536.24L3820.2,4548.76L3866.04,4584.8C3866.28,4584.55 3866.51,4584.28 3866.73,4584C3871.05,4578.5 3870.1,4570.53 3864.61,4566.21L3826.51,4536.24ZM3923.74,4505.89L3905.2,4424.74L3902.95,4425.77L3921.91,4508.75L3923.74,4505.89ZM4295.73,4404L4374.25,4470.27C4377.13,4472.7 4377.53,4476.99 4375.14,4479.91L4199.33,4694.58C4194.4,4700.6 4186.51,4703.35 4178.9,4701.68L4162.31,4698.05L4160.25,4700.67L4179.16,4704.81C4188.81,4706.93 4198.1,4701.39 4204.36,4693.75L4380.76,4478.45C4385.14,4473.11 4384.43,4465.24 4379.16,4460.77L4301.98,4395.35C4299.65,4398.6 4297.48,4401.6 4295.73,4404ZM4026.71,4643.16C4026.97,4643.2 4027.23,4643.25 4027.48,4643.31L4042.91,4646.69C4042.02,4640.58 4040.58,4634.2 4038.78,4628.38L4026.71,4643.16ZM3916.14,4462.3L3925.48,4503.17C3925.48,4503.17 3935.54,4487.59 3948.71,4467.24C3938.1,4464.84 3927.22,4463.17 3916.14,4462.3ZM3815.98,4557.14L3814.88,4559.31L3848.85,4586.04L3848.95,4586.12L3848.95,4586.12C3851.13,4587.83 3853.69,4588.72 3856.27,4588.82L3815.98,4557.14ZM4211.23,4460.58C4210.18,4460.86 4209.11,4461.12 4208.05,4461.38L4211.83,4478.16L4218.68,4469.53C4216.25,4466.51 4213.77,4463.53 4211.23,4460.58ZM3997.52,4675.24C3999.86,4672.43 4162.67,4472.72 4168.34,4465.77C4167.47,4465.76 4166.59,4465.74 4165.71,4465.72C4161.85,4465.62 4158.03,4465.38 4154.24,4465.03L3976.34,4692.08C3984.58,4687.88 3991.77,4682.15 3997.52,4675.24ZM4020.16,4369.72C4019.26,4367.62 4019.07,4367.12 4019.07,4367.12L3873.93,4433.4C3872.99,4433.84 3872.22,4434.58 3871.74,4435.51L3758.1,4659.58C3757,4661.74 3757.12,4664.32 3758.41,4666.37C3759.7,4668.42 3761.97,4669.64 3764.39,4669.59L3851.27,4667.87C3851.39,4667.14 3851.44,4666.4 3851.42,4665.63C3851.28,4658.65 3845.49,4653.09 3838.5,4653.23L3766.12,4654.72L3764.2,4654.77L3874.11,4436.69L3874.66,4436.16L4020.16,4369.72ZM3914.97,4519.62L3894.41,4429.67L3881.68,4435.49L3904.61,4535.83L3909.4,4528.33L3914.97,4519.62ZM3825.37,4472.03L3851.64,4419.89L3851.65,4419.89C3853.18,4416.87 3855.69,4414.46 3858.77,4413.05L3872.74,4406.67L3865.95,4376.97C3863.88,4367.89 3865.1,4361.04 3870.08,4353.17L3936.84,4247.59L3909.59,4243.51L3760.62,4481.47L3779.19,4496.09C3793.22,4486.22 3808.72,4478.1 3825.37,4472.03ZM3868.54,4398.62L3870.08,4405.36L3857.82,4410.96C3854.28,4412.57 3851.4,4415.33 3849.63,4418.78C3849.6,4418.84 3843.61,4430.72 3843.61,4430.72C3823.17,4434.2 3803.51,4439.7 3784.91,4447.01L3808.61,4409.14C3827.83,4403.77 3847.88,4400.2 3868.54,4398.62ZM3823.72,4470.18C3807.76,4476.09 3792.85,4483.85 3779.28,4493.23L3763.65,4480.93C3764.39,4479.75 3765.43,4478.11 3766.74,4476.03L3780.74,4453.66C3799.76,4445.7 3819.96,4439.68 3841.03,4435.85L3823.72,4470.18ZM4344.42,4274.56L4398.06,4273.48C4399.84,4273.44 4401.48,4274.44 4402.28,4276.04C4403.07,4277.64 4402.86,4279.55 4401.75,4280.94L4308.6,4397.94L4309.9,4399.05L4403.86,4280.68C4406.9,4276.84 4407.47,4271.6 4405.3,4267.21C4403.14,4262.82 4398.64,4260.07 4393.74,4260.14L4342.24,4260.96C4343.18,4265.44 4343.91,4269.97 4344.42,4274.56ZM4271.35,4429.95C4260.6,4438.88 4248.51,4446.39 4235.38,4452.19L4212.48,4481.04L4216.5,4498.84L4271.35,4429.95ZM4180.65,4465.45L4209.32,4592.5C4209.44,4593.02 4209.24,4593.36 4208.99,4593.59L4209.12,4593.52L4057.09,4787.53C4056.43,4788.45 4055.78,4788.28 4055.13,4787.48L3987.54,4711.6C3986.54,4710.47 3985.38,4709.57 3984.13,4708.89L4055.28,4788.78C4055.51,4789.03 4055.84,4789.17 4056.18,4789.16C4056.51,4789.15 4056.83,4788.99 4057.04,4788.73L4211.23,4593.67L4182.26,4465.34L4180.65,4465.45ZM1266.38,4258.98L1275.82,4286.27C1285.28,4313.6 1307.17,4334.8 1334.79,4343.38C1444.33,4377.17 1531.66,4456.14 1570.46,4556.83C1580.17,4581.83 1600.43,4601.27 1625.82,4609.95L1678.28,4627.87L1676.18,4254.94L1266.38,4258.98ZM1603.77,4312.7C1606.22,4312.68 1608.57,4313.63 1610.31,4315.35C1612.06,4317.06 1613.04,4319.4 1613.06,4321.85C1613.19,4345.03 1613.57,4412.57 1613.75,4451.4C1613.77,4455.46 1611.12,4459.05 1607.23,4460.22C1603.34,4461.39 1599.15,4459.86 1596.93,4456.47C1563.13,4406.22 1517.82,4363.43 1464.36,4331.15C1460.81,4329.05 1459.09,4324.84 1460.15,4320.85C1461.22,4316.86 1464.81,4314.08 1468.94,4314.03L1603.77,4312.7ZM1468.76,4331.14C1521.12,4363.36 1565.54,4405.68 1598.85,4455.19L1598.85,4455.2C1600.51,4457.75 1603.65,4458.9 1606.57,4458.02C1609.48,4457.15 1611.47,4454.46 1611.45,4451.41C1611.28,4415.43 1610.94,4354.77 1610.79,4327.63C1610.26,4327.53 1609.71,4327.48 1609.16,4327.48L1474.33,4328.81C1472.19,4328.83 1470.21,4329.7 1468.76,4331.14Z"/>
            </g>
        </g>
    </g>
</svg>
