<?xml version="1.0" encoding="UTF-8" standalone="no"?>
<!DOCTYPE svg PUBLIC "-//W3C//DTD SVG 1.1//EN" "http://www.w3.org/Graphics/SVG/1.1/DTD/svg11.dtd">
<svg width="100%" height="100%" viewBox="0 0 4890 5130" version="1.1" xmlns="http://www.w3.org/2000/svg" xmlns:xlink="http://www.w3.org/1999/xlink" xml:space="preserve" xmlns:serif="http://www.serif.com/" style="fill-rule:evenodd;clip-rule:evenodd;stroke-linejoin:round;stroke-miterlimit:2;">
    <g transform="matrix(26.2233,1.89698e-15,-1.89782e-15,26.2118,-19070.4,-3688.61)">
        <g id="_3" serif:id="3">
            <path d="M771.222,142.421C795.823,140.158 845.084,140.158 869.685,142.421C882.521,143.601 892.129,145.453 898.319,151.673C904.526,157.91 906.375,167.587 907.553,180.523C908.215,187.783 909.05,203.378 909.05,210.756C909.05,220.843 909.242,221.391 913.665,224.463C913.771,235.331 913.48,251.68 913.005,265.138C908.838,267.829 908.489,268.471 907.128,279.87C905.768,291.269 904.027,302.606 898.319,308.342C892.257,314.434 884.463,318.501 871.891,319.657L854.693,321.239L851.675,327.755C849.609,332.215 845.468,334.634 841.658,335.256C832.023,336.831 808.884,336.831 799.249,335.256C795.439,334.634 791.298,332.215 789.232,327.755C787.561,324.148 786.223,321.239 786.223,321.239L769.025,319.657C756.453,318.501 748.659,314.434 742.597,308.342C736.889,302.606 735.148,291.269 733.788,279.87C732.427,268.471 732.077,267.829 727.911,265.138C727.436,251.68 727.145,235.331 727.251,224.463C731.674,221.391 731.866,220.843 731.866,210.756C731.866,203.378 732.692,187.783 733.354,180.523C734.532,167.587 736.381,157.91 742.588,151.673C748.777,145.453 758.386,143.601 771.222,142.421ZM824.84,266.809L849.997,266.809L856.257,260.546L856.257,248.865L852.356,244.962L856.257,241.058L856.257,229.377L849.997,223.114L824.84,223.114L824.84,266.809ZM832.352,248.719L846.212,248.719L848.745,251.254L848.745,256.759L846.212,259.293L832.352,259.293L832.352,248.719ZM832.352,230.63L846.212,230.63L848.745,233.164L848.745,238.67L846.212,241.204L832.352,241.204L832.352,230.63ZM786.988,260.546L793.248,266.809L812.145,266.809L818.405,260.546L818.405,223.114L810.893,223.114L810.922,256.73L808.36,259.293L797.033,259.293L794.529,256.759L794.529,223.114L786.988,223.114L786.988,260.546ZM749.136,260.546L755.396,266.809L774.293,266.809L780.553,260.546L780.553,252.623L773.041,252.623L773.041,256.73L770.508,259.293L759.181,259.293L756.677,256.759L756.677,233.164L759.21,230.601L770.508,230.601L773.041,233.164L773.041,237.301L780.553,237.301L780.553,229.377L774.293,223.114L755.396,223.114L749.136,229.377L749.136,260.546ZM862.692,223.114L862.692,266.809L891.78,266.809L891.78,259.293L870.204,259.293L870.204,248.719L887.034,248.719L887.034,241.204L870.204,241.204L870.204,230.63L891.78,230.63L891.78,223.114L862.692,223.114Z"/>
        </g>
    </g>
</svg>
