<?xml version="1.0" encoding="UTF-8" standalone="no"?>
<!DOCTYPE svg PUBLIC "-//W3C//DTD SVG 1.1//EN" "http://www.w3.org/Graphics/SVG/1.1/DTD/svg11.dtd">
<svg width="100%" height="100%" viewBox="0 0 610 640" version="1.1" xmlns="http://www.w3.org/2000/svg" xmlns:xlink="http://www.w3.org/1999/xlink" xml:space="preserve" xmlns:serif="http://www.serif.com/" style="fill-rule:evenodd;clip-rule:evenodd;stroke-linejoin:round;stroke-miterlimit:2;">
    <g id="AUSTEN-2" serif:id="AUSTEN 2" transform="matrix(4.30389,0,0,4.51556,0,0)">
        <rect x="0" y="0" width="141.732" height="141.732" style="fill:none;"/>
        <clipPath id="_clip1">
            <rect x="0" y="0" width="141.732" height="141.732"/>
        </clipPath>
        <g clip-path="url(#_clip1)">
            <g transform="matrix(0.760133,5.24101e-17,-5.50118e-17,0.724182,-552.791,-101.909)">
                <path d="M771.222,142.421C795.823,140.158 845.084,140.158 869.685,142.421C882.521,143.601 892.129,145.453 898.319,151.673C904.526,157.91 906.375,167.587 907.553,180.523C908.215,187.783 909.05,203.378 909.05,210.756C909.05,220.843 909.242,221.391 913.665,224.463C913.771,235.331 913.48,251.68 913.005,265.138C908.838,267.829 908.489,268.471 907.128,279.87C905.768,291.269 904.027,302.606 898.319,308.342C892.257,314.434 884.463,318.501 871.891,319.657L854.693,321.239L851.675,327.755C849.609,332.215 845.468,334.634 841.658,335.256C832.023,336.831 808.884,336.831 799.249,335.256C795.439,334.634 791.298,332.215 789.232,327.755C787.561,324.148 786.223,321.239 786.223,321.239L769.025,319.657C756.453,318.501 748.659,314.434 742.597,308.342C736.889,302.606 735.148,291.269 733.788,279.87C732.427,268.471 732.077,267.829 727.911,265.138C727.436,251.68 727.145,235.331 727.251,224.463C731.674,221.391 731.866,220.843 731.866,210.756C731.866,203.378 732.692,187.783 733.354,180.523C734.532,167.587 736.381,157.91 742.588,151.673C748.777,145.453 758.386,143.601 771.222,142.421ZM853.211,175.011L853.253,172.464L852.286,171.838C850.28,170.539 846.942,165.311 839.345,161.7C837.471,160.809 811.704,149.752 790.036,173.092C787.998,175.286 788.394,175.958 785.935,176.303C782.794,176.745 785.368,178.628 784.498,180.05C784.061,180.765 780.922,180.927 780.629,181.051C778.102,182.116 776.111,187.976 775.624,189.019C780.382,199.672 780.301,199.916 783.059,201.445C786.981,203.62 788.138,200.027 791.435,203.028C801.309,212.016 803.124,212.772 802.289,219.61C801.681,224.592 796.172,231.485 795.578,232.816C794.578,235.058 795.781,235.624 790.904,242.179C786.362,248.285 786.532,248.363 781.707,254.201C780.412,255.767 779.644,255.484 779.826,257.486C780.169,261.276 776.149,272.641 784.241,278.096C805.278,292.275 803.506,295.029 821.961,303.627C834.613,309.521 840.925,306.923 842.231,306.79C842.188,305.669 840.064,298.45 844.41,293.165C845.914,291.337 852.337,285.748 854.787,278.37C856.557,273.041 854.626,273.149 851.202,268.685C846.345,262.354 839.364,260.137 834.218,251.08C830.051,243.748 833.231,242.313 833.429,241.809C832.237,239.181 830.877,236.633 829.685,234.006C827.352,228.865 831.915,223.459 834.085,222.879C836.962,222.11 839.984,222.021 842.887,221.358C850.64,219.587 847.981,215.959 848.274,213.971C848.321,213.655 849.944,209.131 850.226,208.574C851.276,206.5 850.882,204.155 851.381,203.809C855.083,201.239 857.93,201.792 855.821,197.83C855.431,197.099 851.511,189.737 850.735,188.809C849.398,187.211 850.016,187.033 850.027,184.948C850.033,183.959 849.824,182.911 850.169,181.983C850.53,181.01 853.117,180.791 853.211,175.011Z"/>
            </g>
        </g>
    </g>
</svg>
