<?xml version="1.0" encoding="UTF-8" standalone="no"?><!DOCTYPE svg PUBLIC "-//W3C//DTD SVG 1.1//EN" "http://www.w3.org/Graphics/SVG/1.1/DTD/svg11.dtd"><svg width="100%" height="100%" viewBox="0 0 2866 307" version="1.1" xmlns="http://www.w3.org/2000/svg" xmlns:xlink="http://www.w3.org/1999/xlink" xml:space="preserve" xmlns:affinity="https://www.affinity.studio/" style="fill-rule:evenodd;clip-rule:evenodd;stroke-linejoin:round;stroke-miterlimit:2;"><g id="full-clic-area"><path id="_1" affinity:id="1" d="M64.725,306.825l-2.106,-182.831l-15.211,9.082l-47.408,-56.41l57.833,-48.057c20.978,-11.979 41.107,-21.936 59.463,-27.809l70.843,0c11.902,4.282 41.182,17.647 61.485,27.809c19.082,15.221 37.727,30.697 55.94,46.424l-47.961,56.17l-11.909,-7.767l0.429,183.389l-181.398,0Z" style="fill:#0091ff;fill-opacity:0.5;"/><path id="_2" affinity:id="2" d="M265.787,22.45c16.993,-9.217 33.302,-16.816 48.408,-21.65l70.843,0c11.902,4.282 41.181,17.647 61.486,27.809c19.082,15.221 37.726,30.697 55.94,46.424l-47.961,56.17l-11.91,-7.767l0.43,183.389l-181.398,0l-0.629,-54.633l-0.239,-101.583l65.902,-76.51c-19.778,-17.472 -40.11,-34.668 -60.872,-51.649Z" style="fill:#0091ff;fill-opacity:0.5;"/><path id="_3" affinity:id="3" d="M462.687,22.45c16.993,-9.217 33.301,-16.816 48.408,-21.65l70.843,0c11.902,4.282 41.181,17.647 61.485,27.809c19.082,15.221 37.727,30.697 55.941,46.424l-47.962,56.17l-11.91,-7.767l0.43,183.389l-181.399,0l-0.629,-54.633l-0.238,-101.583l65.902,-76.51c-19.778,-17.472 -40.109,-34.668 -60.871,-51.649Z" style="fill:#0091ff;fill-opacity:0.5;"/><path id="_4" affinity:id="4" d="M659.587,22.45c16.993,-9.217 33.301,-16.816 48.408,-21.65l70.843,0c11.901,4.282 41.181,17.647 61.485,27.809c19.082,15.221 37.726,30.697 55.941,46.424l-47.962,56.17l-11.91,-7.767l0.429,183.389l-181.398,0l-0.629,-54.633l-0.238,-101.583l65.901,-76.51c-19.777,-17.472 -40.108,-34.668 -60.87,-51.649Z" style="fill:#0091ff;fill-opacity:0.5;"/><path id="_5" affinity:id="5" d="M856.486,22.45c16.994,-9.217 33.301,-16.816 48.408,-21.65l70.843,0c11.902,4.282 41.178,17.647 61.488,27.809c19.08,15.221 37.728,30.697 55.941,46.424l-47.968,56.17l-11.904,-7.767l0.423,183.389l-181.394,0l-0.629,-54.633l-0.238,-101.583l65.901,-76.51c-19.778,-17.472 -40.11,-34.668 -60.871,-51.649Z" style="fill:#0091ff;fill-opacity:0.5;"/><path id="_6" affinity:id="6" d="M1053.382,22.45c16.994,-9.217 33.303,-16.816 48.412,-21.65l70.839,0c11.904,4.282 41.185,17.647 61.486,27.809c19.09,15.221 37.727,30.697 55.941,46.424l-47.958,56.17l-11.914,-7.767l0.433,183.389l-181.401,0l-0.625,-54.633l-0.242,-101.583l65.9,-76.51c-19.776,-17.472 -40.107,-34.668 -60.871,-51.649Z" style="fill:#0091ff;fill-opacity:0.5;"/><path id="_7" affinity:id="7" d="M1250.286,22.45c16.994,-9.217 33.303,-16.816 48.402,-21.65l70.849,0c11.904,4.282 41.185,17.647 61.485,27.809c19.081,15.221 37.728,30.697 55.942,46.424l-47.969,56.17l-11.904,-7.767l0.434,183.389l-181.402,0l-0.635,-54.633l-0.232,-101.583l65.9,-76.51c-19.776,-17.472 -40.106,-34.668 -60.87,-51.649Z" style="fill:#0091ff;fill-opacity:0.5;"/><path id="_8" affinity:id="8" d="M1447.19,22.45c16.984,-9.217 33.293,-16.816 48.402,-21.65l70.849,0c11.894,4.282 41.175,17.647 61.485,27.809c19.081,15.221 37.718,30.697 55.932,46.424l-47.959,56.17l-11.914,-7.767l0.433,183.389l-181.401,0l-0.625,-54.633l-0.242,-101.583l65.9,-76.51c-19.776,-17.472 -40.106,-34.668 -60.86,-51.649Z" style="fill:#0091ff;fill-opacity:0.5;"/><path id="_9" affinity:id="9" d="M1644.084,22.45c16.994,-9.217 33.302,-16.816 48.412,-21.65l70.839,0c11.904,4.282 41.185,17.647 61.485,27.809c19.08,15.221 37.728,30.697 55.941,46.424l-47.958,56.17l-11.914,-7.767l0.433,183.389l-181.401,0l-0.625,-54.633l-0.242,-101.583l65.9,-76.51c-19.776,-17.472 -40.107,-34.668 -60.87,-51.649Z" style="fill:#0091ff;fill-opacity:0.5;"/><path id="_10" affinity:id="10" d="M1840.987,22.45c16.995,-9.217 33.303,-16.816 48.402,-21.65l70.849,0c11.894,4.282 41.175,17.647 61.486,27.809c19.08,15.221 37.717,30.697 55.931,46.424l-47.958,56.17l-11.904,-7.767l0.423,183.389l-181.391,0l-0.635,-54.633l-0.232,-101.583l65.9,-76.51c-19.776,-17.472 -40.117,-34.668 -60.871,-51.649Z" style="fill:#0091ff;fill-opacity:0.5;"/><path id="_11" affinity:id="11" d="M2037.881,22.45c16.994,-9.217 33.303,-16.816 48.412,-21.65l70.839,0c11.904,4.282 41.185,17.647 61.485,27.809c19.081,15.221 37.728,30.697 55.942,46.424l-47.959,56.17l-11.914,-7.767l0.434,183.389l-181.402,0l-0.625,-54.633l-0.242,-101.583l65.9,-76.51c-19.776,-17.472 -40.106,-34.668 -60.87,-51.649Z" style="fill:#0091ff;fill-opacity:0.5;"/><path id="_12" affinity:id="12" d="M2234.785,22.45c16.994,-9.217 33.303,-16.816 48.402,-21.65l70.849,0c11.894,4.282 41.175,17.647 61.485,27.809c19.081,15.221 37.728,30.697 55.942,46.424l-47.969,56.17l-11.904,-7.767l0.423,183.389l-181.391,0l-0.635,-54.633l-0.232,-101.583l65.9,-76.51c-19.776,-17.472 -40.106,-34.668 -60.87,-51.649Z" style="fill:#0091ff;fill-opacity:0.5;"/><path id="_13" affinity:id="13" d="M2431.679,22.45c16.994,-9.217 33.302,-16.816 48.412,-21.65l70.839,0c11.904,4.282 41.185,17.647 61.485,27.809c19.09,15.221 37.728,30.697 55.941,46.424l-47.958,56.17l-11.914,-7.767l0.433,183.389l-181.401,0l-0.625,-54.633l-0.242,-101.583l65.9,-76.51c-19.776,-17.472 -40.107,-34.668 -60.87,-51.649Z" style="fill:#0091ff;fill-opacity:0.5;"/><path id="_14" affinity:id="14" d="M2628.582,22.45c16.995,-9.217 33.303,-16.816 48.412,-21.65l70.839,0c11.904,4.282 41.185,17.647 61.486,27.809c19.08,15.221 37.727,30.697 55.941,46.424l-47.958,56.17l-11.914,-7.767l0.433,183.389l-181.401,0l-0.625,-54.633l-0.242,-101.583l65.9,-76.51c-19.776,-17.472 -40.107,-34.668 -60.871,-51.649Z" style="fill:#0091ff;fill-opacity:0.5;"/></g></svg>