<?xml version="1.0" encoding="UTF-8" standalone="no"?>
<!DOCTYPE svg PUBLIC "-//W3C//DTD SVG 1.1//EN" "http://www.w3.org/Graphics/SVG/1.1/DTD/svg11.dtd">
<svg width="100%" height="100%" viewBox="0 0 3840 3840" version="1.1" xmlns="http://www.w3.org/2000/svg" xmlns:xlink="http://www.w3.org/1999/xlink" xml:space="preserve" xmlns:serif="http://www.serif.com/" style="fill-rule:evenodd;clip-rule:evenodd;stroke-linejoin:round;stroke-miterlimit:2;">
    <rect id="logo-higgins-" serif:id="logo-higgins " x="0" y="0" width="3840" height="3840" style="fill:none;"/>
    <clipPath id="_clip1">
        <rect id="logo-higgins-1" serif:id="logo-higgins " x="0" y="0" width="3840" height="3840"/>
    </clipPath>
    <g clip-path="url(#_clip1)">
        <g transform="matrix(11.5055,8.32667e-16,-8.32667e-16,11.5055,-7519.76,-730.941)">
            <path d="M653.581,346.051L653.581,114.737C667.453,94.769 684.816,77.404 704.782,63.53L936.134,63.53C956.1,77.404 973.463,94.769 987.335,114.737L987.335,346.051C973.454,366.032 956.079,383.405 936.096,397.284L704.819,397.284C684.837,383.405 667.462,366.032 653.581,346.051ZM858.903,369.32C865.311,368.083 869.838,365.897 874.668,359.373C875.181,358.681 877.624,355.299 879.069,353.285C900.376,350.809 913.244,344.725 924.008,333.908C933.176,324.695 939.328,308.341 942.248,290.336C942.248,290.336 951.157,282.654 951.669,269.334C952.241,254.476 952.594,235.249 952.451,223.17C952.45,223.152 952.45,223.134 952.45,223.116C952.45,209.383 945.051,201.837 945.051,201.837C944.697,193.644 944.227,183.598 943.647,177.235C941.516,153.846 935.232,137.385 924.009,126.107C912.757,114.8 896.34,108.476 873.005,106.329C840.798,103.367 800.118,103.367 767.911,106.329C744.576,108.476 728.159,114.8 716.907,126.107C705.684,137.385 699.399,153.846 697.269,177.235C696.689,183.598 696.219,193.644 695.865,201.837C695.865,201.837 688.466,209.383 688.466,223.116C688.466,223.134 688.466,223.152 688.465,223.17C688.322,235.249 688.675,254.476 689.246,269.334C689.759,282.654 698.668,290.336 698.668,290.336C701.588,308.341 707.74,324.695 716.908,333.908C727.672,344.725 740.54,350.809 761.847,353.285C763.292,355.299 765.735,358.681 766.248,359.373C771.078,365.897 775.605,368.083 782.013,369.32C801.494,373.078 839.422,373.078 858.903,369.32ZM816.803,221.294L819.576,266.748C819.605,267.214 819.991,267.577 820.457,267.577C820.923,267.577 821.309,267.214 821.338,266.748L824.111,221.294C824.549,214.126 830.467,210.015 837.614,210.015C857.652,210.015 901.198,210.015 921.577,210.018C928.966,210.018 932.788,215.973 932.895,223.402L932.895,223.405C933.038,235.223 932.69,254.037 932.13,268.58C931.857,274.709 926.808,279.537 920.674,279.537C913.949,279.539 906.614,279.539 906.614,279.539L907.446,268.929L920.611,268.929C922.163,268.929 923.442,267.712 923.545,266.157C924.37,251.99 924.693,236.939 924.515,222.066C924.484,220.456 923.181,219.157 921.576,219.157C901.198,219.155 856.182,219.155 836.143,219.155C834.586,219.155 833.303,220.38 833.208,221.942L830.437,267.354C830.114,272.651 825.738,276.774 820.457,276.774C815.176,276.774 810.8,272.651 810.477,267.354L807.706,221.942C807.611,220.38 806.328,219.155 804.771,219.155L719.341,219.155C717.731,219.155 716.427,220.459 716.4,222.076C716.224,236.938 716.548,251.988 717.376,266.172C717.486,267.718 718.761,268.926 720.307,268.926C720.308,268.926 720.309,268.926 720.31,268.926C725.634,268.929 730.752,268.929 730.752,268.929L733.471,268.929L734.303,279.539L731.123,279.539L720.246,279.539C714.111,279.539 709.062,274.711 708.788,268.582C708.228,254.041 707.879,235.223 708.02,223.402L708.02,223.398C708.127,215.972 711.95,210.015 719.341,210.015L803.3,210.015C810.447,210.015 816.366,214.126 816.803,221.294ZM923.698,281.848C921.845,297.374 917.922,312.301 910.148,320.113C901.63,328.672 891.083,332.587 873.419,334.212C871.253,334.411 869.051,334.597 866.818,334.768L864.311,340.182C863.16,342.667 860.671,344.257 857.932,344.257L856.107,344.257L863.169,317.121C865.184,316.962 868.147,316.714 869.631,316.578C882.189,315.423 891.613,313.698 897.668,307.614C902.717,302.54 904.213,296.054 905.91,282.175C905.91,282.175 913.95,282.175 920.674,282.173C921.711,282.173 922.723,282.061 923.698,281.848ZM715.178,207.948C715.535,199.555 716.054,186.585 716.744,179.009C718.36,161.267 722.255,148.456 730.768,139.901C739.286,131.343 752.039,127.428 769.702,125.803C801.081,122.917 839.836,122.917 871.214,125.803C888.877,127.428 901.63,131.343 910.148,139.901C918.661,148.456 922.556,161.267 924.172,179.009C924.862,186.586 925.381,199.557 925.738,207.95C924.468,207.579 923.08,207.382 921.577,207.382C918.117,207.381 913.988,207.381 909.42,207.381C909.798,197.538 911.015,182.011 911.017,174.07C911.02,163.508 910.984,154.006 903.527,146.513C896.262,139.212 885.202,136.385 870.134,134.998C839.423,132.174 801.493,132.174 770.782,134.998C755.714,136.385 744.654,139.212 737.389,146.513C729.932,154.006 729.896,163.508 729.899,174.07C729.901,182.01 731.118,197.536 731.496,207.379L719.341,207.379C717.837,207.379 716.449,207.577 715.178,207.948ZM850.744,347.421C850.242,349.35 848.655,350.835 846.771,351.26C842.244,352.284 831.058,353.19 820.453,353.19C809.85,353.189 798.672,352.284 794.145,351.26C792.261,350.835 790.674,349.35 790.173,347.421C788.714,341.816 783.394,321.385 783.394,321.385L782.375,317.471L786.413,317.708C808.362,318.997 832.548,318.997 854.501,317.708L858.538,317.471L850.744,347.421ZM734.999,282.175C736.696,296.054 738.2,302.54 743.249,307.614C749.304,313.698 758.729,315.423 771.286,316.578C772.77,316.714 775.729,316.962 777.745,317.121L784.809,344.257L782.732,344.257C780.148,344.257 777.799,342.756 776.713,340.411L774.099,334.768C771.866,334.597 769.665,334.411 767.498,334.212C749.834,332.587 739.287,328.672 730.77,320.113C722.995,312.301 719.072,297.375 717.219,281.849C718.195,282.062 719.208,282.175 720.246,282.175L731.123,282.175L734.999,282.175Z"/>
        </g>
    </g>
</svg>
