<?xml version="1.0" encoding="UTF-8" standalone="no"?>
<!DOCTYPE svg PUBLIC "-//W3C//DTD SVG 1.1//EN" "http://www.w3.org/Graphics/SVG/1.1/DTD/svg11.dtd">
<svg width="100%" height="100%" viewBox="0 0 486 200" version="1.1" xmlns="http://www.w3.org/2000/svg" xmlns:xlink="http://www.w3.org/1999/xlink" xml:space="preserve" xmlns:serif="http://www.serif.com/" style="fill-rule:evenodd;clip-rule:evenodd;stroke-linejoin:round;stroke-miterlimit:2;">
    <g transform="matrix(0.849322,1.96709e-17,-1.96709e-17,0.849322,-851.369,-95.9446)">
        <path d="M1245.59,300.594L1225.16,231.53C1245.62,221.672 1255.86,200.739 1255.86,176.509C1255.86,142.798 1232.41,115.469 1198.68,115.469L1139.56,115.469L1139.56,345.434L1171.65,345.434L1171.65,237.549L1194.74,237.549L1226.76,345.435L1235.88,345.435L1245.59,300.594ZM1198.68,147.334C1214.8,147.334 1223.98,160.397 1223.98,176.509C1223.98,192.621 1214.8,205.683 1198.68,205.684L1171.44,205.684L1171.44,147.334L1198.68,147.334ZM1364,238.735L1386.5,345.434L1395.62,345.44L1395.62,237.807L1425.29,237.807L1425.29,205.633L1395.62,205.633L1395.62,147.334L1439.65,147.334L1439.65,115.415L1363.99,115.415L1364,238.735ZM1100.48,336.428L1106.38,345.057L1126.72,345.057L1126.72,238.001L1085.89,238.001L1085.89,269.572L1097.55,269.572L1097.57,283.922C1097.57,301.193 1083.54,315.205 1066.27,315.205C1049,315.205 1034.97,301.187 1034.97,283.922C1034.97,266.657 1035.09,191.347 1035.09,175.081C1035.09,158.815 1048.3,145.609 1064.57,145.609C1080.84,145.609 1094.05,158.815 1094.05,175.081L1094.05,188.598L1126.72,188.598L1126.71,175.02C1126.68,140.739 1098.87,112.966 1064.57,112.966C1030.28,112.966 1002.49,140.739 1002.43,175.02C1002.39,211.956 1002.42,248.922 1002.46,285.858C1002.51,320.109 1030.31,347.848 1064.57,347.848C1077.95,347.848 1090.34,343.62 1100.48,336.428ZM1511.88,147.335C1528.16,147.335 1541.37,160.542 1541.37,176.808L1541.37,188.592L1574.03,188.592L1574.03,177.471C1573.99,143.189 1546.18,115.415 1511.88,115.415L1511.88,147.335ZM1482.39,115.415L1477.83,115.415L1450.29,152.808L1450.3,285.791C1450.33,320.074 1477.58,347.848 1511.88,347.848C1546.17,347.848 1573.99,320.074 1574.02,285.791L1574.03,272.213L1541.36,272.213L1541.36,285.731C1541.36,301.997 1528.15,315.203 1511.88,315.203C1495.6,315.203 1482.39,301.997 1482.39,285.731L1482.39,115.415ZM1338.46,169.766L1311.53,169.732L1287.55,154.307L1256.47,300.594L1269.91,345.435L1279.04,345.434L1287.84,304.219L1335.23,304.219L1344.22,345.434L1353.34,345.434L1353.34,239.411L1338.46,169.766ZM1338.46,169.766L1326.87,115.509L1295.79,115.509L1294.84,119.97L1338.46,169.766ZM1328.42,272.353L1294.65,272.353L1311.53,193.344L1328.42,272.353Z"/>
    </g>
</svg>
